<?xml version="1.0" encoding="utf-8"?>
<!-- Generator: Adobe Illustrator 18.1.1, SVG Export Plug-In . SVG Version: 6.00 Build 0)  -->
<svg version="1.1" id="Layer_1" xmlns="http://www.w3.org/2000/svg" xmlns:xlink="http://www.w3.org/1999/xlink" x="0px" y="0px"
	 viewBox="0 0 551 340" enable-background="new 0 0 551 340" xml:space="preserve">
<g>
	<g>
		<polygon fill="#FFFFFF" points="213.1,188.1 219.2,188.6 219.8,179.6 221.9,141.8 222.1,137.6 203.8,135.9 203.8,136 202.6,135.8 
			202.5,135.8 202.5,135.8 154.6,130.1 147.5,181.4 210.5,187.9 210.5,187.9 		"/>
		<path fill="#FFFFFF" d="M426.6,192.7c0.2,0,0.4,0,0.6,0.1c0.1,0,0.1,0,0.2,0l1.3-2l0,0l0,0l1.6-0.5l1.1,0.1l0.9-1.9l1.7-1.5l0.2-1
			l0.1-0.8l0-0.9l-0.5,0l-1.6,1.2l-3.8,0l-0.8,0l-8.9,1.2l-2.4,0.3l-2,0.5l-2.5,0.6l-14,1.3l-17.5,1.7l-12.3,1.4l-1.9,0l-0.1,2.5
			l0,0l0,0l-3,0.1l-2.5,0.1l-4.2,0.4l-4.5-0.1l-0.8,3.8l-0.8,2.7l0.7-0.1l-0.9,0.8L350,203l-0.1,0.1l0,0.1l0,0l-1.3,4.1l-0.4,1.4
			l-1.5,1.3l0.6,1.7l3,0.5l-2,1.4l-0.1,0.6l22.6-2.3l0,0l11.8-1l23.4-2.3l2.9-0.3l0.2-2.1l0.1-0.1l0,0l1.4-1.1l1.2-0.3l0.2-0.1
			l0.4-2l0-0.1l0,0l0,0l2.8-1.8l1.9-0.7l0.5-0.2l0.8-0.7l1.7-1.5l1.4-0.6l1-0.5l0-0.1l0.3-1.6l2-2l0.6-0.6l0,0l0,0l0.2-0.1l0.2-0.2
			l0.1,0.1l0.2,0l0.5-0.1v0.7C426.6,192.7,426.6,192.7,426.6,192.7z"/>
		<polygon fill="#FFFFFF" points="202.7,134.2 203.7,123.5 207.3,82.1 181.6,78.9 143.7,74.1 143.5,75.1 142,84.2 137.5,113.4 
			137.4,113.4 135.3,126.6 139.3,127.1 154.8,128.7 154.8,128.8 		"/>
		<polygon fill="#FFFFFF" points="276.2,75.2 276.8,74.5 276.9,73.6 242.2,72.7 212.6,70.8 209.6,70.6 209.2,74.5 206.4,108.1 
			213.6,108.5 217.2,108.8 227.4,109.4 231.1,109.6 251.2,110.7 252,110.7 259.4,110.4 260.3,111.4 260.7,112 261.8,112.6 
			263.6,113.7 263.7,113.8 263.8,113.9 263.9,114 264.1,114.1 266.4,113.4 266.5,113.4 266.6,113.3 267.8,113.2 268.9,113.1 
			270.8,112.9 270.8,112.9 270.8,112.9 271.2,113.2 272,113.9 273,114.2 274.4,114.8 275.3,115.2 273.7,109.6 276.3,114 276.7,113 
			277.1,112.1 277.5,110.1 277.8,108.9 277.1,108.4 276.3,107.8 276.2,107.4 275.9,105.7 276.3,104.9 276.6,103.7 278.4,103.7 
			278.4,102.9 278.3,101.2 278.1,82.9 277.8,81 275.4,78.9 274.7,77.8 274.7,76.4 275,76.1 		"/>
		<polygon fill="#FFFFFF" points="452.9,243.2 452.1,243.5 450.1,242.5 450,242.4 450,242.4 449.6,240.9 448.9,239 447.7,238 
			446,237.5 445.9,237.4 445.9,237.4 444.9,234.3 443.3,230.8 440.8,229.6 439.4,228.2 439.4,228.2 439.3,228.2 438.6,226.7 
			437.5,225.7 436,224.8 436,224.7 435.9,224.7 434.7,223.1 433,221.8 430,220.7 430,220.6 430,220.6 429.6,219.6 428.2,217.8 
			428.2,217.8 428.1,217.7 427.9,216.9 426,214.2 424,214.3 421.6,212.7 420.5,211.8 420.3,210.3 420.5,209.7 421,208.7 
			421.9,208.3 422.1,208.3 422,207.9 409.8,209.4 409.8,209.4 409.1,209.5 408.7,209.6 408.7,209.5 406,209.8 397.7,210.8 
			397.6,211.7 397.7,212.9 398.1,214.8 400.1,219.5 402.5,229.3 403.4,232.2 404.3,236.5 405.6,240.2 407.2,242.3 407.4,244.1 
			408.6,244.6 408.8,246.4 407.7,249.4 407.4,251.3 407.3,252.3 408.3,255 408.5,258.3 408.1,259.6 408.2,259.8 409.2,260.4 
			409.5,262.7 410.6,264.3 411.3,265.1 415.9,265.4 435.5,264.2 438.7,263.8 442.4,263.9 442.4,264 442.5,264 442.5,264.9 
			442.7,265.8 443,265.9 443.1,264 442.1,261.2 442.8,260.4 443.3,259.8 444.9,260 446.9,260.2 449.4,260.4 449,257.3 450.4,251.1 
			451.3,248.6 451,247 453,243.3 		"/>
		<polygon fill="#FFFFFF" points="277.5,104.8 277.3,105.3 277.2,105.8 277.3,107.1 277.8,107.5 279.1,108.5 278.6,110.5 
			278.2,112.3 277.8,113.3 277.1,115.1 278.8,118 278.8,118 278.9,118 279,118.6 279.1,118.8 279.1,118.8 279.5,121.3 279.7,121.8 
			281.2,125.7 281.2,126.2 281.3,126.3 281.4,126.8 281.7,128.6 282.1,129.2 283.2,130.9 283.5,134 284.3,136.3 284.5,136.7 
			284.5,136.8 284.7,140.5 285.7,142.8 285.8,142.8 286.6,142.8 286.7,142.8 287.9,142.7 326.1,141.3 327,143.1 327.5,143.7 
			328.1,144.5 328.3,144.3 328.2,143.3 328.4,142.2 328.4,142.2 328.4,142.2 328.4,142.1 329.8,141.3 330.4,141.1 330.5,140.7 
			330.4,139.7 331.1,138.4 332,137.6 332,136.7 332.1,135.7 332,135.6 331.1,134.7 330.7,134.1 330.5,133.7 331.5,130.8 
			331.5,130.8 331.6,130.8 331.8,130.7 336.1,129.3 337.2,128.5 337.5,127.3 338.1,126.2 338.6,125 339,123.2 338.7,122 
			337.9,121.4 336.3,119.9 336.1,118.9 336,118.8 336,118.8 335.7,118.3 334.8,118.1 334.1,117.9 334.1,117.9 334.1,117.9 
			333.9,116 333.8,115.8 331.9,115.4 331.4,115.2 330.3,114.7 328.7,112.3 328.6,112 328.5,111.4 328.4,109.8 329.7,107.7 
			329.6,107.3 328.9,106.9 328.2,106.4 328.2,106.4 328.2,106.4 327.8,104.1 327.8,104.1 279.6,104.8 279.6,104.8 278.7,104.8 		"/>
		<polygon fill="#FFFFFF" points="273.9,231.9 274.1,231.9 274.3,232.2 274.9,233.2 276.7,233.5 277.1,233.6 277.5,233.7 281,234.9 
			281.4,234.7 281.6,234.6 282.1,232.9 282.1,232.9 282.1,232.9 285.4,232.9 286.2,233.3 286.3,233.3 287.9,232.2 288.5,232.2 
			289.1,232.2 289.4,232.9 289.6,233.2 291.4,233.2 292.3,232.1 292.4,231.9 292.4,231.9 292.4,231.8 293.8,232.2 294.1,232.2 
			294.8,233.1 295.3,233.8 297.2,234.9 299.2,235.5 299.2,235.5 299.1,213.6 298.3,207 298.3,202 297.4,198.3 297.3,198.3 
			297.2,197.2 297.2,197.2 297.2,197.2 296.9,194.5 296.8,192 290.2,192.2 262,191.9 234.7,190.6 221,189.9 220.3,189.8 220.3,190 
			213,189.3 210.4,189.1 210,194.6 218.8,195.1 222.3,195.2 241.8,196 241.8,196.1 241.8,196.1 240.3,211.5 240.2,216 240.1,221.7 
			240.2,222.7 242.6,224.9 243,225.2 243.5,225.4 243.9,224.2 244.1,223.2 244.9,224.5 245.4,225.3 245.8,225.3 245.8,224 
			246.2,224.2 248.4,225.4 248.7,225.4 248.6,225.5 248.7,225.5 248.5,227 248.5,227.6 249.3,227.7 250.5,227.8 252.2,228.5 
			254.7,228.8 255.8,229.8 257.1,228.7 258.7,229 259.8,229.2 261.2,231.2 261.3,231.2 262,231.2 262,231.4 262.1,231.4 262,232.7 
			262.6,232.9 263.3,232.2 264,231.5 265.4,232 267.2,232 267.8,233.7 271.1,234.8 271.6,234.6 272.1,233.2 272.6,231.9 
			272.9,231.9 273.3,230.9 		"/>
		<polygon fill="#FFFFFF" points="379.2,77.6 379.3,77.2 379.2,77.2 		"/>
		<polygon fill="#FFFFFF" points="488.7,131.9 487.8,132.6 488,133.4 488.7,135.3 489.8,138 490,138.6 490,138.7 490,138.7 
			491.3,144.7 491.9,146.9 492.2,148 494.4,147.9 494.8,147.9 497.4,147.4 497.8,147.3 496.8,144.1 496.5,144.3 493.9,142.5 
			492.8,139.5 491.7,137.5 490.5,136.4 489.8,135.7 489.8,135.7 489.7,135.6 489.5,135 489,134.2 489.5,132.4 489.6,131.6 
			489,131.8 		"/>
		<polygon fill="#FFFFFF" points="476.9,145.1 477.3,145.4 477.5,145.6 477.7,145.8 477.9,145.4 477.1,144.9 476.9,145.1 		"/>
		<polygon fill="#FFFFFF" points="277.5,117.9 277.1,117.4 276.9,117.3 277.2,117.9 277.4,117.9 		"/>
		<path fill="#FFFFFF" d="M329.5,144.8l-1.2,0.9l-0.3,0.9l0.1,2.4l1.3,4.2l2.8,3.1l1.4,1.5l1.1,0.7l2.2,1.4l0,0.1l0.2,0.1l-0.1,2.2
			l0,0.3l0.4,0.7l1,0.1l2.6,0.2l0.3,0.2l0.1,0l1.3,0.7l0.3,0.1l-0.5,2.6l-1.1,2.9l-0.1,0.4l-0.4,1.7l0.9,2.1l0.1,0.1l4,3.2l3.1,0.5
			l1.2,3.1l1.3,2.2l-0.1,0.2l0,0l-0.5,1.5l0.6,2.3l0.1,0.3l0.7,0.8l0.1,0l0.3-0.2l0.4-0.9l0.1-0.3l0,0l0,0l1.6-1.2l0.5-0.1l1-0.3
			l1.1,0.5l0.7,0.3l1.3,0.5l0.7,0.3l0.1,0l0-0.2l0-0.6l-0.8-1.5l0.2-1.5l0-0.4l1.5-1.1l0.1,0l0,0l1.9-0.5l-0.1-0.3l0-0.1l-0.1-0.2
			l-0.6-1.6l1.1-0.7l0.3-0.9c0.1-0.3,0.2-0.6,0.3-0.8l0-1.8l0.3-2.5l0-0.4l0,0l0-0.1l1.4-1.8l1-2.3l0.1-0.1l0-0.1l1.3-2.3l-0.2-2.9
			l-1.2-2.2l-0.1-2.2l0.4-3.2l-0.5-4.3l-0.6-9.6l-1.3-16.1l-0.6-2.1l-0.7-2.1l-1-1.1l-0.9-1.7l-0.1-2.9l-0.5,0l-26.1,1.5l0,0.4
			l1.1,0.3l0.8,1.1l0,0l0,0l0,0.2l0.2,0.8l1.4,1.2l0.9,0.8l0.5,1.7l-0.5,2.4l-0.6,1.2l-0.4,0.8l-0.5,1.8l0,0l0,0l-1.7,1.3l-1.1,0.4
			l-3,0.8l0,0l-0.6,1.8l0.3,0.5l0.7,0.6l0.5,0.5l0,0l0,0l-0.1,1.5l-0.1,1.4l-1.2,1l-0.3,0.7v0.5l0.1,1.5l-0.5,0.1l-1,0.3l-0.7,0.5
			l-0.1,0.5l0.1,1.1L329.5,144.8L329.5,144.8L329.5,144.8z"/>
		<polygon fill="#FFFFFF" points="510.8,52.1 510.7,54.9 510.9,58.2 511.5,59.1 512.1,59.9 512.1,62.7 509.6,66.1 508.6,66.5 
			508.3,66.7 508.3,66.8 509.1,67.7 509,70.6 509,73.2 508.5,78.5 508.4,81.1 508.4,81.6 509,82.4 508.8,85.4 508.8,85.5 
			508.8,85.5 508.7,85.8 508.6,86.1 508.7,86.2 519.7,83.2 519.8,83.1 520.8,81.6 520.8,81.6 520.9,81.6 523,80.6 523.4,80.2 
			523.8,78.9 522.6,78.4 522.5,78.3 522.5,78.3 522.2,76.6 519.9,75.9 519.9,75.8 519.9,75.8 519.6,73.7 513.3,53.6 512.7,51.6 
			512.3,52.5 511.1,51.6 		"/>
		<polygon fill="#FFFFFF" points="206.3,109.2 204.9,123.6 204,134.3 223.4,136.5 223.1,141.8 222.7,149.4 235.6,149.9 288.5,151 
			287.6,150 286.9,148.9 285.4,146.5 285.4,145.8 285.5,145 285.3,144.7 285,144.1 285,144.1 284.6,143.3 284.4,142.9 284.5,142.9 
			283.5,140.8 283.4,137 283.4,136.9 283.2,136.4 282.4,134.3 282,131.3 281.2,130 280.5,128.9 280.3,127.1 280.1,126.5 
			278.7,122.3 278.4,121.5 277.9,119.1 277.5,119.1 276.5,119.2 276.5,119.1 276.5,119.1 275.8,117.5 275.8,117.5 275.7,117.4 
			275.6,116.8 275.5,116.7 275.5,116.6 273.9,115.8 272.2,115.1 271.3,114.8 270.5,114.1 270.5,114.1 267.7,114.4 266.7,114.5 
			263.8,115.4 263.2,114.9 263,114.7 262.1,114.1 260,112.8 259.9,112.8 259.9,112.8 259.4,112.2 258.9,111.6 252.6,111.9 
			251.9,111.8 251.9,111.8 251.2,111.8 238.2,111.2 231,110.7 226.7,110.5 217.3,109.9 215.2,109.8 213.4,109.7 		"/>
		<polygon fill="#FFFFFF" points="395.3,157.1 395,153.7 392.5,132.2 392.4,131.3 392.2,129.1 391.5,122.2 388.7,122.5 376.3,123.8 
			374.9,123.9 372.3,124 370.9,124.9 369.6,126.1 368.5,126.4 367.5,125.7 366.5,125.4 368.9,155 368.4,158.3 368.5,160.1 
			369.6,161.7 369.9,165.6 368.4,168.2 367.2,170.6 367.2,170.7 367.2,170.7 365.9,172.3 365.9,172.4 365.6,174.9 365.6,175.6 
			366.7,175.1 366.8,175.1 366.8,175.1 370,174.5 373.1,174.2 373.6,174.8 374.1,175.3 374.4,175.5 375.2,174 375.2,174 
			375.2,173.9 377.6,173 377.6,173 377.6,173 377.9,173.2 379.2,174 379.1,172.8 379.2,172.8 379.2,172.8 381.1,171.7 383,170.8 
			383,170.8 383.1,170.7 383.9,171.7 384.1,171.9 385.5,171.9 385.6,171.4 385.4,170 385.4,169.9 385.4,169.9 385.6,169.7 
			387.2,167.2 389.9,165.3 390.1,164.4 390.3,162.2 390.4,162.2 390.4,162.2 390.6,162.1 392.6,161.8 393,161.6 394.7,160.9 
			394.7,160.9 395.8,160.1 395.8,159.7 395.5,159.3 395,158.7 395.3,157.3 		"/>
		<path fill="#FFFFFF" d="M486.9,133.7l-0.2-0.6l-2,0.4l-2,0.4l-9,1.7l-8.1,1.6l-0.2,0.2l0.6,0.5l0,0l2.2,1.1l2.2,2.1l0,0l1,0.5
			l1,0.4v1.1l0,0.6l2.2,0.5l1.1,0.2l0.1,0l0.9-1.3l0.3,0.2l2.4,1.6l0,0l0,0l0,0l-1,2.1l-0.4,2.3l-0.5,0.6l-0.6,0.9v0.9l0,0l0.1,0.4
			l0.1,0.4l1,0.3l1.6,0.4l1.3,0l1.4,0l1.9,0.6l0.8,0.1l0.3-0.6l-0.8-1.2v-1l-1.4-1.2l-1.4-3.6l0.8-3.3l-0.1-1l-1-1l0.4-0.4
			c0.3-0.4,0.7-0.9,0.7-1c0-0.4,0.3-1.2,0.3-1.4l0.1-0.2l1.3-0.9l1.7-1.4l0.8,1.6l-1.1,1.2l-0.7,2l0,0.2l1.2,0.2l0.4,4.2l-0.7,0.3
			l1.8,2l-1.3,1l-0.2,1.6l1.3,1.7l1.9,0.2l1.2-0.6l2.2,2.8l0.4,0.2l1-0.4l2.6-1.1l1.1-2.1l-0.2-2.2l-0.6,0.1l-2.4,0.5l-0.5,0
			l-3.2,0.1l-0.5-2l-0.7-2.7l-1.2-5.5l-0.3-0.7l-1.3-3L486.9,133.7z"/>
		<polygon fill="#FFFFFF" points="313.1,82.4 313.4,87.6 314.9,89.1 317,89.1 317.7,90.4 318.2,91.1 319.5,91.3 320.2,91.4 
			322.6,94.9 326.9,97.5 327,97.5 327,97.5 328.3,99.3 328.3,99.3 328.3,99.4 328.4,100.3 328.9,103.7 329.3,105.7 329.5,105.9 
			330.6,106.7 330.6,106.7 330.6,106.7 330.9,107.9 330.9,108 329.6,110 329.7,111.3 329.7,111.7 331.1,113.7 331.9,114.2 
			332.4,114.4 334.3,114.7 334.3,114.7 334.4,114.7 334.5,114.9 335,115.4 361.1,113.9 361.7,113.9 361.7,112.6 361,109.9 
			360.6,106.2 359.8,104.6 360.5,102.5 361,100.6 361.8,99.3 361,95.1 361.5,93.7 362.5,92.4 362.6,91.1 362.1,90.2 362.5,88.5 
			362.2,85.9 364,82.4 365.7,78.4 365.7,77.8 361.8,83.5 360.8,84.5 360.2,86 359,86.5 358.2,87.9 356.5,87.5 356.3,85.8 
			357.2,84.2 358.6,81.2 359.6,80.3 360,79.4 359.8,79.3 358.6,78.4 357.4,72.2 356.8,72 355.4,71.5 355,70.9 354.2,70.1 
			347.1,68.5 345.7,68 345.3,67.9 340.4,66.6 335.4,65.8 335.4,65.8 335.4,65.8 334.4,64.5 333.3,63 333.1,63.1 331.9,63 
			331.6,62.4 330.5,62.6 329.3,63.3 328,62.4 328.6,60.7 329.9,58.8 330.1,58.6 329.7,58.3 328.8,58.6 327,59.7 322.5,61.8 
			320.5,62.2 318.4,61.9 318.2,61.6 318.1,61.8 317.4,62.7 317.2,64.2 317.2,66.2 317.3,69.5 316.7,70.2 316.3,70.7 313.3,73 
			312.1,76 313.6,77.2 313.7,77.3 313.7,77.3 313.7,77.3 314.2,79.7 313.1,81.7 		"/>
		<path fill="#FFFFFF" d="M428.5,155.3l-0.9,0.5l0,0l-0.1,0l-0.4-1.6l-0.4-0.3l-0.2,0.1l-0.5,2l-0.1,2.9l0,0.3l-1,0.9l-0.1,1.8
			l-0.7,0.2l-1,0.4l-0.7,0l0,0.6l0.1,1.8l0.3,0.7l0.6,0.4l1,0.6l0.3,1.2l0.1,0.3l2.6,2.2l0.9,1.9l0.1,0.1l1,0.6l0.1-0.1l0.3,0.4
			l0.5,0.3l1,1.4l0.9,1l1.5,0.4l0.4,0.1l0.9-0.4l0.4-0.2l1.6-0.9l0,0l0,0l1.6,0.8c0,0,0.1,0,0.1,0l1.2-0.4c0.2-0.1,0.3-0.1,0.5-0.2
			l1.1-2.4l0.2-0.5l0,0l0,0l1.5,0.3l0.3,0.1l0.6-0.4l1.2-0.9l0,0l0,0l0.9,0.3l0.8-1l0.6-0.9l0-0.2l0.1-0.6l-0.6-0.8l0-0.1l0,0
			l0.3-0.6l1.9-4.1l1.4-3.2l0.4-1l0.1-0.5l0.3-3.1l0.6-0.2l0.7-0.4l0,0.1l0.1,0l1.3,1.5l0.1,0.1l1.7-0.1l1.2-4.5l0,0l0,0l1.1-0.2
			l0.6-0.1l0.2-0.4l0.4-1.1l1.1-1l0.5-0.5l0.6-1.1l1-2.1l0.1-3.2l0-0.6l0.3,0.1l3,1.2l0.5,0.2l2.4,0.9l0.2-1.2c0-0.2,0-0.5,0-0.7
			l0,0l-0.8-1l-1.1-1l-1.7-0.8l-0.2-0.1l0,0l0,0l-0.7-0.5l-0.8,0.2l-1.1,0.8l-1.7,1.4l-2.1,0.2l-0.5-0.2l-0.8,1.2l-1.1,1.1l-1.4,0.4
			l-0.8,0.9l-0.5,0.7l-2.1,2.5l-0.1-0.3l0,0l-0.8-4.5l-0.6-2.5l-0.4,0.1l-3.2,0.4l-6.3,0.9l-0.3,0.1l0,0l-0.1,0l-2-11.5l0,0
			l-0.4,0.6l0.6,1.8v2.8l0,0.2l0,0.2L438,139l-0.2,2.4l0,0.7l0,0l0,0.1l-0.2,0.4l-1.3,2.1l-2,2.1l-1.6,1.1l-0.1,0l-0.3,0.2l-1.1-0.2
			l-0.4,0.4l-0.1,0.2l-1.6,2.5l0,1v0.1l0.1,0.1l0.7,1l-0.4,1.5L428.5,155.3z"/>
		<polygon fill="#FFFFFF" points="443.8,105.8 442.4,107 442.4,107.4 442.7,110 446.7,109.4 472.8,104.1 483.9,101.6 484.8,101.4 
			484.8,101.4 484.8,101.4 486.3,103.1 488.7,103 489.2,105 489.7,107 490.5,107.7 490.8,107.9 491.7,108 492.4,108 492.5,108.2 
			493.6,108.2 493.2,108.7 493.3,108.8 494.2,109.2 494.8,109.5 497.2,110.3 498.7,110.6 500.5,111 501.9,111.9 502,111.3 
			501.7,111.1 501.5,110.8 501.9,110.1 502.3,109.2 502.3,107.4 502.3,104.2 501.2,98.9 500.9,98.2 500.8,98.3 500.7,97.6 
			500.6,97.2 500.7,97.2 500.3,94.8 500.8,87.8 500.8,87.8 500.9,87 501,85 499.3,78.8 499.2,78.7 497,77.7 497,77.6 497,77.6 
			497.5,75.6 497.1,74.6 495.4,71.6 496,69.2 495.6,66.2 494.1,62.3 493.7,59.9 489.9,60.9 487.1,61.8 485.1,61.7 481.9,62.5 
			480.2,63.2 478.8,64.2 477.6,65.6 475.9,67.8 474.2,70.5 473.3,72.4 472.9,72.8 469.5,76 469.6,77.2 469.9,77.6 470.7,78 
			472.2,78 472.2,79.6 471.6,80.8 471.7,81.4 472.6,82.7 472.5,84.6 470.9,85.5 469.8,85.5 469,86.5 467.8,88.5 466.4,89.7 
			463.2,90 461.7,90.6 460.3,91.5 459,91.4 457.9,90.6 454.2,90.7 452.3,91 447.4,92.6 446.1,93.4 447,96.4 448,96.5 449,98.8 
			449.1,99.7 448.3,100.4 447.1,102 446.8,103 445.5,104.2 444.4,104.8 		"/>
		<polygon fill="#FFFFFF" points="308.5,281.7 308.9,277.3 309.3,276 308.8,275.4 308.2,274.7 309.8,272 310.1,271.4 310.5,267.6 
			310.5,266.7 310.1,266.3 310,264.3 308.9,262.8 307.4,261 306.8,257.9 305.3,255.3 305.3,255.2 305.3,255.2 304.9,253 
			304.4,247.2 304.4,242.1 304.4,241.2 304.2,238.9 304.1,237.9 303,237.5 302.3,237.8 301.1,238.3 300.1,237.5 299.4,236.9 
			299.2,236.8 298.6,236.5 296.8,236 296.7,235.9 296.7,235.9 294.6,234.7 294.5,234.6 294.5,234.6 294,233.9 293.4,233.3 
			292.9,233.2 292,234.3 288.9,234.3 288.9,234.3 288.8,234.3 288.4,233.4 288.4,233.3 288.3,233.3 286.5,234.7 286.5,234.7 
			286.4,234.7 285.7,234.3 285,234 283,234 282.6,235.3 282.6,235.4 282.6,235.4 281.9,235.7 281.1,236.2 280.7,236 279,235.5 
			277.2,234.8 276.7,234.7 275.7,234.5 274.1,234.3 273.5,233.2 273.5,233.1 273.2,233.7 272.6,235.4 271.2,236 266.9,234.6 
			266.4,233.2 265.3,233.2 265.1,233.1 265.1,233.1 265,233.1 264.3,232.9 264.1,233.1 262.9,234.2 260.8,233.6 260.8,233.5 
			260.8,233.4 260.8,232.8 260.8,232.4 260.5,232.4 259,230.2 258.5,230.1 257.4,229.9 255.9,231.4 255.6,231.1 254.1,230 
			251.6,229.5 250.2,228.9 249.3,228.8 247.2,228.8 247.2,228.7 247.2,228.7 247.4,226.9 247.4,226.2 247,226 247,226.4 
			246.9,226.4 246.9,226.4 244.7,226.4 244.6,226.2 244.4,226.4 244.4,226.4 244.2,226.5 244.1,226.9 243.7,226.7 243.4,226.8 
			242.4,226.1 242,225.9 239.1,223.5 239.1,223.3 239,223.3 239,223 238.9,222.3 239.1,216.3 239.2,210.7 240.5,197.1 221.7,196.4 
			218.8,196.2 209,195.7 208,206.5 205.7,240.2 204.3,252.6 204.2,252.6 204.2,252.7 190.2,251.8 186.1,251.6 164.4,249.5 
			164.6,251.3 165.6,251.5 167.4,253.6 168.2,256 171,257.4 171.8,259.5 176.1,264.2 176.8,265.1 179.9,266.4 180.6,267.7 
			181.7,268.4 182,270.2 184,274.2 184,279.1 185.2,281.7 189.6,286.3 192.8,287.6 194.1,289 194.1,289.3 196.1,290.4 197.3,290.9 
			198.4,291.5 199.5,292 200.7,290.7 203.3,287.2 203.9,284.8 205.4,282.7 210.7,280.6 212.7,282.1 217.1,282.4 221.4,283.2 
			223.3,284.7 223.3,285.5 224.7,287.2 228.4,290.5 228.5,291.4 229.6,292.6 230.1,295.2 233.4,302.7 233.3,303.7 235.7,305.2 
			237.9,309.3 239.8,311.7 241.8,312.5 243,314.3 242.2,316.9 242.4,317.2 243.4,317.7 243.1,320.3 242.8,320.6 243.1,321.5 
			245.1,322.6 245.9,326.7 247,328.8 251.4,330.8 254.7,331.6 257.1,333.3 258.8,333.7 259.6,333.4 263.3,334.2 266.4,336.3 
			267.9,335.4 268.2,335 267.2,333.4 266.6,329.7 265.6,325.5 265,323.9 265.6,321 267,315.9 267.8,312.9 266.4,311.7 267.3,309.8 
			269.8,309.6 272.2,306.3 274.3,305.9 277.8,303.8 278.8,303 282.7,300.8 286.2,299.3 289.3,297.4 291,296.2 294.3,293 
			296.5,291.6 297.9,290.5 298.5,289.2 304.7,286.4 307.7,285.6 307.7,284.8 307.6,283.8 307.7,283.5 		"/>
		<polygon fill="#FFFFFF" points="42.4,208.3 43.8,208.3 45.9,207.2 48.7,210.3 49.2,211.6 50.8,214.3 51,216.3 51,221.9 
			51.2,222.6 56.9,223.4 68.8,225.1 77.1,225.9 79.2,225.6 79.5,225.2 79.9,224.6 80.1,223.6 78.2,223.4 78,222.9 77.7,222.5 
			77.7,222.4 77.7,222.4 77.7,222.4 78,221.2 78,221.1 77.8,220.4 79.2,220 79.3,219.9 80.9,218.4 81.3,215.5 81.3,215.5 
			81.3,215.5 82.2,213.2 82.3,213.2 82.3,213.1 82.7,212.7 83.6,211.8 85,211.1 85.7,210.8 85.9,210.6 86.4,210.2 86.4,209.4 
			85.9,209.1 85.8,208.9 85.3,208.4 84.6,204.7 82.9,201.7 83.2,199.8 82,199.3 81.9,199.2 39.9,135.8 51.2,95.1 11.7,85.9 
			10.9,88.2 10.8,92.8 7.6,100.1 5.8,101.6 5.5,102.4 4.5,102.9 3.7,105.2 3.2,106.9 4.8,109.3 5.8,111.9 6.5,114.2 6.3,118.3 
			5.2,120.2 4.9,123.6 4.3,125.8 5.3,127.9 6.9,130.6 8.3,133.6 9.2,136.2 9,138.5 8.8,138.7 8.8,139.6 12.3,143.5 11.9,145.2 
			11.1,147.8 11.2,152.5 12.4,154.6 13.4,156 15.2,156.3 16,158.4 15.2,160.9 13.6,162.2 13.2,162.2 12.8,163.9 13.1,165.5 
			15,168.2 16.9,174.3 17.7,176.1 20.6,181.3 20.9,182.8 21.9,183.4 21.9,185.4 21.4,186.6 20.1,191.7 21.2,193 23.7,193.3 
			26.5,194.4 28.7,195.6 30.6,195.6 32.6,197.8 34.8,201.9 36.9,203.1 40,203.6 41.1,205.3 41.6,207.7 41,207.9 		"/>
		<polygon fill="#FFFFFF" points="168.9,248.7 187.2,250.5 190.3,250.7 203.2,251.4 204.5,240.6 206.8,206.8 207.9,194.5 
			208.8,194.5 209.3,188.9 147.2,183.3 147.2,183.4 147.2,183.4 136.9,254.5 145.1,255.5 145.9,249.5 163.4,251.2 162.9,248.3 
			163,248.3 163,248.3 164.3,248.4 		"/>
		<polygon fill="#FFFFFF" points="26.6,201.3 27.4,201.3 25.7,200.3 25.8,200.5 		"/>
		<polygon fill="#FFFFFF" points="234.7,189.4 261.7,190.7 289.6,191 296.7,190.8 296.6,172.1 296.6,169.8 295.8,163 295.4,162.7 
			294.6,162.1 294.5,162 294.4,162 294,161.5 292.7,160.1 291.7,158.2 291.4,157.8 291.6,157 291.7,156.1 291.8,156 291.8,156 
			292.1,155.8 292.8,155.1 292.9,153.9 292.3,153.6 291.6,153.5 291,153.5 290.2,152.7 289.6,152.2 286.8,152.2 235.5,151.1 
			222.7,150.7 220.9,179.6 220.4,188.7 221,188.7 		"/>
		<polygon fill="#FFFFFF" points="334.5,287.7 334.6,287.5 333.3,287 332.7,287.1 333.1,287.3 		"/>
		<polygon fill="#FFFFFF" points="381.5,273.9 381.4,269.6 380,268.5 378.7,267.2 379,264.6 385.6,263.8 401.1,262 405.2,261.6 
			408.1,261.8 408.1,261.1 407.3,260.6 406.7,259.9 407.3,258.2 407.1,255.2 406.1,252.5 406.2,251.2 406.5,249.1 407.6,246.2 
			407.5,245.4 406.4,245 406,242.7 404.5,240.6 403.2,236.8 402.3,232.5 401.3,229.6 399,219.9 396.9,215.1 396.5,213 396.4,211.7 
			396.4,210.9 382.5,212.1 370.7,213.2 370.7,213.5 370.8,216.3 370.9,226.4 370.4,245.2 370.3,253.7 371.9,265 372.9,273.2 
			372.8,273.3 373.9,273.3 374.5,272.1 375.5,269 377.6,269.6 379.7,273.5 379.7,274.6 379,275 379,275.1 		"/>
		<polygon fill="#FFFFFF" points="23.9,201.1 23.9,201.1 23.4,200.5 22.6,200.5 22.8,201.1 		"/>
		<path fill="#FFFFFF" d="M366.6,290.3h-0.4l-2.1-1.7l-3.5-0.5l-2.4-1.7l1-2.5l0.2,0v-1h2.2l0.7-1.3l-0.7-1l-0.1-1.2l-0.1,0l-0.9,1
			l-0.5,2l-2.7-0.6l-0.9-1.7l1.3-1.4l1-1.8l-0.5-1.2l-0.7-2.3l-0.5-0.5l-1.6-1.5l0.4-1.9l0.3-1.5l-0.1-0.1l-5.3,0.6l0,0l-0.2,0
			l-6.5,0.1l-8.9,0.2l-0.3-1l-0.3-0.9l0.6-5.4l0-0.1l0,0l1.3-2.2l0.6-1.1l3.1-5.4l-0.1-0.7l-0.2-0.9l0.9-0.5l0.1-0.6l-1.3-1.2
			l-0.1-1.4l-0.4-1.1l-0.7-1.6l-0.1-3.3l-32.5,0.7l0,5.1l0.4,5.6l0.4,2.1l1.6,2.8l0.5,2.9l1.2,1.6l1.4,1.7l0.1,1.9l0.5,0.5l0,0.1
			l0,0l-0.1,0.5l-0.4,4.9l-0.5,0.8l-1.2,2l0.1,0.1l0.8,1l0,0.1l0,0l-0.5,1.7l-0.4,4.6l-0.8,1.8l0,0.9l0,0.4l2.2-0.7l7.6,0.2l6.3,2.2
			l3.7,0.6l0.9-0.3l-0.6-0.2l1.5-0.3l-0.9-0.5l0-0.4c0-0.3,0.2-1.2,0.9-1.4c0.4-0.1,1.8-0.6,1.8-0.6l0.3-0.1l1,0.8l0.9-0.5l2.4,0.5
			l1.1,1.9l0.1,0.9l2.5,0.2l1.5,1.5l-0.7,1.5l-0.3,0.2l0.4,0.4l4.8,2l1.7-0.6l0.6-1.5l1.7-0.4l1.3-1.1l1.3,1l0.5,1.8l0.2-0.1l1-1.5
			l-0.9-0.1l0.8-1.5l-0.1-1.2l1.6-0.4l1-1.2l1,1.2l0,0.2c0,0.5,0,1,0.1,1.3c0.7,0.1,2.1,0.3,2.4,0.4l0.1,0l2.6,1.2l0.5,0.8h1.7
			l0.4,0.3l0.9-1.2V290.3z"/>
		<path fill="#FFFFFF" d="M543.2,54.3c0,0.3,0.1,0.6,0.2,0.8h0.3l2.8-3.1l2.3-2l0.9-0.3l1.1-2.5v-0.9l-1.3-2.1l-0.9-1l-0.6,0
			l0.1,0.1l-0.3,0.9h-1.1l-2.1-1.7l-0.1-3.1l-0.3-0.7h-3.7L535,20.4l-1-0.5l-3.5-1.4l-0.5-0.1l-0.9,0.9l-2.3,1.7v0.5l-0.9,0.9
			l-2.2-0.5l-1-1.7v-0.3l-0.3,0l-0.4,0L521,22l-1.7,5.3l-1,2.9l0.1,2.8l0.1,1l-0.6,2l-0.4,0.4v3.2l1.3,1.6l-1,2.8l-1.6,2.9l-0.8,2.6
			v2.2l-1.5-0.4l0,0l1.1,3.5l1.5,4.7l4.4,14.2l0.2,1.3l2.3,0.7l0,0.1l0,0l0.3,1.8l0.6,0.2l0.5-2.9l0.1-2.8l0.8-0.7l-0.6-1.9l2.4-2.8
			l1.2,1l0.5-0.2l2.9-1.7l0.2-1.9l1.9-0.3l0.7-1.2l-0.3-2.8l0.5-0.7l-0.1-0.3l-1.1-1.3l2.4-1.5l1.2,2.1l1-0.2l0.3,1.5v0.5l0.1,0
			l0.3-1.4l-1-0.9l1-1.5l1.4-0.8l0.7-1l1.9-0.2L543.2,54.3z"/>
		<polygon fill="#FFFFFF" points="353.2,49.5 350.7,50.9 349.4,52.2 348.6,53.4 347.5,53.8 346.5,55.4 346.4,56.3 343.5,57.7 
			342,58.9 338.4,59.5 338.3,59.6 338.3,60.3 335.7,61.9 334.2,62.3 335.4,63.9 336,64.8 340.6,65.4 345.6,66.8 346,66.9 
			347.4,67.4 354.9,69.1 355.8,70.2 356.1,70.5 357.2,70.9 358.4,71.4 358.4,71.4 358.4,71.4 359.6,77.7 360.5,78.4 362.1,74.8 
			362.6,72.5 364,69.5 365.1,69.2 365.8,70.2 368.8,68.7 369.8,69.7 370.1,69.4 370.9,67.4 372.7,66.8 376.7,66.5 377.9,64.9 
			381.4,64.8 384.9,65.6 385.8,65.6 387.8,64.7 389.2,64.8 390.5,64.4 392,64.6 389.9,62.7 389.9,58.6 389.8,58.6 389.2,59.1 
			384,60.5 382,59.8 381.4,59.5 381.4,56.3 381.2,56.2 379.8,56.9 376.8,58.2 372.9,58.4 371,59 368.6,61.1 367.5,61.8 366.8,61.8 
			365.9,62.3 364.5,61.9 363.8,61.4 363.2,61.8 360.4,61.9 358.4,59.9 357.6,58.2 356.9,57.6 355.2,57.1 353.6,57.1 353,56.5 
			351.3,58 350.5,58.9 349.2,58.2 349.5,56.1 351,54.1 351.3,52.5 352.8,52 353.7,50.1 355.8,49.5 355.6,49.3 		"/>
		<polygon fill="#FFFFFF" points="298.4,37.3 298.2,36.4 295.5,36.4 294.2,35.2 293.3,31.3 292.9,28.2 292,27.9 291,27.7 
			290.8,32.7 272.8,32.7 273.7,35.4 273.2,37.9 273.2,43.9 274.2,46.9 274.5,47.6 275.3,48.9 275.3,49.4 275.6,55.1 276.7,63.2 
			277.8,67.6 278,70.9 278.1,72.5 278.2,72.5 278.1,72.9 278.2,73.5 278.1,73.5 277.9,74.9 277.9,75 277.9,75 276.9,76 276.9,76.1 
			275.9,76.9 275.9,77.4 276.4,78.3 279,80.5 279.3,82.5 279.5,97 279.6,103.6 327.6,102.9 327.3,100.4 327.2,99.8 326.1,98.3 
			321.8,95.7 321.7,95.7 321.7,95.7 319.5,92.4 319.3,92.4 317.4,92.2 316.7,91 316.3,90.3 314.4,90.3 314.4,90.3 314.4,90.3 
			312.2,88.1 312,83.9 312,82.4 311.9,81.4 313,79.5 312.7,77.9 311.2,76.7 310.7,76.5 312.3,72.3 312.3,72.3 315.5,69.9 
			315.9,69.5 316.1,69.1 316.1,66.2 316.1,64.5 316.2,62.3 316.7,61.7 318,60 318.1,60 320.8,58.3 321.4,58.3 324.2,55.2 
			325.1,54.8 326.4,52.6 328,50.3 330,48.7 332.9,47.5 340.6,44 340.7,43.7 339.1,43.8 338.7,44.5 337.6,44.5 336.6,42.6 
			331.7,42.8 331.1,43.3 329.9,43.3 329.2,41.5 328.2,41.7 326.3,43.6 325.2,44.2 323,44.1 321,43.4 321,42.3 320.6,42.6 
			318.4,41.5 318.2,40.1 318.2,40.2 317.8,40.9 315.8,40.5 312.5,39 310.3,37.5 308.5,37.5 307.8,37 306.8,37.3 306.3,37.7 
			306.1,38.8 302.1,38.8 302.1,37.5 		"/>
		<polygon fill="#FFFFFF" points="49.2,3.6 49.1,3.3 48.2,3.3 47.6,4 47.7,4.1 48.5,4.4 		"/>
		<path fill="#FFFFFF" d="M398.1,73.2l-1.4,0l-2.9-0.9l-3.2-2h-1.3l-0.5,0.5l-1-0.5l-1.6-1.2l-1.4,0.9l-1.5,1.1l0.1,1.5l0.2,0.1
			l1.5,0.3l0.8,1.3l-2.3,0.7l-1.4,0.2l-0.6,0.8l-0.2,1l0.2,0.9l0.2,3.8l-2.7,1.6l-1.1-0.3v-1l-2.6,5l1.5-6.4l-0.7,0.3l-0.9,1l0,0.2
			l0.4,0.5l-0.5,2.2l-1.3,0.3V85l0.5,1.5l-0.7,3.9l-1,2.4l0.4,2.6l0.3,0.8l-0.7,2.1l-0.2,1.4l2.1,3.5l1.8,4l0.9,3.1l-1.1,6.7
			l-1.4,3.1l-0.2,1.8l-1,0.9l1.6-0.1l0.5-0.1l11.9-1.3l5-0.7l0.1,0.9l6-1.2l5.8-0.9l0.1-0.7l1.4-2.4l1-0.9l-0.1-3l1.2-1.2l0.4-0.1
			l0.2-2l1.2-2.4l1.4,0.8l0.1,0.2l0.6-0.3l-0.2-5.3l-1.9-4.9l-1.4-5.4l-1.3-1.8l-1.2-0.8l-0.7,0.5l-2.2,1l-1.2,3l-1.8,2.4l-0.9,0.5
			l-1.1-0.5c-2-1.1-1.9-1.7-1.8-1.9c0.1-0.2,0.2-1.7,0.3-2.9l0-0.4l2.1-0.8l0.9-3.6l1.4-0.9l-0.2-5.6L400,79l-0.8-0.5l-0.7-1.8l1-1
			l0.7,0.1l0-0.1l-1.4-1.3L398.1,73.2z"/>
		<polygon fill="#FFFFFF" points="46.8,4.8 46.8,4.8 46.8,4.9 		"/>
		<polygon fill="#FFFFFF" points="46.4,3.5 46.2,3.5 46.3,3.9 46.5,3.7 		"/>
		<polygon fill="#FFFFFF" points="44.7,10.1 42.9,9.2 41,8.8 38.2,7.5 36.1,6.3 34.4,4.7 33,3 32.5,2.9 31.3,7.8 32.4,9.7 
			32.3,14.8 32,16.4 32.8,20.5 35.1,22.8 31.8,23.3 31.8,24.7 33.5,25.4 32.2,28.7 30.6,28.9 30.5,30 31.5,31.4 33.4,30.8 
			35.3,31.1 35.3,31.2 35.3,31.2 35.7,32.6 37.6,32.9 38.1,33 39.7,35.7 39.7,37.5 39.6,40.7 39.6,40.8 39.6,40.8 39.4,41 42.4,43 
			45.7,43.2 45.8,43.1 47,42 49.8,43 50.3,42.9 51.7,43.5 53.8,44.3 54.7,45 54.7,45 57.2,45.1 58,44.7 58.1,44.6 58.1,44.6 
			58.2,44.6 59.3,45.5 59.7,45.7 60.4,45.8 62.1,46 65.4,44.8 65.9,44.6 66.3,45.6 72.2,45.6 75.2,45.6 82.8,47.3 84.6,47.8 
			91.6,49.7 94.1,38.2 99.6,12.3 91,10.5 77,7.1 64.9,3.6 59.7,2.5 53.8,0.8 51.4,0 51,0.3 52.4,3 53.2,4.9 52.1,7.1 52.1,8.3 
			52.5,9.3 52,10.4 52.2,12.1 52.9,12.9 52.7,14.4 50.9,14.6 50.4,13 49.7,11.7 48.5,10.7 48.5,10.6 46.8,10.7 45.7,10.4 45.5,10.4 
			45.6,10.4 		"/>
		<polygon fill="#FFFFFF" points="49,8.6 50,8.4 50,8 49.3,8.4 		"/>
		<polygon fill="#FFFFFF" points="440.8,300.3 441.5,301.8 442,300.2 440.7,299.7 440.5,299.4 		"/>
		<polygon fill="#FFFFFF" points="503.3,128.1 503,127.5 502.9,121.8 502.2,120.4 502,120.6 499.9,120.9 499,119.9 501.2,118 
			501.2,117.6 501.2,117.3 501,115.4 501.4,113.8 501.3,112.9 499.9,112.1 498.6,111.8 497.3,111.5 496.9,111.4 496.9,111.4 
			496.9,111.4 494.9,110.8 494.1,110.4 492.7,109.8 491.6,110.8 491.6,110.8 491.6,112.6 491.5,112.7 491.5,112.7 490.4,114.6 
			490.3,115.1 491.1,115.9 491,117.9 490.9,117.9 490.9,118 489.7,118.6 490.1,120.1 491.7,120.3 492.3,122 496.1,124.5 
			496.1,124.8 496.4,125 496.1,125.4 496.1,125.6 496.1,125.6 496.1,125.6 495,126.6 494,127.5 493.2,128.7 492.5,129.9 
			492.3,130.5 491.8,130.7 490.9,131.2 490.7,131.9 490.7,132 490.3,134.1 490.5,134.6 490.8,135.1 492.6,136.8 495.4,138.1 
			498.2,138.5 498.4,140.1 497.9,140.6 497.9,141.3 498.7,140.4 499.2,137.4 500.9,134.9 502.7,131.2 		"/>
		<path fill="#FFFFFF" d="M480.1,211.5l1.3-4.1l2.2-2.9l4-3.3l3.2-1.5l1.8-0.4l0.8,0.3h0.4l1.5-2.3l-0.5,0.5l-0.6-1.4h-2.9l1.3-4.3
			l-0.2-0.3H491v-1.1l-0.6-2.4l2.2,1.7l2,0.3l1.9-0.8l0.7-1.6l0.4-1.4l1.5-0.7l0.1-1.9l-1.4-1.1l2.2-0.1l-0.2-0.6l-1.5-1.5l-2.2-3.9
			l-1.1-2.6l-2.1,0.4l-0.5,0.1l-11.4,2.5l-20.8,4.5l-22.7,3.2l-1.8-0.1l-0.6,0l-0.1,1l0,0.7l-0.2,1.1l-0.1,0.4l0,0l0,0l-1.8,1.6
			l-1.1,2.4l-1.7-0.2l-0.9,0.3l-1.5,2.4l-0.4-0.1c-0.1,0-0.3-0.1-0.5-0.1c-0.2,0-0.4-0.1-0.5-0.1c-0.2,0-0.4-0.1-0.5-0.2l-0.2,0
			l0-0.2c0,0,0,0-0.1-0.1l-0.2,0.2l-1.7,1.7l-0.3,1.3l-0.1,0.7l-1.5,0.7l-1.3,0.6l-1.8,1.5l-0.8,0.7l-0.6,0.2l-1.7,0.6l-2.3,1.5
			l-0.4,2.4l-1,0.2l-1,0.3l-0.8,0.6l-0.2,1.4l12.1-1.4l1.6-0.6l2-0.9l5.6-2.8l0,0l0,0l2.1-0.2l2.2-0.2l0.2,0l0.2,0l4-0.1l5.8-0.2
			l0,0l0.1,0l1.9,1.3l0.9,1.8l1.3-0.2l0.9-0.2l7.8-0.9l2,0.6l7.6,4.6l0.9,0.8l5,4l2.9-0.7l2.5-0.3L480.1,211.5z"/>
		<polygon fill="#FFFFFF" points="520.8,102.1 522.1,101.1 522.9,99.8 523.9,99.9 525,99.3 523.7,97.1 521.7,94.5 520.7,93.7 
			520.5,93.7 517.7,94.5 519.7,102.5 		"/>
		<polygon fill="#FFFFFF" points="369.1,273.4 371.5,273.4 370.7,265.2 369,253.9 369.1,245.3 369.6,226.5 369.5,216.4 369.6,213.5 
			369.5,213.3 348.3,215.3 347.9,215.6 347.9,215.7 347.9,215.7 347.9,215.8 346.4,216.5 344.8,219.6 344.9,220.2 344.9,220.5 
			345,220.8 345.1,221.9 343.4,222.7 343.2,222.8 341.2,225.7 341.3,225.9 341.6,227.2 340,228.6 339.4,231 338.8,233.1 
			339.9,234.8 339.6,235.1 339,235.7 339,235.9 339.9,237.2 340.1,239.7 339.2,241.2 339.3,244.5 339.9,246 340.4,247.1 
			340.4,247.2 340.4,247.2 340.5,248.2 341.9,249.5 341.9,249.5 341.9,249.5 341.5,251.3 340.9,251.6 340.9,251.7 341.2,252.8 
			338.1,258.3 337.3,259.6 336.1,261.8 335.6,266.7 335.8,267.4 335.8,267.6 343.8,267.5 350.5,267.4 356.5,266.7 357.3,267.7 
			356.8,269.7 356.6,271 357.7,272.1 358.5,272.8 359.3,275.3 359.6,276.1 359.6,276.1 361.4,273.3 362.8,273.9 366.8,272.7 
			368.4,273 		"/>
		<polygon fill="#FFFFFF" points="509.8,115.1 516.4,110.2 517.8,108.7 516.4,108.1 515.9,108.7 514,110.5 509,113 507.3,112.8 
			506.6,112.5 506.2,112.7 504.9,114.2 503.9,115.1 502.4,115.5 502.3,115.1 502.2,115.5 502.4,117.3 502.4,117.4 502.6,117.5 
			504.8,116.8 508.3,115.7 		"/>
		<polygon fill="#FFFFFF" points="95.2,38.7 92.6,50.3 93.5,52.7 95.6,54.3 95.6,54.5 95.7,54.5 95.5,56.6 95.5,57.1 93,59.9 
			90.6,63.5 90.5,63.5 90,64.8 89.8,65.7 88.9,66.6 87.8,66.9 85.4,69.9 85.2,71.5 85.2,71.6 85.1,71.8 85,72.2 85.1,72.3 
			86.7,72.3 87.7,74.2 86.1,78 85.8,79.1 85.5,80.2 80.3,100.4 109.1,106.8 109.1,106.9 136.5,112 140.9,84 141.2,82.3 140.9,80.1 
			140.7,80 140.4,78 139.9,77.5 138.9,77.8 138.6,79.7 137,79.8 136.3,80 134,79 132.9,79 131.7,79 131.2,79.2 130.1,79.6 
			128.3,78.7 128.1,78.6 126.8,78.6 125,80.3 124.3,79.4 123.9,79.1 123.9,79 123.2,77.1 123.6,74.8 122.8,73.7 122.4,73.4 
			122.3,73.3 122,73.1 120.3,71.7 118.6,63.8 118.6,62.4 118.7,60.9 118.6,60.8 118.4,61.2 118.3,61.2 118.3,61.2 115.1,63.2 
			114.9,63.2 114.1,63.2 112.2,60.8 112.4,59.1 112.4,58.9 112.4,58.9 112.4,58.8 116.6,48.5 116.4,47.7 114.5,47 114.5,47 
			114.4,47 114.1,46.1 114,46.1 112.4,44.1 112.3,43.9 111.9,43.4 109.7,37.8 107.8,37.1 107.8,37 107.7,37 107.6,36.5 106.4,33.8 
			106.8,32.7 107.3,31 105.5,27 105.2,26.5 105.2,26.5 105.2,26.5 105.6,24.9 107.8,13.9 100.8,12.6 		"/>
		<polygon fill="#FFFFFF" points="176.8,26 159.1,23.5 139.5,20.3 128.3,18.2 109,14.2 106.7,25.2 106.4,26.4 106.5,26.5 
			108.6,30.9 107.9,33.1 107.7,33.7 108.6,36.1 108.6,36.1 110.6,36.9 110.6,36.9 110.6,36.9 110.6,37.1 113.3,43.3 115.1,45.6 
			115.1,45.6 115.1,45.6 115.1,45.6 115.3,46.1 117.4,46.8 117.4,46.8 117.4,46.8 117.4,46.9 117.8,48.5 113.5,59.2 113.5,59.3 
			113.5,60.5 114.7,62 114.8,62 117.5,60.4 118.1,59.4 118.1,59.4 118.1,59.4 119.9,60.1 119.8,62.5 119.7,63.7 121.3,71 
			123.6,72.9 124.9,74.5 124.6,76.7 124.9,78.5 125.1,78.6 126.2,77.4 128.3,77.4 128.8,77.7 130.1,78.3 131,78 131.6,77.8 
			132.6,77.9 134.1,77.8 136.5,78.7 136.9,78.7 137.5,78.6 137.8,76.8 139.7,76.4 140.4,76.2 141.3,77.3 141.4,77.4 141.4,77.5 
			141.5,77.5 141.7,78.9 142.4,74.9 142.7,72.8 182.1,77.8 207.4,81 208.1,74.4 208.5,69.4 208.5,69.4 210,55.8 212.6,29.8 
			194.6,28.2 		"/>
		<polygon fill="#FFFFFF" points="87.5,235.5 94.9,240.1 103.8,245.3 113.9,251.3 121.2,252.7 135.7,254.3 146.1,183.2 96.4,176.2 
			95.8,179.5 94.6,185.8 94.6,185.8 94.6,186 93.6,186 93.4,186.1 92.4,187.6 91.3,187.6 90.3,187.6 90.3,187.5 90.2,187.5 
			89.7,186.4 89.4,185.9 87.8,185.7 87.8,185.6 87.3,185 87.2,185 85.9,185.8 85.8,188.5 85.8,189.6 85.7,190.1 85.5,193.1 
			85.3,198.4 84.9,199.1 84.4,199.8 84.1,201.5 85.7,204.5 86.4,207.9 86.6,208.1 86.8,208.3 87.6,208.8 87.5,210.6 87.5,210.7 
			87.5,210.8 86.5,211.6 86.2,211.9 85.5,212.2 84.2,212.8 83.5,213.6 83.2,213.9 82.4,215.9 82,219 82,219 82,219 79.9,220.9 
			79.8,221 79.8,221 79.5,221.1 79.1,221.2 79.1,221.2 79.2,221.3 78.9,222.3 78.9,222.3 81.4,222.7 81.4,222.7 81.5,222.7 
			81.1,224.3 81,225.2 80.4,225.9 79.9,226.7 79.8,226.7 79.8,226.7 79.7,226.7 77.5,227.2 76.2,228.3 76.1,228.8 76.2,229.1 		"/>
		<polygon fill="#FFFFFF" points="27.1,42.8 25.1,46.8 22.1,55.2 18.2,63.5 12.1,72.9 11.7,77.9 11.9,84.8 52.1,94.1 79.2,100.2 
			84.2,80.3 84.6,78.8 85,77.4 86.4,74.1 86.3,74 84.8,73.9 83.7,72.5 83.7,72.4 83.7,72.4 83.9,71.9 84.1,71.3 84.1,71.2 
			84.3,69.5 84.3,69.4 84.4,69.3 87.3,65.7 88.4,65 88.9,64.5 89.1,63.2 89.7,62.8 89.8,62.3 92.3,58.9 94.4,56.6 94.4,56.6 
			94.5,55 92.6,53.6 92.5,53.4 92.5,53.4 92.5,53.3 91.6,50.9 84.2,48.8 82.4,48.4 75,46.7 72.2,46.7 65.4,46.8 65.2,46.1 
			62.3,47.3 60.2,46.9 59.3,46.8 59.2,46.8 59.2,46.8 58.7,46.4 58,46 57.4,46.3 54.7,46.2 54.2,46.1 53.1,45.3 51.3,44.5 
			50.2,44.1 50,44.1 49.7,44.2 49.7,44.1 49.7,44.1 47.2,43.3 46.5,44 46.2,44.3 46.2,44.3 46.1,44.4 42.3,44.1 42,44.1 37.7,41.2 
			38.4,40.3 38.5,37.5 38.5,36 37.4,34 34.8,33.7 34.8,33.7 34.8,33.7 34.4,32.1 33.5,31.9 30.3,33.1 29.1,36.7 		"/>
		<polygon fill="#FFFFFF" points="536.9,60.9 537.5,61.8 537.6,61.7 537.4,60.9 537.2,60.6 		"/>
		<path fill="#FFFFFF" d="M542,56.1l-0.5,0.2l-0.5,0.8l0.6,0.6h0c0-0.3,0.1-0.7,0.1-0.9l0-0.2l0.4-0.3L542,56.1z"/>
		<polygon fill="#FFFFFF" points="462.3,338.9 461.2,339.7 461,340 463.2,339.2 462.9,339.2 		"/>
		<polygon fill="#FFFFFF" points="474.6,312.4 473.8,308 471.1,303.1 469,299.5 467.4,296.4 465.6,294.5 463.7,289.7 464.4,288.7 
			464.8,288.1 464.1,286.8 461.7,284.6 458.7,281.2 456.4,277.3 453.2,271.6 450.9,265.6 449.6,261.7 447,261.5 444.8,261.2 
			443.8,261.1 443.7,261.1 443.5,261.5 444.4,264.1 444.1,267.6 441.5,266.7 441.4,265.1 439.2,265.1 436,265.5 416.3,266.7 
			411.2,266.6 410.8,266.2 410.7,266.2 409.7,265.1 409.6,265 409.6,265 409.3,264.5 408.3,263 405.5,262.8 401.4,263.2 386,265 
			380.1,265.8 380,266.8 380.9,267.7 382.6,269 383,273.4 384.1,273.2 387.8,271.9 391.4,271.6 394.1,271.2 398.9,272.4 404,274.8 
			404.9,275.6 406.7,276.3 407.9,277.7 408,278.8 409.5,278.3 411.7,278.3 413.6,277.2 416,275 417.7,275 417.3,274.5 417.5,272.7 
			420.3,272.1 422.1,272.1 424,273.1 426.7,274 428.2,276.2 429.9,276.9 430.6,278.9 432.6,279.9 433.6,281.4 434.5,281.8 
			437.9,282.6 438.8,284.6 440.7,287 440.7,293.1 439.9,295.8 441.1,298.2 441.9,297.9 445.2,298.6 445.3,300.2 443.3,303.7 
			442.3,304.8 444.1,306.7 445.7,308.7 447.5,311.9 449.3,314.3 450.4,317.1 452,315.7 453.7,316.9 455.3,319.5 455.7,321.6 
			457,323.4 457.2,323.1 460,323.3 462.5,324.9 464.6,328.2 465.1,330.3 465.3,331.9 465.7,332.3 466.2,332.5 467.3,332 
			468.3,330.9 470.8,330.8 472.4,330.1 473.8,328.4 473.6,327.5 473.4,325.9 473.8,324.7 473.5,323.2 475.1,322.4 475.2,320.8 
			474.9,319.7 		"/>
		<polygon fill="#FFFFFF" points="541.8,58.8 541.9,58.9 542,58.8 		"/>
		<polygon fill="#FFFFFF" points="535.4,92.9 534,94.2 532.5,94.9 529.9,94.5 527.4,90.7 526.3,89.4 525.6,89.4 524.6,90.1 
			523,87.9 523.3,86.6 524.6,83.8 523.3,81.8 521.6,82.5 520.8,83.7 520.4,84.2 518.9,84.7 509.9,87 510,87.1 508.7,87.3 
			508.5,87.4 508.4,87.4 508.2,87.5 504.2,88.3 504.2,88.3 504.2,88.3 501.9,88.7 501.6,94.6 501.9,96.8 508.8,95.4 514.1,94.2 
			515.1,94 516.8,93.6 520.1,92.7 521,92.4 521,92.4 521,92.4 522.5,93.7 524.7,96.4 526.1,98.8 526.5,98.6 526.2,97.4 526.9,96.2 
			529.5,94.9 530,97.2 531.1,96 533.4,94.9 535.6,94.1 		"/>
		<polygon fill="#FFFFFF" points="39.6,213.6 39.6,213.5 39.2,212.7 38,211.8 39.3,213.5 		"/>
		<polygon fill="#FFFFFF" points="531.3,99.2 530.8,99.2 530,100.1 531.5,99.4 		"/>
		<polygon fill="#FFFFFF" points="272.4,35.5 271.5,32.7 254.5,32.4 243.3,32 227.2,31.2 213.8,29.9 211.1,55.9 209.7,69.5 
			212.7,69.7 242.4,71.5 276.9,72.3 276.8,71.1 276.6,67.8 275.6,63.8 274.5,55.8 274.2,49.4 274.2,49.3 273.8,48.7 273.2,47.5 
			273.1,47.3 273.1,47.3 273.1,47.3 272.1,44.1 272.1,37.8 		"/>
		<path fill="#FFFFFF" d="M422,166.6L422,166.6l-0.7-1.2l0-2.1l-0.1-1.3l-0.8-0.7l-0.6-0.4l-1.2-0.6l-0.1,0l-0.1-0.6l-0.2-0.7
			l-0.6,0.2l-1.3,0.7l-1.2,1.4l-1.7-0.2l-0.2,0l0,0l-1.7-0.1l-0.9-0.1l-0.5,0l-1.6,0.8l0,0l0,0l-0.1,0l-1.1,0.1l-0.1-0.1l-0.1,0
			l-1.2-1.3l-3.2,0l-1.3-2.8l-1.4-0.6l-0.2-0.1l-1.4,0.4l0,0l-0.1,0l-2,0.1l0,0.2l-0.1,0.9l0.2,0.3l0.4,0.6l0,0.1l0.1,0.1l0.1,1.2
			l0,0l0,0l0,0.1l-1.8,1.1l-0.1,0l-1.9,0.8l-0.4,0.2l0,0l-0.1,0.1l-1.4,0.2l-0.2,1.4l-0.2,1.4l-2.9,2.1l-1.5,2.2l0.2,1.1l0,0.2l0,0
			l0,0l-0.5,1.4h-0.5l-2.2,0l-0.5-0.6l-0.3-0.3l-0.9,0.5l-1.5,0.9l0.1,2l-0.2,0l0,0.5l-0.6-0.4l-0.9,0.2l0,0l0,0l-0.2-0.5l-0.2-0.4
			l-0.9-0.6l-1.5,0.6l-1.1,2.2l-1.6-0.9l-0.5-0.6l-0.1-0.1l-2.4,0.3l-3.2,0.5l-0.8,0.4l-0.7,0.4v0l0,0l-0.3,0.8
			c-0.1,0.2-0.1,0.4-0.2,0.7c-0.1,0.2-0.1,0.3-0.1,0.4l0,0.2l-0.1,0.1l0,0l-0.7,0.5l0.3,0.9l0.6,1.4l0,0l0,0l-1.3,0.5l0,0l-0.2,0.1
			l-1.4,0.3l-0.2,0l-0.9,0.7l-0.1,1l0.8,1.5l-0.1,1l-0.1,1l0,0l0,0l-0.6,0.2l-0.6,0.2l0,0l0,0l-1-0.4l-1.2-0.5l-0.8-0.4l-0.8-0.3
			l-0.6,0.2l-0.4,0.1l-1.2,0.9l0,0l-0.3,0.7l1,1.6l0,0l0,0l-0.3,0.7l-0.3,0.6l-0.1,1.3l0,0.9l-1.3,0.7l-0.1,0.1l3.4,0l4.2-0.4l2.6,0
			l1.9-0.1l0.1-2.5l2.9,0l12.3-1.4l17.3-1.6l14.2-1.4l2.2-0.5l1.7-0.4l1.5-0.8l2.1-1.3l2.4-1.2l0-0.1l0-1l1-1.5l4.4-4.8l1.6-1.7
			l-0.9-0.6l-0.2-0.1l-0.2-0.4l-0.9-1.8l-2.3-1.9l-0.3-0.2l-0.2-0.6l-0.3-0.7l-0.6-0.4L422,166.6L422,166.6z"/>
		<polygon fill="#FFFFFF" points="297.8,169.5 297.8,172 297.9,190.8 298.1,190.8 298.1,193.7 298.5,197.1 311.4,196.6 325.4,196.2 
			338,195.7 345.4,195.6 345.5,195.7 345.7,195.6 347.1,197.9 346.9,198.8 346.5,200.6 345.4,201.4 344.7,202.1 344.6,202.3 
			345.5,202.4 347,202.5 349,202.2 349.9,199.2 350.3,195.6 350.2,195.6 350.3,195.5 349.4,195.5 350.9,194.5 350.9,194.5 
			351,194.5 351.5,194.2 351.6,194.1 351.9,193.8 352.4,193.5 353.1,193 353.2,192.8 353.2,191.4 353.7,190.4 353.7,190.4 
			353.2,189.6 352.5,190.2 352.4,190.1 352.4,190.1 352.3,190 350.8,188.3 350.7,187.9 349.8,185.6 350,185.2 349.9,185.1 
			350.3,183.9 349.2,182.2 348.1,179.3 345.5,178.9 341.3,175.5 341.2,175.3 341.1,175.2 341,175 339.8,173 340.3,170.8 340.6,170 
			341.8,166.6 341.9,165.4 341.1,165 338.4,164.7 336.8,164.5 336,163.3 336,162.4 336,160.7 334.1,159.5 332.8,158.6 331.7,157.4 
			328.4,154 327,149.5 326.7,147 326.9,146.5 326.9,146.5 327.3,145.3 326.6,144.4 325.9,143.6 325.4,142.5 286.2,144 286.3,144.1 
			286.7,144.9 286.6,145.9 286.6,146.2 287.8,148.1 288,148.4 289.5,150.4 290,151 290,151 290.1,151 291,151.9 291.5,152.3 
			291.6,152.3 292.6,152.3 294,153.2 294,153.2 294,153.2 294,155.6 292.9,156.6 292.8,156.6 292.7,157.2 292.7,157.6 292.7,157.7 
			293.8,159.5 294.9,160.8 295.3,161.2 296,161.8 296.9,162.4 		"/>
		<path fill="#FFFFFF" d="M437.4,183.4l4.3-0.5l18.7-2.6l13.1-2.9l21.2-4.6l-1.5-2.6l-3.4,1l-1.8-1.7l1.9-1l-0.2-0.9l-1.1-1.1
			l-0.1-0.8l-1.4-0.9l-0.1-1.9l1.7,0.1l-0.7-0.5l0.3-1.2l-0.8-0.6l0.3-2.9l-0.3-0.4l-2.1-0.3l-0.4-1.9l-0.8-0.1l-1.9-0.6l-0.6,0
			l-2,0l-1.8-0.5l-1.7-0.4l-0.4-1.3l-0.1-0.2v-0.1l-0.1-1.3l0.9-1.2l0.3-0.4l0.4-1.8l0-0.1l-0.6-0.7l-0.2-0.2l-0.7-0.4l-0.5-0.3
			l-1.2-0.3l-2.5-0.6l0,0l0,0v-1.4l0-0.4l-0.3-0.1l-0.8-0.3l0,0.3c-0.1,0.8-0.1,1.4-0.2,1.7l-0.2,1.2l-3.8-1.6l-2.3-0.9l-0.1,2.5
			l0,0l0,0l-1.4,2.7l-0.4,0.8l-0.6,0.5l-0.9,0.8l-0.3,0.7l-0.4,1.1l-0.1,0l0,0l-1.2,0.2l-0.4,0.1l-1.2,4.6l0,0l0,0l-3.1,0.2
			l-0.5-0.5l-0.8-0.9l0,0l-0.4,3.2l0,0l0,0.2l-0.4,0.9l-0.4,1.1l-1,2.2l-1.4,3.2l-0.5,0.9l0.5,0.7l-0.2,1.1l0,0.5l0,0l0,0.1l-0.8,1
			l-1.2,1.7l-0.5-0.2l-0.7-0.2l-0.8,0.5l-1,0.7l0,0l0,0l-0.8-0.2l-0.6-0.1l-1.1,2.6l-1,0.3c-0.4,0.2-0.9,0.3-1.2,0.5l-0.6,0.2
			l-0.5-0.2c-0.2-0.1-0.5-0.2-1-0.5l-1.1,0.6l0,0l0,0l-0.4,0.2l-1.2,0.6l-0.7-0.2l-1.9-0.4l-0.8-0.8l-0.3-0.5l-1-1.1l-3.6,3.9
			l-2.5,2.8l-0.6,0.8l0,0.6l0,0.8l-3.8,2l3.4-0.5l5.1-0.6l0,0l0.2,0l0.6,0l3.5-0.1l1.6-1.2l2.5,0.1L437.4,183.4z"/>
		<polygon fill="#FFFFFF" points="347.1,213 347.2,212.9 346.3,212.8 345.4,209.8 344.8,210.2 345.5,212 345,214.5 346.9,214.3 		
			"/>
		<path fill="#FFFFFF" d="M82.8,198.4l0.9,0.4l0.2-0.4l0.2-0.4l0.2-4.9l0-0.2l0-0.1l0.1-2.3l0.1-0.6l0-0.6l0.1-1.1l0.1-3.3l2.1-1.2
			h0.1l0,0l0,0h0.9l0,0l0.1,0l0.5,0.7l1.7,0.2l0.5,1.1l0.3,0.5l0.4,0l0.4,0l0.9-1.4l0,0l0.1-0.1l0.7,0l0.1,0l1.1-5.6l6.4-35.1
			l6.7-36.4c-13.3-2.5-26.5-5.1-28.5-5.5l-0.6-0.1l0.1-0.6l-26.4-6.2l-11.3,40.2L82.8,198.4z"/>
		<polygon fill="#FFFFFF" points="452.1,142.5 452.5,144.9 453.5,143.7 454.5,142.3 456.1,142 456.9,141.2 458.2,139.3 458.2,139.3 
			458.2,139.3 458.3,139.4 459.3,139.8 460.8,139.7 462.2,138.5 462.5,138.3 463.2,137.8 451.6,140.1 		"/>
		<polygon fill="#FFFFFF" points="343.4,43.7 342.9,44.4 343,44.5 344,44.1 345.9,43 348,40.9 347.9,40.9 344.6,43.3 		"/>
		<polygon fill="#FFFFFF" points="494.1,155.3 494.1,156.1 493.7,158.1 492.7,160.6 492.5,163.7 493,165.6 493.6,165.1 494.6,162.3 
			494.3,160.4 494.6,157.4 496.4,155 496.6,154.3 494.9,154.9 		"/>
		<path fill="#FFFFFF" d="M134,127.6L134,127.6l-0.1,0l1.5-8.6l0.8-5.8c-3-0.6-15-2.9-27.2-5.2l-6.7,36.7L96.6,175l49.5,7l7.2-52.2
			L134,127.6z"/>
		<polygon fill="#FFFFFF" points="348.2,204.5 348,204.7 347.2,207.2 347.1,208.1 347.1,208.1 347.4,207 		"/>
		<polygon fill="#FFFFFF" points="431.8,114.9 429.5,116.2 427.5,118.4 424.9,120.9 422.8,121.4 421.1,121.7 417.6,123.3 
			416.1,123.4 414.1,121.6 411,122 408,120.3 405.6,120.6 405.5,121 402.8,121.3 396.5,122.2 392.8,122.9 393.3,129.1 393.5,131.2 
			393.6,132 394.6,139.5 396.4,156.1 398.4,156.1 399.9,155.6 400.5,155.8 402.4,156.6 403.6,159.1 406.6,159.1 406.6,159.1 
			406.6,159.1 406.7,159.2 407.7,160.4 408.3,160.4 408.4,160.4 408.5,160.3 410,159.6 410.7,159.7 414.6,160.1 415.6,158.9 
			415.6,158.9 415.6,158.9 417.1,158.1 417.1,158.1 417.2,158 419,157.4 419.5,159.4 419.5,159.5 420.5,160 421,160.4 422.3,161.3 
			423.4,161.2 423.7,161.1 423.7,161.1 423.8,159.6 424.8,158.7 424.9,155.9 425.6,153.2 425.8,153 426.9,152.5 428.1,153.5 
			428.2,153.6 428.3,154.1 428.5,153.9 428.7,153.5 428.3,152.8 428,152.4 428,152.4 428,152.4 428,152 428,150.6 428.7,149.7 
			430.1,147.7 430.1,147.6 430.8,146.6 431,146.7 431.2,146.5 432.4,146.8 433.3,146.1 435.1,144.1 436.6,142 436.7,141.8 
			436.7,141.4 436.9,138.5 437.1,135.6 437,132.8 436.4,131 436.5,130.9 436.4,130.7 436.6,130.5 436.7,129.9 437.7,129 
			436.4,123.8 434.8,112.9 		"/>
		<polygon fill="#FFFFFF" points="441.3,108 438.7,110.4 438,110.7 435.8,112.2 437.5,123.5 438.7,128 438.8,128 439,129.1 
			439,129.3 441.1,140.5 442.5,140.2 445.4,139.8 451.2,139 472.8,134.6 485.7,132.1 486.7,131.9 488.2,130.8 488.2,130.8 
			488.3,130.8 488.6,130.7 489.4,130.4 490.2,130.3 491,129.8 491.4,129.6 491.6,129.3 492.1,128.3 493.1,126.8 493.2,126.8 
			493.3,126.6 494.4,125.6 494.9,125.1 491.4,122.8 490.9,121.4 489.1,121.2 488.9,120.1 488.3,118 488.4,118 488.4,118 
			489.8,117.2 489.9,116.4 489.1,115.6 489.2,114.2 489.3,114.2 489.3,114.1 490.4,112.3 490.4,110.5 490.4,110.4 490.4,110.4 
			490.8,110 491.5,109.1 490.3,109 489.7,108.5 488.6,107.6 488.1,105.3 487.8,104.2 485.9,104.2 485.9,104.2 485.8,104.2 
			484.4,102.6 484.1,102.7 473.8,105.1 447.7,110.4 441.7,111.4 		"/>
		<path fill="#FFFFFF" d="M395.9,63.4l-1.3,0.1l0.2,0.1l0.4,1.4l1.3,0.1l0.4-0.4c0-0.1,0-0.3-0.1-0.3
			C396.6,64.2,396.3,63.9,395.9,63.4z"/>
		<polygon fill="#FFFFFF" points="343.8,214.4 344.3,212.1 343.3,209.7 346,208.2 346.1,206.9 347,204 347.4,203.7 347,203.7 
			345.4,203.5 343.1,203.3 343.7,201.4 344.7,200.6 345.4,199.9 345.8,198.5 345.8,198.4 344.9,196.8 298.6,198.3 299.4,201.9 
			299.6,207.4 300.4,214 300.6,236.4 301,236.7 301.3,237 301.8,236.8 303,236.2 303,236.2 303,236.2 305.2,237.1 305.4,238.6 
			305.6,240.8 338.4,240.2 338.9,239.4 338.8,237.7 338.1,236.5 337.5,235.5 338.4,234.6 337.6,233.3 337.6,233.3 337.6,233.3 
			338,231.6 338.9,227.9 340.3,226.8 340.2,226.2 339.9,225.5 340,225.5 339.9,225.5 342.4,221.9 342.9,221.7 343.9,221.2 
			343.8,220.8 343.7,220.3 343.6,219.4 345.5,215.7 345.7,215.6 341.9,216 		"/>
		<polygon fill="#FFFFFF" points="509.6,55.8 495,59.5 495.3,62 496.7,65.9 497.2,69.2 496.7,71.4 498.1,74 498.7,75.5 498.7,75.5 
			498.7,75.6 498.3,77 500.3,77.9 502.2,84.9 502,87.1 502,87.5 503.4,87.2 503.8,87.2 505.8,86.8 507.4,86.5 507.6,85.5 
			507.7,85.2 507.8,82.7 507.2,82 507.3,81 507.3,78.8 507.4,78.4 507.4,78.4 507.7,72.8 507.8,70.5 507.8,68.2 507.2,67.3 
			507.1,67.2 507.1,66.4 507.1,65.9 508.3,65.4 508.9,65.1 510.9,62.3 510.9,60.3 510.6,59.7 509.8,58.6 		"/>
		<polygon fill="#FFFFFF" points="516.6,94.8 514.3,95.3 502.1,98 502.3,98.8 502.5,99.4 503.4,103.9 503.4,104 503.5,104.4 
			503.5,107.3 503.5,109.5 502.9,110.6 502.9,110.6 503.4,111.1 507.7,107.1 509.2,105.5 509.8,106 511.3,105.2 514.4,104.6 
			518.6,102.8 		"/>
		<polygon fill="#FFFFFF" points="456.8,237.9 456.1,235.6 458.4,235.5 460.5,233.5 461.4,233 462.7,231.1 464.3,229.4 465.7,227.1 
			467.1,226.7 467.8,225.1 468.7,224.7 469,221 470.7,217.1 473.5,214.3 468.8,210.4 467.9,209.7 460.4,205.2 458.8,204.7 
			451.2,205.6 450.3,205.7 448.3,206.1 447.2,203.9 445.6,202.8 440.1,203 436,203.1 433.6,203.3 431.6,203.6 426.2,206.3 
			423.1,207.5 423.3,208.6 423.4,208.8 423.4,208.9 423.4,208.9 422.4,209.4 421.8,209.6 421.6,210.2 421.5,210.4 421.6,211.1 
			422.2,211.8 424.5,213.1 426.7,213 429,216.5 429.2,217.3 430.7,219.1 430.7,219.1 430.7,219.2 430.9,219.8 433.5,220.8 
			435.5,222.3 436.8,223.9 438.2,224.7 439.6,226.1 439.6,226.1 439.6,226.2 440.4,227.6 441.4,228.6 444.1,229.8 444.1,229.9 
			444.2,229.9 445.9,233.7 446,233.8 446,233.9 446.8,236.4 448.2,236.8 449.8,238.2 449.9,238.4 449.9,238.4 451,241.6 
			452.1,242.1 452.9,241.7 454,241 		"/>
		<polygon fill="#FFFFFF" points="503.1,112.8 502.8,112.3 502.5,111.9 502.8,113.1 		"/>
	</g>
	<g>
		<circle fill="#228CFF" cx="44.8" cy="203.8" r="8.5"/>
		<polyline fill="none" stroke="#FFFFFF" stroke-miterlimit="10" points="48.5,200.5 43.7,207.2 41.1,204.2 		"/>
	</g>
	<g>
		<circle fill="#228CFF" cx="184.8" cy="165.6" r="8.5"/>
		<polyline fill="none" stroke="#FFFFFF" stroke-miterlimit="10" points="188.5,162.3 183.7,169 181.1,166 		"/>
	</g>
	<g>
		<circle fill="#228CFF" cx="269.9" cy="261.1" r="8.5"/>
		<polyline fill="none" stroke="#FFFFFF" stroke-miterlimit="10" points="273.6,257.8 268.8,264.5 266.2,261.5 		"/>
	</g>
	<g>
		<circle fill="#228CFF" cx="286.2" cy="290.9" r="8.5"/>
		<polyline fill="none" stroke="#FFFFFF" stroke-miterlimit="10" points="289.9,287.6 285.1,294.3 282.5,291.3 		"/>
	</g>
	<g>
		<circle fill="#228CFF" cx="419" cy="238.7" r="8.5"/>
		<polyline fill="none" stroke="#FFFFFF" stroke-miterlimit="10" points="422.7,235.4 417.9,242.1 415.3,239.1 		"/>
	</g>
	<g>
		<circle fill="#228CFF" cx="342.9" cy="93.7" r="8.5"/>
		<polyline fill="none" stroke="#FFFFFF" stroke-miterlimit="10" points="346.6,90.3 341.7,97.1 339.1,94.1 		"/>
	</g>
	<g>
		<circle fill="#228CFF" cx="510.9" cy="104.1" r="8.5"/>
		<polyline fill="none" stroke="#FFFFFF" stroke-miterlimit="10" points="514.6,100.8 509.8,107.5 507.2,104.6 		"/>
	</g>
	<g>
		<circle fill="#228CFF" cx="501.7" cy="115.4" r="8.5"/>
		<polyline fill="none" stroke="#FFFFFF" stroke-miterlimit="10" points="505.4,112.1 500.5,118.8 498,115.8 		"/>
	</g>
	<g>
		<circle fill="#228CFF" cx="469" cy="143.8" r="8.5"/>
		<polyline fill="none" stroke="#FFFFFF" stroke-miterlimit="10" points="472.7,140.4 467.8,147.2 465.3,144.2 		"/>
	</g>
	<g>
		<circle fill="#228CFF" cx="496.6" cy="102.6" r="8.5"/>
		<polyline fill="none" stroke="#FFFFFF" stroke-miterlimit="10" points="500.3,99.3 495.4,106 492.9,103.1 		"/>
	</g>
	<g>
		<circle fill="#228CFF" cx="361" cy="118.8" r="8.5"/>
		<polyline fill="none" stroke="#FFFFFF" stroke-miterlimit="10" points="364.7,115.5 359.8,122.2 357.3,119.2 		"/>
	</g>
	<g>
		<circle fill="#228CFF" cx="23.2" cy="188.6" r="8.5"/>
		<polyline fill="none" stroke="#FFFFFF" stroke-miterlimit="10" points="26.9,185.3 22,192 19.5,189 		"/>
	</g>
	<g>
		<circle fill="#228CFF" cx="8.6" cy="155.9" r="8.5"/>
		<polyline fill="none" stroke="#FFFFFF" stroke-miterlimit="10" points="12.3,152.6 7.4,159.3 4.9,156.3 		"/>
	</g>
	<g>
		<circle fill="#228CFF" cx="23.2" cy="148.9" r="8.5"/>
		<polyline fill="none" stroke="#FFFFFF" stroke-miterlimit="10" points="26.9,145.6 22,152.3 19.5,149.4 		"/>
	</g>
	<g>
		<circle fill="#808080" cx="114.7" cy="218.8" r="3.8"/>
	</g>
	<g>
		<circle fill="#808080" cx="465.3" cy="308.3" r="3.8"/>
	</g>
	<g>
		<circle fill="#808080" cx="447.5" cy="287" r="3.8"/>
	</g>
	<g>
		<circle fill="#808080" cx="242.4" cy="247.2" r="3.8"/>
	</g>
	<g>
		<circle fill="#808080" cx="460.5" cy="172.5" r="3.8"/>
	</g>
	<g>
		<circle fill="#808080" cx="415.2" cy="143.8" r="3.8"/>
	</g>
	<g>
		<circle fill="#808080" cx="328" cy="180.2" r="3.8"/>
	</g>
	<g>
		<circle fill="#808080" cx="78.2" cy="180.2" r="3.8"/>
	</g>
	<g>
		<circle fill="#808080" cx="28.1" cy="58.3" r="3.8"/>
	</g>
	<g>
		<circle fill="#808080" cx="280.7" cy="212.3" r="3.8"/>
	</g>
	<g>
		<circle fill="#808080" cx="175" cy="222.6" r="3.8"/>
	</g>
	<g>
		<circle fill="#808080" cx="397.6" cy="206.3" r="3.8"/>
	</g>
	<g>
		<circle fill="#808080" cx="465.3" cy="198.8" r="3.8"/>
	</g>
	<g>
		<circle fill="#808080" cx="525" cy="85.2" r="3.8"/>
	</g>
	<g>
		<circle fill="#808080" cx="258.6" cy="168.7" r="3.8"/>
	</g>
	<g>
		<circle fill="#808080" cx="31.9" cy="24.7" r="3.8"/>
	</g>
</g>
</svg>
