<?xml version="1.0" encoding="utf-8"?>
<!-- Generator: Adobe Illustrator 18.1.1, SVG Export Plug-In . SVG Version: 6.00 Build 0)  -->
<svg version="1.1" id="Layer_1" xmlns="http://www.w3.org/2000/svg" xmlns:xlink="http://www.w3.org/1999/xlink" x="0px" y="0px"
	 viewBox="0 0 750 20" enable-background="new 0 0 750 20" xml:space="preserve">
<polygon fill="#FFFFFF" points="750,20 737.5,7.5 725,20 712.5,7.5 700,20 687.5,7.5 675,20 662.5,7.5 650,20 637.5,7.5 625,20 
	612.5,7.5 600,20 587.5,7.5 575,20 562.5,7.5 550,20 537.5,7.5 525,20 512.5,7.5 500,20 487.5,7.5 475,20 462.5,7.5 450,20 
	437.5,7.5 425,20 412.5,7.5 400,20 387.5,7.5 375,20 362.5,7.5 350,20 337.5,7.5 325,20 312.5,7.5 300,20 287.5,7.5 275,20 
	262.5,7.5 250,20 237.5,7.5 225,20 212.5,7.5 200,20 187.5,7.5 175,20 162.5,7.5 150,20 137.5,7.5 125,20 112.5,7.5 100,20 
	87.5,7.5 75,20 62.5,7.5 50,20 37.5,7.5 25,20 12.5,7.5 0,20 0,7.7 0,0 750,0 "/>
</svg>
