<?xml version="1.0" encoding="utf-8"?>
<!-- Generator: Adobe Illustrator 18.1.1, SVG Export Plug-In . SVG Version: 6.00 Build 0)  -->
<svg version="1.1" id="Layer_1" xmlns="http://www.w3.org/2000/svg" xmlns:xlink="http://www.w3.org/1999/xlink" x="0px" y="0px"
	 viewBox="0 0 1800 1200" enable-background="new 0 0 1800 1200" xml:space="preserve">
<g>
	<g>
		<g>
			<g>
				<polygon fill="#F5F5F5" points="287.6,648.9 93.1,648.9 93.1,966.9 344.3,966.9 344.3,705.6 				"/>
				<polygon fill="#D4D4D4" points="287.6,705.6 287.6,648.9 344.3,705.6 				"/>
				<polyline fill="#C7C7C7" points="204.7,903.1 204.7,907.4 134.4,907.4 134.4,903.1 				"/>
				<polyline fill="#C7C7C7" points="211.6,875.9 211.6,880.1 134.4,880.1 134.4,875.9 				"/>
				<polyline fill="#C7C7C7" points="195.5,848.6 195.5,852.9 134.4,852.9 134.4,848.6 				"/>
				<polyline fill="#C7C7C7" points="204.7,821.3 204.7,825.6 134.4,825.6 134.4,821.3 				"/>
				<polyline fill="#C7C7C7" points="211.6,794 211.6,798.3 134.4,798.3 134.4,794 				"/>
				<polyline fill="#C7C7C7" points="185.9,766.7 185.9,771 134.4,771 134.4,766.7 				"/>
				<polyline fill="#C7C7C7" points="300.1,903.1 300.1,907.4 229.8,907.4 229.8,903.1 				"/>
				<polyline fill="#C7C7C7" points="307,875.9 307,880.1 229.8,880.1 229.8,875.9 				"/>
				<polyline fill="#C7C7C7" points="290.9,848.6 290.9,852.9 229.8,852.9 229.8,848.6 				"/>
				<polyline fill="#C7C7C7" points="300.1,821.3 300.1,825.6 229.8,825.6 229.8,821.3 				"/>
				<polyline fill="#C7C7C7" points="307,794 307,798.3 229.8,798.3 229.8,794 				"/>
				<polyline fill="#C7C7C7" points="281.3,766.7 281.3,771 229.8,771 229.8,766.7 				"/>
				<g opacity="0.6">
					<rect x="133.6" y="724.2" fill="none" width="190.9" height="41.6"/>
					
						<text transform="matrix(1 0 0 1 133.5533 742.9797)" opacity="0.6" fill="#283040" enable-background="new    " font-family="'Gotham-Book'" font-size="25.7264">100 5th Ave</text>
				</g>
			</g>
		</g>
		<g>
			<g>
				<g>
					<polygon fill="#F5F5F5" points="465.3,227.5 270.8,227.5 270.8,545.4 522,545.4 522,284.2 					"/>
					<polygon fill="#D4D4D4" points="465.3,284.2 465.3,227.5 522,284.2 					"/>
					<polyline fill="#C7C7C7" points="382.3,481.7 382.3,486 312.1,486 312.1,481.7 					"/>
					<polyline fill="#C7C7C7" points="389.3,454.4 389.3,458.7 312.1,458.7 312.1,454.4 					"/>
					<polyline fill="#C7C7C7" points="373.2,427.1 373.2,431.4 312.1,431.4 312.1,427.1 					"/>
					<polyline fill="#C7C7C7" points="382.3,399.8 382.3,404.1 312.1,404.1 312.1,399.8 					"/>
					<polyline fill="#C7C7C7" points="389.3,372.6 389.3,376.8 312.1,376.8 312.1,372.6 					"/>
					<polyline fill="#C7C7C7" points="363.6,345.3 363.6,349.6 312.1,349.6 312.1,345.3 					"/>
					<polyline fill="#C7C7C7" points="477.7,481.7 477.7,486 407.5,486 407.5,481.7 					"/>
					<polyline fill="#C7C7C7" points="484.7,454.4 484.7,458.7 407.5,458.7 407.5,454.4 					"/>
					<polyline fill="#C7C7C7" points="468.6,427.1 468.6,431.4 407.5,431.4 407.5,427.1 					"/>
					<polyline fill="#C7C7C7" points="477.7,399.8 477.7,404.1 407.5,404.1 407.5,399.8 					"/>
					<polyline fill="#C7C7C7" points="484.7,372.6 484.7,376.8 407.5,376.8 407.5,372.6 					"/>
					<polyline fill="#C7C7C7" points="459,345.3 459,349.6 407.5,349.6 407.5,345.3 					"/>
					<g opacity="0.6">
						<rect x="311.2" y="302.8" fill="none" width="190.9" height="41.6"/>
						
							<text transform="matrix(1 0 0 1 311.2329 321.5339)" opacity="0.6" fill="#283040" enable-background="new    " font-family="'Gotham-Book'" font-size="25.7264">200 5th Ave</text>
					</g>
				</g>
			</g>
			<g>
				<g>
					<g>
						<path fill="#FFFFFF" d="M321.2,882.2c-31.4,0-56.9-25.5-56.9-56.9s25.5-56.9,56.9-56.9s56.9,25.5,56.9,56.9
							S352.6,882.2,321.2,882.2z"/>
						<g>
							<path fill="#228CFF" d="M321.2,769.4c30.8,0,55.9,25.1,55.9,55.9s-25.1,55.9-55.9,55.9s-55.9-25.1-55.9-55.9
								S290.4,769.4,321.2,769.4 M321.2,767.3c-32,0-58,26-58,58s26,58,58,58s58-26,58-58S353.2,767.3,321.2,767.3L321.2,767.3z"/>
						</g>
					</g>
				</g>
				<g>
					<g>
						<defs>
							<circle id="SVGID_1_" cx="321.2" cy="825.3" r="58"/>
						</defs>
						<clipPath id="SVGID_2_">
							<use xlink:href="#SVGID_1_"  overflow="visible"/>
						</clipPath>
						<path clip-path="url(#SVGID_2_)" fill="#228CFF" d="M346.6,837.6c-3.2-4.4-19.7-5.5-19.7-5.5l-5.7,16.5l-5.7-16.5
							c0,0-16.5,1.1-19.7,5.5v57.7h9.8l6.2,66.9h9.4h9.4l6.2-66.9h9.8L346.6,837.6L346.6,837.6z"/>
					</g>
					<g>
						<defs>
							<circle id="SVGID_3_" cx="321.2" cy="825.3" r="58"/>
						</defs>
						<clipPath id="SVGID_4_">
							<use xlink:href="#SVGID_3_"  overflow="visible"/>
						</clipPath>
						<path clip-path="url(#SVGID_4_)" fill="#228CFF" d="M321.2,828.3c-7.1,0-12.9-5.8-12.9-12.9c0-7.1,5.8-12.9,12.9-12.9
							c7.2,0,12.9,5.8,12.9,12.9C334.1,822.6,328.3,828.3,321.2,828.3z"/>
					</g>
				</g>
			</g>
		</g>
		<g>
			<g opacity="0.4">
				<path fill="#FFFFFF" fill-opacity="0" d="M1310.3,1047c0,3.6-181.5,2.7-405.4,2.7s-405.4,0.8-405.4-2.7
					c0-3.6,181.5-6.5,405.4-6.5C1128.8,1040.6,1310.3,1043.5,1310.3,1047z"/>
				<path opacity="5.988024e-03" fill="#FEFEFE" enable-background="new    " d="M1309.9,1047c0,3.6-181.3,2.7-404.9,2.7
					s-404.9,0.8-404.9-2.7c0-3.6,181.3-6.4,404.9-6.4S1309.9,1043.5,1309.9,1047z"/>
				<path opacity="1.197605e-02" fill="#FDFDFD" enable-background="new    " d="M1309.4,1047c0,3.5-181.1,2.7-404.4,2.7
					c-223.4,0-404.4,0.8-404.4-2.7s181.1-6.4,404.4-6.4S1309.4,1043.5,1309.4,1047z"/>
				<path opacity="1.796407e-02" fill="#FCFCFC" enable-background="new    " d="M1308.9,1047c0,3.5-180.9,2.7-403.9,2.7
					c-223.1,0-403.9,0.8-403.9-2.7s180.9-6.4,403.9-6.4C1128.1,1040.7,1308.9,1043.5,1308.9,1047z"/>
				<path opacity="2.395210e-02" fill="#FBFBFB" enable-background="new    " d="M1308.4,1047c0,3.5-180.6,2.7-403.5,2.7
					c-222.8,0-403.5,0.8-403.5-2.7s180.6-6.3,403.5-6.3S1308.4,1043.5,1308.4,1047z"/>
				<path opacity="2.994012e-02" fill="#FAFAFA" enable-background="new    " d="M1308,1047c0,3.5-180.4,2.7-403,2.7
					s-403,0.8-403-2.7s180.4-6.3,403-6.3C1127.5,1040.7,1308,1043.5,1308,1047z"/>
				<path opacity="3.592815e-02" fill="#F9F9F9" enable-background="new    " d="M1307.5,1047c0,3.5-180.2,2.7-402.5,2.7
					s-402.5,0.8-402.5-2.7s180.2-6.3,402.5-6.3S1307.5,1043.5,1307.5,1047z"/>
				<path opacity="4.191617e-02" fill="#F8F8F8" enable-background="new    " d="M1307,1047c0,3.5-180,2.7-402,2.7s-402,0.8-402-2.7
					s180-6.3,402-6.3C1127,1040.8,1307,1043.6,1307,1047z"/>
				<path opacity="4.790419e-02" fill="#F7F7F7" enable-background="new    " d="M1306.6,1047c0,3.4-179.8,2.7-401.6,2.7
					s-401.6,0.8-401.6-2.7c0-3.4,179.8-6.2,401.6-6.2S1306.6,1043.6,1306.6,1047z"/>
				<path opacity="5.389222e-02" fill="#F6F6F6" enable-background="new    " d="M1306.1,1047c0,3.4-179.6,2.7-401.1,2.7
					s-401.1,0.7-401.1-2.7c0-3.4,179.6-6.2,401.1-6.2S1306.1,1043.6,1306.1,1047z"/>
				<path opacity="5.988024e-02" fill="#F5F5F5" enable-background="new    " d="M1305.6,1047c0,3.4-179.4,2.7-400.6,2.7
					c-221.3,0-400.6,0.7-400.6-2.7c0-3.4,179.4-6.2,400.6-6.2S1305.6,1043.6,1305.6,1047z"/>
				<path opacity="6.586827e-02" fill="#F4F4F4" enable-background="new    " d="M1305.1,1047c0,3.4-179.2,2.7-400.1,2.7
					c-221,0-400.1,0.7-400.1-2.7c0-3.4,179.1-6.1,400.1-6.1S1305.1,1043.6,1305.1,1047z"/>
				<path opacity="7.185629e-02" fill="#F3F3F3" enable-background="new    " d="M1304.7,1047c0,3.4-178.9,2.7-399.7,2.7
					c-220.7,0-399.7,0.7-399.7-2.7c0-3.4,178.9-6.1,399.7-6.1C1125.7,1040.9,1304.7,1043.6,1304.7,1047z"/>
				<path opacity="7.784431e-02" fill="#F2F2F2" enable-background="new    " d="M1304.2,1047c0,3.4-178.7,2.6-399.2,2.6
					s-399.2,0.7-399.2-2.6c0-3.4,178.7-6.1,399.2-6.1S1304.2,1043.6,1304.2,1047z"/>
				<path opacity="8.383234e-02" fill="#F1F1F1" enable-background="new    " d="M1303.7,1047c0,3.3-178.5,2.6-398.7,2.6
					s-398.7,0.7-398.7-2.6c0-3.3,178.5-6,398.7-6S1303.7,1043.7,1303.7,1047z"/>
				<path opacity="8.982036e-02" fill="#F0F0F0" enable-background="new    " d="M1303.3,1047c0,3.3-178.3,2.6-398.2,2.6
					s-398.2,0.7-398.2-2.6c0-3.3,178.3-6,398.2-6S1303.3,1043.7,1303.3,1047z"/>
				<path opacity="9.580839e-02" fill="#EFEFEF" enable-background="new    " d="M1302.8,1047c0,3.3-178.1,2.6-397.8,2.6
					s-397.8,0.7-397.8-2.6c0-3.3,178.1-6,397.8-6S1302.8,1043.7,1302.8,1047z"/>
				<path opacity="0.1018" fill="#EEEEEE" enable-background="new    " d="M1302.3,1047c0,3.3-177.9,2.6-397.3,2.6
					s-397.3,0.7-397.3-2.6c0-3.3,177.9-6,397.3-6S1302.3,1043.7,1302.3,1047z"/>
				<path opacity="0.1078" fill="#EDEDED" enable-background="new    " d="M1301.8,1047c0,3.3-177.7,2.6-396.8,2.6
					c-219.2,0-396.8,0.7-396.8-2.6c0-3.3,177.7-5.9,396.8-5.9C1124.2,1041.1,1301.8,1043.7,1301.8,1047z"/>
				<path opacity="0.1138" fill="#ECECEC" enable-background="new    " d="M1301.4,1047c0,3.3-177.4,2.6-396.3,2.6
					s-396.3,0.7-396.3-2.6c0-3.3,177.4-5.9,396.3-5.9C1123.9,1041.1,1301.4,1043.7,1301.4,1047z"/>
				<path opacity="0.1198" fill="#EBEBEB" enable-background="new    " d="M1300.9,1047c0,3.2-177.2,2.6-395.9,2.6
					c-218.6,0-395.9,0.6-395.9-2.6s177.2-5.9,395.9-5.9S1300.9,1043.7,1300.9,1047z"/>
				<path opacity="0.1257" fill="#EAEAEA" enable-background="new    " d="M1300.4,1047c0,3.2-177,2.6-395.4,2.6
					s-395.4,0.6-395.4-2.6s177-5.8,395.4-5.8C1123.4,1041.1,1300.4,1043.8,1300.4,1047z"/>
				<path opacity="0.1317" fill="#E9E9E9" enable-background="new    " d="M1300,1047c0,3.2-176.8,2.6-394.9,2.6
					s-394.9,0.6-394.9-2.6s176.8-5.8,394.9-5.8C1123.1,1041.2,1300,1043.8,1300,1047z"/>
				<path opacity="0.1377" fill="#E8E8E8" enable-background="new    " d="M1299.5,1047c0,3.2-176.6,2.6-394.4,2.6
					s-394.4,0.6-394.4-2.6s176.6-5.8,394.4-5.8S1299.5,1043.8,1299.5,1047z"/>
				<path opacity="0.1437" fill="#E7E7E7" enable-background="new    " d="M1299,1047c0,3.2-176.4,2.6-394,2.6s-394,0.6-394-2.6
					s176.4-5.7,394-5.7C1122.6,1041.2,1299,1043.8,1299,1047z"/>
				<path opacity="0.1497" fill="#E6E6E6" enable-background="new    " d="M1298.5,1047c0,3.2-176.2,2.6-393.5,2.6
					s-393.5,0.6-393.5-2.6s176.2-5.7,393.5-5.7C1122.4,1041.3,1298.5,1043.8,1298.5,1047z"/>
				<path opacity="0.1557" fill="#E5E5E5" enable-background="new    " d="M1298.1,1047c0,3.1-176,2.5-393,2.5
					c-217.1,0-393,0.6-393-2.5s176-5.7,393-5.7S1298.1,1043.8,1298.1,1047z"/>
				<path opacity="0.1617" fill="#E4E4E4" enable-background="new    " d="M1297.6,1047c0,3.1-175.7,2.5-392.5,2.5
					s-392.5,0.6-392.5-2.5s175.7-5.7,392.5-5.7S1297.6,1043.8,1297.6,1047z"/>
				<path opacity="0.1677" fill="#E3E3E4" enable-background="new    " d="M1297.1,1047c0,3.1-175.5,2.5-392.1,2.5
					c-216.5,0-392.1,0.6-392.1-2.5s175.5-5.6,392.1-5.6C1121.6,1041.3,1297.1,1043.9,1297.1,1047z"/>
				<path opacity="0.1737" fill="#E2E2E3" enable-background="new    " d="M1296.7,1047c0,3.1-175.3,2.5-391.6,2.5
					s-391.6,0.6-391.6-2.5s175.3-5.6,391.6-5.6C1121.3,1041.4,1296.7,1043.9,1296.7,1047z"/>
				<path opacity="0.1796" fill="#E1E1E2" enable-background="new    " d="M1296.2,1047c0,3.1-175.1,2.5-391.1,2.5
					S514,1050.1,514,1047s175.1-5.6,391.1-5.6S1296.2,1043.9,1296.2,1047z"/>
				<path opacity="0.1856" fill="#E0E0E1" enable-background="new    " d="M1295.7,1047c0,3.1-174.9,2.5-390.6,2.5
					s-390.6,0.5-390.6-2.5c0-3.1,174.9-5.5,390.6-5.5C1120.8,1041.4,1295.7,1043.9,1295.7,1047z"/>
				<path opacity="0.1916" fill="#DFDFE0" enable-background="new    " d="M1295.2,1046.9c0,3-174.7,2.5-390.2,2.5
					s-390.2,0.5-390.2-2.5s174.7-5.5,390.2-5.5C1120.6,1041.4,1295.2,1043.9,1295.2,1046.9z"/>
				<path opacity="0.1976" fill="#DEDEDF" enable-background="new    " d="M1294.8,1046.9c0,3-174.5,2.5-389.7,2.5
					s-389.7,0.5-389.7-2.5s174.5-5.5,389.7-5.5C1120.3,1041.5,1294.8,1043.9,1294.8,1046.9z"/>
				<path opacity="0.2036" fill="#DDDDDE" enable-background="new    " d="M1294.3,1046.9c0,3-174.3,2.5-389.2,2.5
					c-215,0-389.2,0.5-389.2-2.5s174.3-5.4,389.2-5.4S1294.3,1043.9,1294.3,1046.9z"/>
				<path opacity="0.2096" fill="#DCDCDD" enable-background="new    " d="M1293.8,1046.9c0,3-174,2.5-388.7,2.5
					s-388.7,0.5-388.7-2.5s174-5.4,388.7-5.4S1293.8,1043.9,1293.8,1046.9z"/>
				<path opacity="0.2156" fill="#DBDBDC" enable-background="new    " d="M1293.4,1046.9c0,3-173.8,2.5-388.3,2.5
					c-214.4,0-388.3,0.5-388.3-2.5s173.8-5.4,388.3-5.4C1119.5,1041.6,1293.4,1044,1293.4,1046.9z"/>
				<path opacity="0.2216" fill="#DADADB" enable-background="new    " d="M1292.9,1046.9c0,3-173.6,2.5-387.8,2.5
					s-387.8,0.5-387.8-2.5s173.6-5.4,387.8-5.4C1119.3,1041.6,1292.9,1044,1292.9,1046.9z"/>
				<path opacity="0.2275" fill="#D9D9DA" enable-background="new    " d="M1292.4,1046.9c0,2.9-173.4,2.5-387.3,2.5
					s-387.3,0.5-387.3-2.5c0-2.9,173.4-5.3,387.3-5.3S1292.4,1044,1292.4,1046.9z"/>
				<path opacity="0.2335" fill="#D8D8D9" enable-background="new    " d="M1291.9,1046.9c0,2.9-173.2,2.4-386.8,2.4
					c-213.7,0-386.8,0.5-386.8-2.4s173.2-5.3,386.8-5.3S1291.9,1044,1291.9,1046.9z"/>
				<path opacity="0.2395" fill="#D7D7D8" enable-background="new    " d="M1291.5,1046.9c0,2.9-173,2.4-386.4,2.4
					s-386.4,0.5-386.4-2.4s173-5.3,386.4-5.3C1118.5,1041.7,1291.5,1044,1291.5,1046.9z"/>
				<path opacity="0.2455" fill="#D6D6D7" enable-background="new    " d="M1291,1046.9c0,2.9-172.8,2.4-385.9,2.4
					s-385.9,0.5-385.9-2.4s172.8-5.2,385.9-5.2C1118.2,1041.7,1291,1044,1291,1046.9z"/>
				<path opacity="0.2515" fill="#D5D5D6" enable-background="new    " d="M1290.5,1046.9c0,2.9-172.6,2.4-385.4,2.4
					c-212.9,0-385.4,0.5-385.4-2.4s172.6-5.2,385.4-5.2C1118,1041.7,1290.5,1044,1290.5,1046.9z"/>
				<path opacity="0.2575" fill="#D4D4D5" enable-background="new    " d="M1290.1,1046.9c0,2.9-172.3,2.4-384.9,2.4
					s-384.9,0.4-384.9-2.4c0-2.9,172.3-5.2,384.9-5.2C1117.7,1041.7,1290.1,1044.1,1290.1,1046.9z"/>
				<path opacity="0.2635" fill="#D3D3D4" enable-background="new    " d="M1289.6,1046.9c0,2.8-172.1,2.4-384.5,2.4
					c-212.3,0-384.5,0.4-384.5-2.4s172.1-5.1,384.5-5.1S1289.6,1044.1,1289.6,1046.9z"/>
				<path opacity="0.2695" fill="#D2D2D3" enable-background="new    " d="M1289.1,1046.9c0,2.8-171.9,2.4-384,2.4s-384,0.4-384-2.4
					s171.9-5.1,384-5.1S1289.1,1044.1,1289.1,1046.9z"/>
				<path opacity="0.2754" fill="#D1D1D2" enable-background="new    " d="M1288.6,1046.9c0,2.8-171.7,2.4-383.5,2.4
					s-383.5,0.4-383.5-2.4s171.7-5.1,383.5-5.1S1288.6,1044.1,1288.6,1046.9z"/>
				<path opacity="0.2814" fill="#D0D0D1" enable-background="new    " d="M1288.2,1046.9c0,2.8-171.5,2.4-383,2.4
					c-211.6,0-383,0.4-383-2.4s171.5-5.1,383-5.1C1116.7,1041.9,1288.2,1044.1,1288.2,1046.9z"/>
				<path opacity="0.2874" fill="#CFCFD0" enable-background="new    " d="M1287.7,1046.9c0,2.8-171.3,2.4-382.6,2.4
					s-382.6,0.4-382.6-2.4s171.3-5,382.6-5S1287.7,1044.1,1287.7,1046.9z"/>
				<path opacity="0.2934" fill="#CECECF" enable-background="new    " d="M1287.2,1046.9c0,2.8-171.1,2.4-382.1,2.4
					s-382.1,0.4-382.1-2.4s171.1-5,382.1-5C1116.2,1041.9,1287.2,1044.1,1287.2,1046.9z"/>
				<path opacity="0.2994" fill="#CDCDCE" enable-background="new    " d="M1286.8,1046.9c0,2.7-170.9,2.4-381.6,2.4
					c-210.8,0-381.6,0.4-381.6-2.4c0-2.7,170.9-5,381.6-5S1286.8,1044.2,1286.8,1046.9z"/>
				<path opacity="0.3054" fill="#CCCCCD" enable-background="new    " d="M1286.3,1046.9c0,2.7-170.6,2.4-381.1,2.4
					s-381.1,0.4-381.1-2.4c0-2.7,170.6-4.9,381.1-4.9C1115.6,1042,1286.3,1044.2,1286.3,1046.9z"/>
				<path opacity="0.3114" fill="#CBCBCC" enable-background="new    " d="M1285.8,1046.9c0,2.7-170.4,2.3-380.7,2.3
					c-210.2,0-380.7,0.4-380.7-2.3c0-2.7,170.4-4.9,380.7-4.9S1285.8,1044.2,1285.8,1046.9z"/>
				<path opacity="0.3174" fill="#CACACB" enable-background="new    " d="M1285.3,1046.9c0,2.7-170.2,2.3-380.2,2.3
					s-380.2,0.4-380.2-2.3c0-2.7,170.2-4.9,380.2-4.9S1285.3,1044.2,1285.3,1046.9z"/>
				<path opacity="0.3234" fill="#C9C9CA" enable-background="new    " d="M1284.9,1046.9c0,2.7-170,2.3-379.7,2.3
					s-379.7,0.3-379.7-2.3c0-2.7,170-4.8,379.7-4.8C1114.9,1042,1284.9,1044.2,1284.9,1046.9z"/>
				<path opacity="0.3293" fill="#C8C8C9" enable-background="new    " d="M1284.4,1046.9c0,2.7-169.8,2.3-379.3,2.3
					s-379.3,0.3-379.3-2.3c0-2.7,169.8-4.8,379.3-4.8S1284.4,1044.2,1284.4,1046.9z"/>
				<path opacity="0.3353" fill="#C7C7C8" enable-background="new    " d="M1283.9,1046.9c0,2.6-169.6,2.3-378.8,2.3
					s-378.8,0.3-378.8-2.3c0-2.6,169.6-4.8,378.8-4.8C1114.4,1042.1,1283.9,1044.2,1283.9,1046.9z"/>
				<path opacity="0.3413" fill="#C6C6C7" enable-background="new    " d="M1283.5,1046.9c0,2.6-169.4,2.3-378.3,2.3
					s-378.3,0.3-378.3-2.3c0-2.6,169.4-4.8,378.3-4.8S1283.5,1044.3,1283.5,1046.9z"/>
				<path opacity="0.3473" fill="#C5C5C6" enable-background="new    " d="M1283,1046.9c0,2.6-169.2,2.3-377.8,2.3
					c-208.7,0-377.8,0.3-377.8-2.3c0-2.6,169.2-4.7,377.8-4.7C1113.8,1042.2,1283,1044.3,1283,1046.9z"/>
				<path opacity="0.3533" fill="#C4C4C5" enable-background="new    " d="M1282.5,1046.9c0,2.6-168.9,2.3-377.4,2.3
					c-208.4,0-377.4,0.3-377.4-2.3c0-2.6,168.9-4.7,377.4-4.7C1113.6,1042.2,1282.5,1044.3,1282.5,1046.9z"/>
				<path opacity="0.3593" fill="#C3C3C4" enable-background="new    " d="M1282,1046.9c0,2.6-168.7,2.3-376.9,2.3
					c-208.1,0-376.9,0.3-376.9-2.3c0-2.6,168.7-4.7,376.9-4.7C1113.3,1042.2,1282,1044.3,1282,1046.9z"/>
				<path opacity="0.3653" fill="#C2C2C3" enable-background="new    " d="M1281.6,1046.9c0,2.6-168.5,2.3-376.4,2.3
					s-376.4,0.3-376.4-2.3c0-2.6,168.5-4.6,376.4-4.6C1113.1,1042.2,1281.6,1044.3,1281.6,1046.9z"/>
				<path opacity="0.3713" fill="#C1C1C2" enable-background="new    " d="M1281.1,1046.9c0,2.5-168.3,2.3-375.9,2.3
					s-375.9,0.3-375.9-2.3c0-2.5,168.3-4.6,375.9-4.6S1281.1,1044.3,1281.1,1046.9z"/>
				<path opacity="0.3772" fill="#C0C0C1" enable-background="new    " d="M1280.6,1046.9c0,2.5-168.1,2.3-375.5,2.3
					s-375.5,0.3-375.5-2.3c0-2.5,168.1-4.6,375.5-4.6S1280.6,1044.3,1280.6,1046.9z"/>
				<path opacity="0.3832" fill="#BFBFC0" enable-background="new    " d="M1280.2,1046.9c0,2.5-167.9,2.3-375,2.3s-375,0.3-375-2.3
					c0-2.5,167.9-4.5,375-4.5C1112.3,1042.3,1280.2,1044.3,1280.2,1046.9z"/>
				<path opacity="0.3892" fill="#BEBEBF" enable-background="new    " d="M1279.7,1046.9c0,2.5-167.7,2.2-374.5,2.2
					s-374.5,0.2-374.5-2.2c0-2.5,167.7-4.5,374.5-4.5C1112,1042.3,1279.7,1044.4,1279.7,1046.9z"/>
				<path opacity="0.3952" fill="#BDBDBE" enable-background="new    " d="M1279.2,1046.9c0,2.5-167.5,2.2-374,2.2
					c-206.6,0-374,0.2-374-2.2c0-2.5,167.5-4.5,374-4.5C1111.8,1042.4,1279.2,1044.4,1279.2,1046.9z"/>
				<path opacity="0.4012" fill="#BCBCBD" enable-background="new    " d="M1278.8,1046.9c0,2.5-167.2,2.2-373.6,2.2
					c-206.3,0-373.6,0.2-373.6-2.2c0-2.5,167.2-4.5,373.6-4.5C1111.5,1042.4,1278.8,1044.4,1278.8,1046.9z"/>
				<path opacity="0.4072" fill="#BBBBBC" enable-background="new    " d="M1278.3,1046.8c0,2.4-167,2.2-373.1,2.2
					c-206,0-373.1,0.2-373.1-2.2c0-2.4,167-4.4,373.1-4.4C1111.2,1042.4,1278.3,1044.4,1278.3,1046.8z"/>
				<path opacity="0.4132" fill="#BABABB" enable-background="new    " d="M1277.8,1046.8c0,2.4-166.8,2.2-372.6,2.2
					s-372.6,0.2-372.6-2.2c0-2.4,166.8-4.4,372.6-4.4C1111,1042.5,1277.8,1044.4,1277.8,1046.8z"/>
				<path opacity="0.4192" fill="#B9B9BA" enable-background="new    " d="M1277.3,1046.8c0,2.4-166.6,2.2-372.1,2.2
					s-372.1,0.2-372.1-2.2c0-2.4,166.6-4.4,372.1-4.4C1110.7,1042.5,1277.3,1044.4,1277.3,1046.8z"/>
				<path opacity="0.4251" fill="#B8B8B9" enable-background="new    " d="M1276.9,1046.8c0,2.4-166.4,2.2-371.7,2.2
					s-371.7,0.2-371.7-2.2c0-2.4,166.4-4.3,371.7-4.3S1276.9,1044.4,1276.9,1046.8z"/>
				<path opacity="0.4311" fill="#B7B7B8" enable-background="new    " d="M1276.4,1046.8c0,2.4-166.2,2.2-371.2,2.2
					s-371.2,0.2-371.2-2.2c0-2.4,166.2-4.3,371.2-4.3S1276.4,1044.5,1276.4,1046.8z"/>
				<path opacity="0.4371" fill="#B6B6B7" enable-background="new    " d="M1275.9,1046.8c0,2.4-166,2.2-370.7,2.2
					s-370.7,0.2-370.7-2.2c0-2.4,166-4.3,370.7-4.3C1110,1042.6,1275.9,1044.5,1275.9,1046.8z"/>
				<path opacity="0.4431" fill="#B5B5B6" enable-background="new    " d="M1275.5,1046.8c0,2.3-165.8,2.2-370.2,2.2
					c-204.5,0-370.2,0.2-370.2-2.2c0-2.3,165.8-4.2,370.2-4.2C1109.7,1042.6,1275.5,1044.5,1275.5,1046.8z"/>
				<path opacity="0.4491" fill="#B4B4B5" enable-background="new    " d="M1275,1046.8c0,2.3-165.5,2.2-369.8,2.2
					c-204.2,0-369.8,0.2-369.8-2.2c0-2.3,165.5-4.2,369.8-4.2C1109.4,1042.6,1275,1044.5,1275,1046.8z"/>
				<path opacity="0.4551" fill="#B3B3B4" enable-background="new    " d="M1274.5,1046.8c0,2.3-165.3,2.2-369.3,2.2
					c-203.9,0-369.3,0.2-369.3-2.2c0-2.3,165.3-4.2,369.3-4.2C1109.2,1042.6,1274.5,1044.5,1274.5,1046.8z"/>
				<path opacity="0.4611" fill="#B2B2B3" enable-background="new    " d="M1274,1046.8c0,2.3-165.1,2.2-368.8,2.2
					s-368.8,0.1-368.8-2.2c0-2.3,165.1-4.2,368.8-4.2C1108.9,1042.7,1274,1044.5,1274,1046.8z"/>
				<path opacity="0.4671" fill="#B1B1B2" enable-background="new    " d="M1273.6,1046.8c0,2.3-164.9,2.1-368.3,2.1
					S537,1049,537,1046.8c0-2.3,164.9-4.1,368.3-4.1C1108.7,1042.7,1273.6,1044.5,1273.6,1046.8z"/>
				<path opacity="0.4731" fill="#B0B0B1" enable-background="new    " d="M1273.1,1046.8c0,2.3-164.7,2.1-367.9,2.1
					s-367.9,0.1-367.9-2.1c0-2.3,164.7-4.1,367.9-4.1C1108.4,1042.7,1273.1,1044.6,1273.1,1046.8z"/>
				<path opacity="0.479" fill="#AFAFB0" enable-background="new    " d="M1272.6,1046.8c0,2.2-164.5,2.1-367.4,2.1
					s-367.4,0.1-367.4-2.1s164.5-4.1,367.4-4.1C1108.1,1042.8,1272.6,1044.6,1272.6,1046.8z"/>
				<path opacity="0.485" fill="#AEAEAF" enable-background="new    " d="M1272.2,1046.8c0,2.2-164.3,2.1-366.9,2.1
					s-366.9,0.1-366.9-2.1s164.3-4,366.9-4S1272.2,1044.6,1272.2,1046.8z"/>
				<path opacity="0.491" fill="#ADADAF" enable-background="new    " d="M1271.7,1046.8c0,2.2-164.1,2.1-366.4,2.1
					c-202.4,0-366.4,0.1-366.4-2.1s164.1-4,366.4-4S1271.7,1044.6,1271.7,1046.8z"/>
				<path opacity="0.497" fill="#ACACAE" enable-background="new    " d="M1271.2,1046.8c0,2.2-163.8,2.1-366,2.1
					c-202.1,0-366,0.1-366-2.1s163.8-4,366-4S1271.2,1044.6,1271.2,1046.8z"/>
				<path opacity="0.503" fill="#ABABAD" enable-background="new    " d="M1270.7,1046.8c0,2.2-163.6,2.1-365.5,2.1
					c-201.8,0-365.5,0.1-365.5-2.1s163.6-3.9,365.5-3.9S1270.7,1044.6,1270.7,1046.8z"/>
				<path opacity="0.509" fill="#AAAAAC" enable-background="new    " d="M1270.3,1046.8c0,2.2-163.4,2.1-365,2.1s-365,0.1-365-2.1
					s163.4-3.9,365-3.9C1106.8,1042.9,1270.3,1044.6,1270.3,1046.8z"/>
				<path opacity="0.515" fill="#A9A9AB" enable-background="new    " d="M1269.8,1046.8c0,2.1-163.2,2.1-364.5,2.1
					s-364.5,0.1-364.5-2.1c0-2.1,163.2-3.9,364.5-3.9S1269.8,1044.7,1269.8,1046.8z"/>
				<path opacity="0.521" fill="#A8A8AA" enable-background="new    " d="M1269.3,1046.8c0,2.1-163,2.1-364.1,2.1
					s-364.1,0.1-364.1-2.1c0-2.1,163-3.9,364.1-3.9S1269.3,1044.7,1269.3,1046.8z"/>
				<path opacity="0.5269" fill="#A7A7A9" enable-background="new    " d="M1268.9,1046.8c0,2.1-162.8,2.1-363.6,2.1
					s-363.6,0-363.6-2.1s162.8-3.8,363.6-3.8S1268.9,1044.7,1268.9,1046.8z"/>
				<path opacity="0.5329" fill="#A6A6A8" enable-background="new    " d="M1268.4,1046.8c0,2.1-162.6,2.1-363.1,2.1
					s-363.1,0-363.1-2.1s162.6-3.8,363.1-3.8S1268.4,1044.7,1268.4,1046.8z"/>
				<path opacity="0.5389" fill="#A5A5A7" enable-background="new    " d="M1267.9,1046.8c0,2.1-162.4,2.1-362.6,2.1
					s-362.6,0-362.6-2.1s162.4-3.8,362.6-3.8S1267.9,1044.7,1267.9,1046.8z"/>
				<path opacity="0.5449" fill="#A4A4A6" enable-background="new    " d="M1267.4,1046.8c0,2.1-162.1,2-362.2,2
					c-200,0-362.2,0-362.2-2c0-2.1,162.1-3.7,362.2-3.7C1105.3,1043.1,1267.4,1044.7,1267.4,1046.8z"/>
				<path opacity="0.5509" fill="#A3A3A5" enable-background="new    " d="M1267,1046.8c0,2-161.9,2-361.7,2s-361.7,0-361.7-2
					s161.9-3.7,361.7-3.7C1105,1043.1,1267,1044.7,1267,1046.8z"/>
				<path opacity="0.5569" fill="#A2A2A4" enable-background="new    " d="M1266.5,1046.8c0,2-161.7,2-361.2,2s-361.2,0-361.2-2
					s161.7-3.7,361.2-3.7C1104.8,1043.1,1266.5,1044.7,1266.5,1046.8z"/>
				<path opacity="0.5629" fill="#A1A1A3" enable-background="new    " d="M1266,1046.8c0,2-161.5,2-360.7,2s-360.7,0-360.7-2
					s161.5-3.6,360.7-3.6C1104.5,1043.1,1266,1044.8,1266,1046.8z"/>
				<path opacity="0.5689" fill="#A0A1A2" enable-background="new    " d="M1265.6,1046.8c0,2-161.3,2-360.3,2s-360.3,0-360.3-2
					s161.3-3.6,360.3-3.6C1104.3,1043.2,1265.6,1044.8,1265.6,1046.8z"/>
				<path opacity="0.5749" fill="#9FA0A1" enable-background="new    " d="M1265.1,1046.8c0,2-161.1,2-359.8,2s-359.8,0-359.8-2
					s161.1-3.6,359.8-3.6C1104,1043.2,1265.1,1044.8,1265.1,1046.8z"/>
				<path opacity="0.5808" fill="#9E9FA0" enable-background="new    " d="M1264.6,1046.8c0,2-160.9,2-359.3,2s-359.3,0-359.3-2
					s160.9-3.6,359.3-3.6C1103.7,1043.2,1264.6,1044.8,1264.6,1046.8z"/>
				<path opacity="0.5868" fill="#9D9E9F" enable-background="new    " d="M1264.1,1046.8c0,1.9-160.7,2-358.8,2
					c-198.2,0-358.8,0-358.8-2c0-1.9,160.7-3.5,358.8-3.5C1103.5,1043.2,1264.1,1044.8,1264.1,1046.8z"/>
				<path opacity="0.5928" fill="#9C9D9E" enable-background="new    " d="M1263.7,1046.8c0,1.9-160.4,2-358.4,2
					c-197.9,0-358.4-0.1-358.4-2s160.4-3.5,358.4-3.5C1103.2,1043.3,1263.7,1044.8,1263.7,1046.8z"/>
				<path opacity="0.5988" fill="#9B9C9D" enable-background="new    " d="M1263.2,1046.8c0,1.9-160.2,2-357.9,2s-357.9-0.1-357.9-2
					s160.2-3.5,357.9-3.5S1263.2,1044.8,1263.2,1046.8z"/>
				<path opacity="0.6048" fill="#9A9B9C" enable-background="new    " d="M1262.7,1046.8c0,1.9-160,2-357.4,2s-357.4-0.1-357.4-2
					s160-3.4,357.4-3.4C1102.7,1043.3,1262.7,1044.9,1262.7,1046.8z"/>
				<path opacity="0.6108" fill="#999A9B" enable-background="new    " d="M1262.3,1046.8c0,1.9-159.8,2-356.9,2s-356.9-0.1-356.9-2
					s159.8-3.4,356.9-3.4C1102.5,1043.3,1262.3,1044.9,1262.3,1046.8z"/>
				<path opacity="0.6168" fill="#98999A" enable-background="new    " d="M1261.8,1046.8c0,1.9-159.6,2-356.5,2s-356.5-0.1-356.5-2
					s159.6-3.4,356.5-3.4S1261.8,1044.9,1261.8,1046.8z"/>
				<path opacity="0.6228" fill="#979899" enable-background="new    " d="M1261.3,1046.7c0,1.8-159.4,1.9-356,1.9s-356-0.1-356-1.9
					s159.4-3.3,356-3.3S1261.3,1044.9,1261.3,1046.7z"/>
				<path opacity="0.6287" fill="#969798" enable-background="new    " d="M1260.8,1046.7c0,1.8-159.2,1.9-355.5,1.9
					s-355.5-0.1-355.5-1.9s159.2-3.3,355.5-3.3C1101.7,1043.4,1260.8,1044.9,1260.8,1046.7z"/>
				<path opacity="0.6347" fill="#959697" enable-background="new    " d="M1260.4,1046.7c0,1.8-159,1.9-355,1.9s-355-0.1-355-1.9
					s159-3.3,355-3.3S1260.4,1044.9,1260.4,1046.7z"/>
				<path opacity="0.6407" fill="#949596" enable-background="new    " d="M1259.9,1046.7c0,1.8-158.7,1.9-354.6,1.9
					s-354.6-0.1-354.6-1.9s158.7-3.3,354.6-3.3S1259.9,1044.9,1259.9,1046.7z"/>
				<path opacity="0.6467" fill="#939495" enable-background="new    " d="M1259.4,1046.7c0,1.8-158.5,1.9-354.1,1.9
					s-354.1-0.1-354.1-1.9s158.5-3.2,354.1-3.2S1259.4,1045,1259.4,1046.7z"/>
				<path opacity="0.6527" fill="#929394" enable-background="new    " d="M1259,1046.7c0,1.8-158.3,1.9-353.6,1.9
					s-353.6-0.1-353.6-1.9s158.3-3.2,353.6-3.2S1259,1045,1259,1046.7z"/>
				<path opacity="0.6587" fill="#919293" enable-background="new    " d="M1258.5,1046.7c0,1.7-158.1,1.9-353.1,1.9
					s-353.1-0.1-353.1-1.9s158.1-3.2,353.1-3.2S1258.5,1045,1258.5,1046.7z"/>
				<path opacity="0.6647" fill="#909192" enable-background="new    " d="M1258,1046.7c0,1.7-157.9,1.9-352.7,1.9
					s-352.7-0.2-352.7-1.9s157.9-3.1,352.7-3.1S1258,1045,1258,1046.7z"/>
				<path opacity="0.6707" fill="#8F9091" enable-background="new    " d="M1257.5,1046.7c0,1.7-157.7,1.9-352.2,1.9
					s-352.2-0.2-352.2-1.9c0-1.7,157.7-3.1,352.2-3.1S1257.5,1045,1257.5,1046.7z"/>
				<path opacity="0.6766" fill="#8E8F90" enable-background="new    " d="M1257.1,1046.7c0,1.7-157.5,1.9-351.7,1.9
					s-351.7-0.2-351.7-1.9c0-1.7,157.5-3.1,351.7-3.1S1257.1,1045,1257.1,1046.7z"/>
				<path opacity="0.6826" fill="#8D8E8F" enable-background="new    " d="M1256.6,1046.7c0,1.7-157.3,1.9-351.2,1.9
					s-351.2-0.2-351.2-1.9s157.3-3,351.2-3S1256.6,1045,1256.6,1046.7z"/>
				<path opacity="0.6886" fill="#8C8D8E" enable-background="new    " d="M1256.1,1046.7c0,1.7-157,1.9-350.8,1.9
					s-350.8-0.2-350.8-1.9s157-3,350.8-3S1256.1,1045.1,1256.1,1046.7z"/>
				<path opacity="0.6946" fill="#8B8C8D" enable-background="new    " d="M1255.7,1046.7c0,1.6-156.8,1.9-350.3,1.9
					s-350.3-0.2-350.3-1.9c0-1.6,156.8-3,350.3-3S1255.7,1045.1,1255.7,1046.7z"/>
				<path opacity="0.7006" fill="#8A8B8C" enable-background="new    " d="M1255.2,1046.7c0,1.6-156.6,1.8-349.8,1.8
					s-349.8-0.2-349.8-1.8c0-1.6,156.6-3,349.8-3C1098.6,1043.8,1255.2,1045.1,1255.2,1046.7z"/>
				<path opacity="0.7066" fill="#898A8B" enable-background="new    " d="M1254.7,1046.7c0,1.6-156.4,1.8-349.3,1.8
					s-349.3-0.2-349.3-1.8c0-1.6,156.4-2.9,349.3-2.9C1098.3,1043.8,1254.7,1045.1,1254.7,1046.7z"/>
				<path opacity="0.7126" fill="#88898A" enable-background="new    " d="M1254.2,1046.7c0,1.6-156.2,1.8-348.9,1.8
					s-348.9-0.2-348.9-1.8s156.2-2.9,348.9-2.9S1254.2,1045.1,1254.2,1046.7z"/>
				<path opacity="0.7186" fill="#878889" enable-background="new    " d="M1253.8,1046.7c0,1.6-156,1.8-348.4,1.8
					s-348.4-0.2-348.4-1.8c0-1.6,156-2.9,348.4-2.9S1253.8,1045.1,1253.8,1046.7z"/>
				<path opacity="0.7246" fill="#868788" enable-background="new    " d="M1253.3,1046.7c0,1.6-155.8,1.8-347.9,1.8
					s-347.9-0.2-347.9-1.8c0-1.6,155.8-2.8,347.9-2.8S1253.3,1045.1,1253.3,1046.7z"/>
				<path opacity="0.7305" fill="#858687" enable-background="new    " d="M1252.8,1046.7c0,1.5-155.6,1.8-347.4,1.8
					s-347.4-0.3-347.4-1.8s155.6-2.8,347.4-2.8S1252.8,1045.1,1252.8,1046.7z"/>
				<path opacity="0.7365" fill="#848586" enable-background="new    " d="M1252.4,1046.7c0,1.5-155.3,1.8-347,1.8s-347-0.3-347-1.8
					s155.3-2.8,347-2.8S1252.4,1045.2,1252.4,1046.7z"/>
				<path opacity="0.7425" fill="#838485" enable-background="new    " d="M1251.9,1046.7c0,1.5-155.1,1.8-346.5,1.8
					s-346.5-0.3-346.5-1.8s155.1-2.7,346.5-2.7S1251.9,1045.2,1251.9,1046.7z"/>
				<path opacity="0.7485" fill="#828384" enable-background="new    " d="M1251.4,1046.7c0,1.5-154.9,1.8-346,1.8s-346-0.3-346-1.8
					s154.9-2.7,346-2.7S1251.4,1045.2,1251.4,1046.7z"/>
				<path opacity="0.7545" fill="#818283" enable-background="new    " d="M1250.9,1046.7c0,1.5-154.7,1.8-345.5,1.8
					s-345.5-0.3-345.5-1.8s154.7-2.7,345.5-2.7S1250.9,1045.2,1250.9,1046.7z"/>
				<path opacity="0.7605" fill="#808182" enable-background="new    " d="M1250.5,1046.7c0,1.5-154.5,1.8-345.1,1.8
					s-345.1-0.3-345.1-1.8s154.5-2.7,345.1-2.7S1250.5,1045.2,1250.5,1046.7z"/>
				<path opacity="0.7665" fill="#7F8081" enable-background="new    " d="M1250,1046.7c0,1.5-154.3,1.8-344.6,1.8
					s-344.6-0.3-344.6-1.8c0-1.4,154.3-2.6,344.6-2.6S1250,1045.2,1250,1046.7z"/>
				<path opacity="0.7725" fill="#7E7F80" enable-background="new    " d="M1249.5,1046.7c0,1.4-154.1,1.7-344.1,1.7
					s-344.1-0.3-344.1-1.7c0-1.4,154.1-2.6,344.1-2.6S1249.5,1045.2,1249.5,1046.7z"/>
				<path opacity="0.7784" fill="#7D7E7F" enable-background="new    " d="M1249.1,1046.7c0,1.4-153.9,1.7-343.6,1.7
					s-343.6-0.3-343.6-1.7c0-1.4,153.9-2.6,343.6-2.6S1249.1,1045.3,1249.1,1046.7z"/>
				<path opacity="0.7844" fill="#7C7D7E" enable-background="new    " d="M1248.6,1046.7c0,1.4-153.6,1.7-343.2,1.7
					s-343.2-0.3-343.2-1.7c0-1.4,153.6-2.5,343.2-2.5S1248.6,1045.3,1248.6,1046.7z"/>
				<path opacity="0.7904" fill="#7B7C7D" enable-background="new    " d="M1248.1,1046.7c0,1.4-153.4,1.7-342.7,1.7
					s-342.7-0.3-342.7-1.7c0-1.4,153.4-2.5,342.7-2.5S1248.1,1045.3,1248.1,1046.7z"/>
				<path opacity="0.7964" fill="#7A7B7C" enable-background="new    " d="M1247.6,1046.7c0,1.4-153.2,1.7-342.2,1.7
					s-342.2-0.4-342.2-1.7c0-1.4,153.2-2.5,342.2-2.5S1247.6,1045.3,1247.6,1046.7z"/>
				<path opacity="0.8024" fill="#797A7B" enable-background="new    " d="M1247.2,1046.7c0,1.4-153,1.7-341.7,1.7
					s-341.7-0.4-341.7-1.7c0-1.4,153-2.4,341.7-2.4S1247.2,1045.3,1247.2,1046.7z"/>
				<path opacity="0.8084" fill="#78797A" enable-background="new    " d="M1246.7,1046.7c0,1.3-152.8,1.7-341.3,1.7
					s-341.3-0.4-341.3-1.7c0-1.3,152.8-2.4,341.3-2.4S1246.7,1045.3,1246.7,1046.7z"/>
				<path opacity="0.8144" fill="#77787A" enable-background="new    " d="M1246.2,1046.7c0,1.3-152.6,1.7-340.8,1.7
					s-340.8-0.4-340.8-1.7c0-1.3,152.6-2.4,340.8-2.4S1246.2,1045.3,1246.2,1046.7z"/>
				<path opacity="0.8204" fill="#767779" enable-background="new    " d="M1245.8,1046.7c0,1.3-152.4,1.7-340.3,1.7
					s-340.3-0.4-340.3-1.7c0-1.3,152.4-2.4,340.3-2.4S1245.8,1045.4,1245.8,1046.7z"/>
				<path opacity="0.8263" fill="#757678" enable-background="new    " d="M1245.3,1046.7c0,1.3-152.2,1.7-339.8,1.7
					s-339.8-0.4-339.8-1.7c0-1.3,152.2-2.3,339.8-2.3S1245.3,1045.4,1245.3,1046.7z"/>
				<path opacity="0.8323" fill="#747577" enable-background="new    " d="M1244.8,1046.7c0,1.3-151.9,1.7-339.4,1.7
					S566,1048,566,1046.7c0-1.3,151.9-2.3,339.4-2.3S1244.8,1045.4,1244.8,1046.7z"/>
				<path opacity="0.8383" fill="#737476" enable-background="new    " d="M1244.3,1046.6c0,1.3-151.7,1.7-338.9,1.7
					s-338.9-0.4-338.9-1.7c0-1.3,151.7-2.3,338.9-2.3S1244.3,1045.4,1244.3,1046.6z"/>
				<path opacity="0.8443" fill="#727375" enable-background="new    " d="M1243.9,1046.6c0,1.2-151.5,1.7-338.4,1.7
					s-338.4-0.4-338.4-1.7c0-1.2,151.5-2.2,338.4-2.2S1243.9,1045.4,1243.9,1046.6z"/>
				<path opacity="0.8503" fill="#717274" enable-background="new    " d="M1243.4,1046.6c0,1.2-151.3,1.6-337.9,1.6
					s-337.9-0.4-337.9-1.6s151.3-2.2,337.9-2.2S1243.4,1045.4,1243.4,1046.6z"/>
				<path opacity="0.8563" fill="#707173" enable-background="new    " d="M1242.9,1046.6c0,1.2-151.1,1.6-337.5,1.6
					s-337.5-0.4-337.5-1.6s151.1-2.2,337.5-2.2S1242.9,1045.4,1242.9,1046.6z"/>
				<path opacity="0.8623" fill="#6F7072" enable-background="new    " d="M1242.5,1046.6c0,1.2-150.9,1.6-337,1.6s-337-0.4-337-1.6
					s150.9-2.1,337-2.1S1242.5,1045.5,1242.5,1046.6z"/>
				<path opacity="0.8683" fill="#6E6F71" enable-background="new    " d="M1242,1046.6c0,1.2-150.7,1.6-336.5,1.6
					s-336.5-0.5-336.5-1.6c0-1.2,150.7-2.1,336.5-2.1S1242,1045.5,1242,1046.6z"/>
				<path opacity="0.8743" fill="#6D6E70" enable-background="new    " d="M1241.5,1046.6c0,1.2-150.4,1.6-336,1.6s-336-0.5-336-1.6
					c0-1.2,150.5-2.1,336-2.1S1241.5,1045.5,1241.5,1046.6z"/>
				<path opacity="0.8802" fill="#6C6D6F" enable-background="new    " d="M1241,1046.6c0,1.1-150.2,1.6-335.6,1.6
					s-335.6-0.5-335.6-1.6s150.2-2.1,335.6-2.1S1241,1045.5,1241,1046.6z"/>
				<path opacity="0.8862" fill="#6B6C6E" enable-background="new    " d="M1240.6,1046.6c0,1.1-150,1.6-335.1,1.6
					s-335.1-0.5-335.1-1.6s150-2,335.1-2S1240.6,1045.5,1240.6,1046.6z"/>
				<path opacity="0.8922" fill="#6A6B6D" enable-background="new    " d="M1240.1,1046.6c0,1.1-149.8,1.6-334.6,1.6
					s-334.6-0.5-334.6-1.6s149.8-2,334.6-2S1240.1,1045.5,1240.1,1046.6z"/>
				<path opacity="0.8982" fill="#696A6C" enable-background="new    " d="M1239.6,1046.6c0,1.1-149.6,1.6-334.1,1.6
					s-334.1-0.5-334.1-1.6s149.6-2,334.1-2S1239.6,1045.5,1239.6,1046.6z"/>
				<path opacity="0.9042" fill="#68696B" enable-background="new    " d="M1239.2,1046.6c0,1.1-149.4,1.6-333.7,1.6
					s-333.7-0.5-333.7-1.6s149.4-1.9,333.7-1.9S1239.2,1045.5,1239.2,1046.6z"/>
				<path opacity="0.9102" fill="#67686A" enable-background="new    " d="M1238.7,1046.6c0,1.1-149.2,1.6-333.2,1.6
					s-333.2-0.5-333.2-1.6s149.2-1.9,333.2-1.9S1238.7,1045.6,1238.7,1046.6z"/>
				<path opacity="0.9162" fill="#666769" enable-background="new    " d="M1238.2,1046.6c0,1-149,1.6-332.7,1.6
					s-332.7-0.5-332.7-1.6c0-1,149-1.9,332.7-1.9S1238.2,1045.6,1238.2,1046.6z"/>
				<path opacity="0.9222" fill="#656668" enable-background="new    " d="M1237.8,1046.6c0,1-148.7,1.6-332.2,1.6
					s-332.2-0.5-332.2-1.6c0-1,148.8-1.8,332.2-1.8S1237.8,1045.6,1237.8,1046.6z"/>
				<path opacity="0.9281" fill="#646567" enable-background="new    " d="M1237.3,1046.6c0,1-148.5,1.5-331.8,1.5
					s-331.8-0.5-331.8-1.5s148.5-1.8,331.8-1.8S1237.3,1045.6,1237.3,1046.6z"/>
				<path opacity="0.9341" fill="#636466" enable-background="new    " d="M1236.8,1046.6c0,1-148.3,1.5-331.3,1.5
					s-331.3-0.6-331.3-1.5c0-1,148.3-1.8,331.3-1.8S1236.8,1045.6,1236.8,1046.6z"/>
				<path opacity="0.9401" fill="#626365" enable-background="new    " d="M1236.3,1046.6c0,1-148.1,1.5-330.8,1.5
					s-330.8-0.6-330.8-1.5c0-1,148.1-1.8,330.8-1.8S1236.3,1045.6,1236.3,1046.6z"/>
				<path opacity="0.9461" fill="#616264" enable-background="new    " d="M1235.9,1046.6c0,1-147.9,1.5-330.3,1.5
					s-330.3-0.6-330.3-1.5c0-1,147.9-1.7,330.3-1.7S1235.9,1045.6,1235.9,1046.6z"/>
				<path opacity="0.9521" fill="#606163" enable-background="new    " d="M1235.4,1046.6c0,0.9-147.7,1.5-329.9,1.5
					s-329.9-0.6-329.9-1.5s147.7-1.7,329.9-1.7S1235.4,1045.7,1235.4,1046.6z"/>
				<path opacity="0.9581" fill="#5F6062" enable-background="new    " d="M1234.9,1046.6c0,0.9-147.5,1.5-329.4,1.5
					s-329.4-0.6-329.4-1.5s147.5-1.7,329.4-1.7S1234.9,1045.7,1234.9,1046.6z"/>
				<path opacity="0.9641" fill="#5E5F61" enable-background="new    " d="M1234.5,1046.6c0,0.9-147.3,1.5-328.9,1.5
					s-328.9-0.6-328.9-1.5s147.3-1.6,328.9-1.6S1234.5,1045.7,1234.5,1046.6z"/>
				<path opacity="0.9701" fill="#5D5E60" enable-background="new    " d="M1234,1046.6c0,0.9-147,1.5-328.4,1.5
					s-328.4-0.6-328.4-1.5s147-1.6,328.4-1.6S1234,1045.7,1234,1046.6z"/>
				<path opacity="0.976" fill="#5C5D5F" enable-background="new    " d="M1233.5,1046.6c0,0.9-146.8,1.5-328,1.5s-328-0.6-328-1.5
					s146.8-1.6,328-1.6S1233.5,1045.7,1233.5,1046.6z"/>
				<path opacity="0.982" fill="#5B5C5E" enable-background="new    " d="M1233,1046.6c0,0.9-146.6,1.5-327.5,1.5
					s-327.5-0.6-327.5-1.5s146.6-1.5,327.5-1.5S1233,1045.7,1233,1046.6z"/>
				<path opacity="0.988" fill="#5A5B5D" enable-background="new    " d="M1232.6,1046.6c0,0.8-146.4,1.5-327,1.5s-327-0.6-327-1.5
					c0-0.8,146.4-1.5,327-1.5S1232.6,1045.7,1232.6,1046.6z"/>
				<path opacity="0.994" fill="#595A5C" enable-background="new    " d="M1232.1,1046.6c0,0.8-146.2,1.5-326.5,1.5
					s-326.5-0.6-326.5-1.5c0-0.8,146.2-1.5,326.5-1.5S1232.1,1045.8,1232.1,1046.6z"/>
				<ellipse fill="#333333" cx="905.6" cy="1046.6" rx="326.1" ry="1.5"/>
			</g>
			<g>
				
					<linearGradient id="SVGID_5_" gradientUnits="userSpaceOnUse" x1="1166.1904" y1="112.2667" x2="642.2346" y2="636.2225" gradientTransform="matrix(1 0 0 -1 0 1200)">
					<stop  offset="0" style="stop-color:#EDEDED"/>
					<stop  offset="1" style="stop-color:#EDEDED"/>
				</linearGradient>
				<path fill="url(#SVGID_5_)" d="M1200.8,1040.2H607.6c-11.9,0-21.5-2.9-21.5-14.8V628.9c0-11.9,9.7-21.7,21.5-21.7h593.2
					c11.9,0,21.5,9.7,21.5,21.7v396.4C1222.3,1037.3,1212.7,1040.2,1200.8,1040.2L1200.8,1040.2z"/>
				<g>
					
						<linearGradient id="SVGID_6_" gradientUnits="userSpaceOnUse" x1="903.2" y1="152.7278" x2="903.2" y2="163.8435" gradientTransform="matrix(1 0 0 -1 0 1200)">
						<stop  offset="0" style="stop-color:#E6E6E6"/>
						<stop  offset="0.5026" style="stop-color:#EBEBEB"/>
						<stop  offset="1" style="stop-color:#F0F0F0"/>
					</linearGradient>
					<path fill="url(#SVGID_6_)" d="M1295.6,1036.2H510.8c0,0,42.2,10.3,80.7,10.3c14.2,0,30,0.7,44.9,0.8l0,0H1170l0,0
						c14.9-0.1,30.7-0.8,44.9-0.8C1253.4,1046.5,1295.6,1036.2,1295.6,1036.2L1295.6,1036.2L1295.6,1036.2z"/>
				</g>
				<g>
					
						<linearGradient id="SVGID_7_" gradientUnits="userSpaceOnUse" x1="510.5" y1="164.7" x2="1295.9" y2="164.7" gradientTransform="matrix(1 0 0 -1 0 1200)">
						<stop  offset="0" style="stop-color:#E3E1ED"/>
						<stop  offset="1.648350e-02" style="stop-color:#F2F2F2"/>
						<stop  offset="0.2363" style="stop-color:#FAFAFA"/>
						<stop  offset="0.7582" style="stop-color:#FAFAFA"/>
						<stop  offset="0.989" style="stop-color:#F0F0F2"/>
						<stop  offset="1" style="stop-color:#E3E1ED"/>
					</linearGradient>
					<path fill="url(#SVGID_7_)" d="M1295.9,1035.9c0,0.2-0.1,0.3-0.3,0.3H510.8c-0.2,0-0.3-0.1-0.3-0.3v-1.2c0-0.2,0.1-0.3,0.3-0.3
						h784.8c0.2,0,0.3,0.1,0.3,0.3V1035.9z"/>
				</g>
				
					<linearGradient id="SVGID_8_" gradientUnits="userSpaceOnUse" x1="828.3" y1="163.7999" x2="978.5" y2="163.7999" gradientTransform="matrix(1 0 0 -1 0 1200)">
					<stop  offset="0" style="stop-color:#C9CACC"/>
					<stop  offset="3.840700e-02" style="stop-color:#DDDEE0"/>
					<stop  offset="0.2426" style="stop-color:#E6E8E8"/>
					<stop  offset="0.7353" style="stop-color:#E5E5E6"/>
					<stop  offset="0.9565" style="stop-color:#DEDEE0"/>
					<stop  offset="1" style="stop-color:#C6C8CC"/>
				</linearGradient>
				<path opacity="0.75" fill="url(#SVGID_8_)" enable-background="new    " d="M828.3,1034.4v1.8c0,0,2.9,1.7,27.5,1.8
					c0,0,0,0-0.1,0h96.1c25.9,0,26.7-1.8,26.7-1.8v-1.8H828.3z"/>
				<g>
					<circle fill="#E3E3E3" cx="904.5" cy="623.6" r="2.5"/>
				</g>
			</g>
		</g>
		<g>
			<g>
				<g>
					<polygon fill="#F5F5F5" points="967.7,144.2 773.2,144.2 773.2,462.1 1024.4,462.1 1024.4,200.9 					"/>
					<polygon fill="#D4D4D4" points="967.7,200.9 967.7,144.2 1024.4,200.9 					"/>
					<polyline fill="#C7C7C7" points="884.8,398.4 884.8,402.7 814.5,402.7 814.5,398.4 					"/>
					<polyline fill="#C7C7C7" points="891.7,371.1 891.7,375.4 814.5,375.4 814.5,371.1 					"/>
					<polyline fill="#C7C7C7" points="875.6,343.8 875.6,348.1 814.5,348.1 814.5,343.8 					"/>
					<polyline fill="#C7C7C7" points="884.8,316.5 884.8,320.8 814.5,320.8 814.5,316.5 					"/>
					<polyline fill="#C7C7C7" points="891.7,289.2 891.7,293.5 814.5,293.5 814.5,289.2 					"/>
					<polyline fill="#C7C7C7" points="866,261.9 866,266.2 814.5,266.2 814.5,261.9 					"/>
					<polyline fill="#C7C7C7" points="980.2,398.4 980.2,402.7 909.9,402.7 909.9,398.4 					"/>
					<polyline fill="#C7C7C7" points="987.1,371.1 987.1,375.4 909.9,375.4 909.9,371.1 					"/>
					<polyline fill="#C7C7C7" points="971,343.8 971,348.1 909.9,348.1 909.9,343.8 					"/>
					<polyline fill="#C7C7C7" points="980.2,316.5 980.2,320.8 909.9,320.8 909.9,316.5 					"/>
					<polyline fill="#C7C7C7" points="987.1,289.2 987.1,293.5 909.9,293.5 909.9,289.2 					"/>
					<polyline fill="#C7C7C7" points="961.4,261.9 961.4,266.2 909.9,266.2 909.9,261.9 					"/>
					<g opacity="0.6">
						<rect x="813.7" y="219.4" fill="none" width="190.9" height="41.6"/>
						
							<text transform="matrix(1 0 0 1 813.6524 238.2038)" opacity="0.6" fill="#283040" enable-background="new    " font-family="'Gotham-Book'" font-size="25.7264">300 5th Ave</text>
					</g>
				</g>
			</g>
		</g>
		<g>
			<line fill="none" x1="907" y1="495.6" x2="907" y2="674.7"/>
			<g>
				
					<line fill="none" stroke="#228CFF" stroke-width="2.1439" stroke-linecap="round" stroke-linejoin="round" x1="907" y1="495.6" x2="907" y2="496.7"/>
				
					<line fill="none" stroke="#228CFF" stroke-width="2.1439" stroke-linecap="round" stroke-linejoin="round" stroke-dasharray="2.1057,8.4227" x1="907" y1="505.1" x2="907" y2="669.4"/>
				
					<line fill="none" stroke="#228CFF" stroke-width="2.1439" stroke-linecap="round" stroke-linejoin="round" x1="907" y1="673.6" x2="907" y2="674.7"/>
			</g>
		</g>
		<g>
			<g>
				
					<line fill="none" stroke="#228CFF" stroke-width="2.1439" stroke-linecap="round" stroke-linejoin="round" x1="649.9" y1="675.3" x2="649.1" y2="674.5"/>
				
					<line fill="none" stroke="#228CFF" stroke-width="2.1439" stroke-linecap="round" stroke-linejoin="round" stroke-dasharray="2.1095,8.438" x1="643.2" y1="668.6" x2="526.8" y2="552.2"/>
				
					<line fill="none" stroke="#228CFF" stroke-width="2.1439" stroke-linecap="round" stroke-linejoin="round" x1="523.8" y1="549.2" x2="523.1" y2="548.5"/>
			</g>
		</g>
		<g>
			<g>
				<g>
					<polygon fill="#F5F5F5" points="1480.3,227.5 1285.8,227.5 1285.8,545.4 1537,545.4 1537,284.2 					"/>
					<polygon fill="#D4D4D4" points="1480.3,284.2 1480.3,227.5 1537,284.2 					"/>
					<polyline fill="#C7C7C7" points="1397.3,481.7 1397.3,486 1327,486 1327,481.7 					"/>
					<polyline fill="#C7C7C7" points="1404.2,454.4 1404.2,458.7 1327,458.7 1327,454.4 					"/>
					<polyline fill="#C7C7C7" points="1388.1,427.1 1388.1,431.4 1327,431.4 1327,427.1 					"/>
					<polyline fill="#C7C7C7" points="1397.3,399.8 1397.3,404.1 1327,404.1 1327,399.8 					"/>
					<polyline fill="#C7C7C7" points="1404.2,372.6 1404.2,376.8 1327,376.8 1327,372.6 					"/>
					<polyline fill="#C7C7C7" points="1378.5,345.3 1378.5,349.6 1327,349.6 1327,345.3 					"/>
					<polyline fill="#C7C7C7" points="1492.7,481.7 1492.7,486 1422.4,486 1422.4,481.7 					"/>
					<polyline fill="#C7C7C7" points="1499.6,454.4 1499.6,458.7 1422.4,458.7 1422.4,454.4 					"/>
					<polyline fill="#C7C7C7" points="1483.6,427.1 1483.6,431.4 1422.4,431.4 1422.4,427.1 					"/>
					<polyline fill="#C7C7C7" points="1492.7,399.8 1492.7,404.1 1422.4,404.1 1422.4,399.8 					"/>
					<polyline fill="#C7C7C7" points="1499.6,372.6 1499.6,376.8 1422.4,376.8 1422.4,372.6 					"/>
					<polyline fill="#C7C7C7" points="1473.9,345.3 1473.9,349.6 1422.4,349.6 1422.4,345.3 					"/>
					<g opacity="0.6">
						<rect x="1326.2" y="302.8" fill="none" width="190.9" height="41.6"/>
						
							<text transform="matrix(1 0 0 1 1326.1602 321.5339)" opacity="0.6" fill="#283040" enable-background="new    " font-family="'Gotham-Book'" font-size="25.7264">300 5th Ave</text>
					</g>
				</g>
			</g>
		</g>
		<g>
			<g>
				
					<line fill="none" stroke="#228CFF" stroke-width="2.1439" stroke-linecap="round" stroke-linejoin="round" x1="1153.2" y1="681" x2="1153.9" y2="680.3"/>
				
					<line fill="none" stroke="#228CFF" stroke-width="2.1439" stroke-linecap="round" stroke-linejoin="round" stroke-dasharray="2.1095,8.438" x1="1159.9" y1="674.3" x2="1276.3" y2="558"/>
				
					<line fill="none" stroke="#228CFF" stroke-width="2.1439" stroke-linecap="round" stroke-linejoin="round" x1="1279.2" y1="555" x2="1280" y2="554.2"/>
			</g>
		</g>
		<g>
			<g>
				
					<line fill="none" stroke="#228CFF" stroke-width="2.1439" stroke-linecap="round" stroke-linejoin="round" x1="378.8" y1="826.4" x2="379.9" y2="826.4"/>
				
					<line fill="none" stroke="#228CFF" stroke-width="2.1439" stroke-linecap="round" stroke-linejoin="round" stroke-dasharray="2.1329,8.5317" x1="388.4" y1="826.4" x2="682.7" y2="826.4"/>
				
					<line fill="none" stroke="#228CFF" stroke-width="2.1439" stroke-linecap="round" stroke-linejoin="round" x1="687" y1="826.4" x2="688.1" y2="826.4"/>
			</g>
		</g>
		<g>
			<g>
				<polygon fill="#F5F5F5" points="1652,648.9 1457.5,648.9 1457.5,966.9 1708.7,966.9 1708.7,705.6 				"/>
				<polygon fill="#D4D4D4" points="1652,705.6 1652,648.9 1708.7,705.6 				"/>
				<polyline fill="#C7C7C7" points="1569,903.1 1569,907.4 1498.8,907.4 1498.8,903.1 				"/>
				<polyline fill="#C7C7C7" points="1576,875.9 1576,880.1 1498.8,880.1 1498.8,875.9 				"/>
				<polyline fill="#C7C7C7" points="1559.9,848.6 1559.9,852.9 1498.8,852.9 1498.8,848.6 				"/>
				<polyline fill="#C7C7C7" points="1569,821.3 1569,825.6 1498.8,825.6 1498.8,821.3 				"/>
				<polyline fill="#C7C7C7" points="1576,794 1576,798.3 1498.8,798.3 1498.8,794 				"/>
				<polyline fill="#C7C7C7" points="1550.3,766.7 1550.3,771 1498.8,771 1498.8,766.7 				"/>
				<polyline fill="#C7C7C7" points="1664.4,903.1 1664.4,907.4 1594.2,907.4 1594.2,903.1 				"/>
				<polyline fill="#C7C7C7" points="1671.4,875.9 1671.4,880.1 1594.2,880.1 1594.2,875.9 				"/>
				<polyline fill="#C7C7C7" points="1655.3,848.6 1655.3,852.9 1594.2,852.9 1594.2,848.6 				"/>
				<polyline fill="#C7C7C7" points="1664.4,821.3 1664.4,825.6 1594.2,825.6 1594.2,821.3 				"/>
				<polyline fill="#C7C7C7" points="1671.4,794 1671.4,798.3 1594.2,798.3 1594.2,794 				"/>
				<polyline fill="#C7C7C7" points="1645.7,766.7 1645.7,771 1594.2,771 1594.2,766.7 				"/>
				<g opacity="0.6">
					<rect x="1497.9" y="724.2" fill="none" width="190.9" height="41.6"/>
					
						<text transform="matrix(1 0 0 1 1497.9326 742.9797)" opacity="0.6" fill="#283040" enable-background="new    " font-family="'Gotham-Book'" font-size="25.7264">100 5th Ave</text>
				</g>
			</g>
		</g>
		<g>
			<g>
				
					<line fill="none" stroke="#228CFF" stroke-width="2.1439" stroke-linecap="round" stroke-linejoin="round" x1="1188.2" y1="826.4" x2="1189.3" y2="826.4"/>
				
					<line fill="none" stroke="#228CFF" stroke-width="2.1439" stroke-linecap="round" stroke-linejoin="round" stroke-dasharray="2.1478,8.5913" x1="1197.9" y1="826.4" x2="1494.3" y2="826.4"/>
				
					<line fill="none" stroke="#228CFF" stroke-width="2.1439" stroke-linecap="round" stroke-linejoin="round" x1="1498.6" y1="826.4" x2="1499.6" y2="826.4"/>
			</g>
		</g>
		<rect x="613" y="637.8" fill="#228CFF" width="582.5" height="373.7"/>
		<g>
			<g>
				<path fill="#FFFFFF" d="M493.9,569.1c-31.4,0-56.9-25.5-56.9-56.9s25.5-56.9,56.9-56.9s56.9,25.5,56.9,56.9
					S525.3,569.1,493.9,569.1z"/>
				<g>
					<path fill="#228CFF" d="M493.9,456.3c30.8,0,55.9,25.1,55.9,55.9s-25.1,55.9-55.9,55.9S438,543,438,512.2
						S463.1,456.3,493.9,456.3 M493.9,454.2c-32,0-58,26-58,58s26,58,58,58s58-26,58-58S526,454.2,493.9,454.2L493.9,454.2z"/>
				</g>
			</g>
			<g>
				<g>
					<defs>
						<circle id="SVGID_9_" cx="493.9" cy="512.2" r="58"/>
					</defs>
					<clipPath id="SVGID_10_">
						<use xlink:href="#SVGID_9_"  overflow="visible"/>
					</clipPath>
					<g clip-path="url(#SVGID_10_)">
						<path fill="#228CFF" d="M528.4,567.8c-0.2-0.4-0.6-1.8-1.3-4.2c-0.6-2.4-1.5-5.3-2.5-8.8s-2.2-7.3-3.3-11.3
							c-1.1-4.1-2.2-8-3.3-11.8c-1-2.9-2.9-5.5-5.4-7.8c-2.6-2.4-5.6-3.4-8.6-3.4h-19.6c-2.9,0-5.7,1.1-8.4,3.4
							c-2.7,2.3-4.5,4.9-5.3,7.8c-1.4,3.8-2.5,7.7-3.7,11.8s-2.3,7.8-3.3,11.3c-1,3.4-1.9,6.4-2.5,8.8c-0.6,2.4-1,3.8-1.2,4.2
							c-0.2,0.5-0.3,1-0.3,1.5c0,2.1,1.1,3.6,3.4,4.5l1.3,0.3c2.5,0,4.1-1.2,4.8-3.5c0.1-0.8,0.9-3.1,2.1-6.7
							c1-3.7,2.2-7.5,3.3-11.5c1.2-4,2.7-9.1,4.6-15.4h2.9l-16.7,56.3h16V636c0,1.7,0.6,3.1,1.7,4.1c1.1,1.1,2.6,1.6,4.2,1.6
							c1.7,0,3-0.5,4.1-1.6c1-1,1.6-2.4,1.6-4.1v-42.7h2.9V636c0,1.7,0.5,3.1,1.5,4.1c1.1,1.1,2.4,1.6,4.1,1.6s3-0.5,4.1-1.6
							c1.3-1,1.8-2.4,1.8-4.1v-42.7H523L506.4,537h2.9c1.8,6.3,3.3,11.4,4.6,15.4s2.4,7.8,3.5,11.5c0.9,3.6,1.7,5.9,1.8,6.7
							c0.6,2.4,2.2,3.5,4.8,3.5l1.2-0.3c2.3-0.7,3.5-2.2,3.5-4.7L528.4,567.8z"/>
						<path fill="#228CFF" d="M486,512.8c0.1,0.1,0.1,0.1,0.2,0.2c2.3,2.1,5,3.1,8.3,3.1c3.1,0,5.7-1,7.8-3.1
							c0.1-0.1,0.1-0.1,0.1-0.2c5.7-1,9-3.2,10.3-7.5c-2,0.2-6-2.2-6.4-4.5c0-0.1,0-0.1,0-0.1V500c0-6.6-5.4-12-11.9-12
							c-6.7,0-12.1,5.4-12.1,12v0.7c0,0,0,0,0,0.1c-0.4,2.3-4.5,4.7-6.4,4.5C477,509.7,480.4,511.8,486,512.8z"/>
					</g>
				</g>
			</g>
		</g>
		<g>
			<g>
				<path fill="#FFFFFF" d="M1312.9,563.4c-31.4,0-56.9-25.5-56.9-56.9s25.5-56.9,56.9-56.9s56.9,25.5,56.9,56.9
					S1344.3,563.4,1312.9,563.4z"/>
				<g>
					<path fill="#228CFF" d="M1312.9,450.6c30.8,0,55.9,25.1,55.9,55.9s-25.1,55.9-55.9,55.9s-55.9-25.1-55.9-55.9
						S1282.1,450.6,1312.9,450.6 M1312.9,448.5c-32,0-58,26-58,58s26,58,58,58s58-26,58-58S1344.9,448.5,1312.9,448.5L1312.9,448.5z
						"/>
				</g>
			</g>
			<g>
				<g>
					<defs>
						<circle id="SVGID_11_" cx="1312.9" cy="506.5" r="58"/>
					</defs>
					<clipPath id="SVGID_12_">
						<use xlink:href="#SVGID_11_"  overflow="visible"/>
					</clipPath>
					<g clip-path="url(#SVGID_12_)">
						<path fill="#228CFF" d="M1347.3,562.1c-0.2-0.4-0.6-1.8-1.3-4.2c-0.6-2.4-1.5-5.3-2.5-8.8s-2.2-7.3-3.3-11.3
							c-1.1-4.1-2.2-8-3.3-11.8c-1-2.9-2.9-5.5-5.4-7.8c-2.6-2.4-5.6-3.4-8.6-3.4h-19.6c-2.9,0-5.7,1.1-8.4,3.4
							c-2.7,2.3-4.5,4.9-5.3,7.8c-1.4,3.8-2.5,7.7-3.7,11.8s-2.3,7.8-3.3,11.3c-1,3.4-1.9,6.4-2.5,8.8c-0.6,2.4-1,3.8-1.2,4.2
							c-0.2,0.5-0.3,1-0.3,1.5c0,2.1,1.1,3.6,3.4,4.5l1.3,0.3c2.5,0,4.1-1.2,4.8-3.5c0.1-0.8,0.9-3.1,2.1-6.7
							c1-3.7,2.2-7.5,3.3-11.5c1.2-4,2.7-9.1,4.6-15.4h2.9l-16.7,56.3h16v42.7c0,1.7,0.6,3.1,1.7,4.1c1.1,1.1,2.6,1.6,4.2,1.6
							c1.7,0,3-0.5,4.1-1.6c1-1,1.6-2.4,1.6-4.1v-42.7h2.9v42.7c0,1.7,0.5,3.1,1.5,4.1c1.1,1.1,2.4,1.6,4.1,1.6s3-0.5,4.1-1.6
							c1.3-1,1.8-2.4,1.8-4.1v-42.7h15.8l-16.6-56.3h2.9c1.8,6.3,3.3,11.4,4.6,15.4c1.3,4,2.4,7.8,3.5,11.5c0.9,3.6,1.7,5.9,1.8,6.7
							c0.6,2.4,2.2,3.5,4.8,3.5l1.2-0.3c2.3-0.7,3.5-2.2,3.5-4.7L1347.3,562.1z"/>
						<path fill="#228CFF" d="M1304.9,507.1c0.1,0.1,0.1,0.1,0.2,0.2c2.3,2.1,5,3.1,8.3,3.1c3.1,0,5.7-1,7.8-3.1
							c0.1-0.1,0.1-0.1,0.1-0.2c5.7-1,9-3.2,10.3-7.5c-2,0.2-6-2.2-6.4-4.5c0-0.1,0-0.1,0-0.1v-0.7c0-6.6-5.4-12-11.9-12
							c-6.7,0-12.1,5.4-12.1,12v0.7c0,0,0,0,0,0.1c-0.4,2.3-4.5,4.7-6.4,4.5C1296,503.9,1299.3,506.1,1304.9,507.1z"/>
					</g>
				</g>
			</g>
		</g>
		<g>
			<g>
				<g>
					<path fill="#FFFFFF" d="M907,494.9c-31.4,0-56.9-25.5-56.9-56.9s25.5-57,56.9-57s56.9,25.5,56.9,56.9S938.4,494.9,907,494.9z"
						/>
					<g>
						<path fill="#228CFF" d="M907,382.1c30.8,0,55.9,25.1,55.9,55.9s-25.1,55.9-55.9,55.9s-55.9-25.1-55.9-55.9
							S876.2,382.1,907,382.1 M907,379.9c-32,0-58,26-58,58s26,58,58,58s58-26,58-58S939,379.9,907,379.9L907,379.9z"/>
					</g>
				</g>
			</g>
			<g>
				<g>
					<defs>
						<circle id="SVGID_13_" cx="907" cy="437.9" r="58"/>
					</defs>
					<clipPath id="SVGID_14_">
						<use xlink:href="#SVGID_13_"  overflow="visible"/>
					</clipPath>
					<path clip-path="url(#SVGID_14_)" fill="#228CFF" d="M932.4,450.2c-3.2-4.4-19.7-5.5-19.7-5.5l-5.7,16.5l-5.7-16.5
						c0,0-16.5,1.1-19.7,5.5v57.7h9.8l6.2,66.9h9.4h9.4l6.2-66.9h9.8V450.2L932.4,450.2z"/>
				</g>
				<g>
					<defs>
						<circle id="SVGID_15_" cx="907" cy="437.9" r="58"/>
					</defs>
					<clipPath id="SVGID_16_">
						<use xlink:href="#SVGID_15_"  overflow="visible"/>
					</clipPath>
					<path clip-path="url(#SVGID_16_)" fill="#228CFF" d="M906.9,441c-7.1,0-12.9-5.8-12.9-12.9s5.8-12.9,12.9-12.9
						c7.2,0,12.9,5.8,12.9,12.9C919.9,435.2,914.1,441,906.9,441z"/>
				</g>
			</g>
		</g>
		<g>
			<g>
				<g>
					<path fill="#FFFFFF" d="M1479.2,883.4c-31.4,0-56.9-25.5-56.9-56.9c0-31.4,25.5-57,56.9-57s56.9,25.5,56.9,56.9
						S1510.6,883.4,1479.2,883.4z"/>
					<g>
						<path fill="#228CFF" d="M1479.2,770.6c30.8,0,55.9,25.1,55.9,55.9c0,30.8-25.1,55.9-55.9,55.9s-55.9-25.1-55.9-55.9
							C1423.3,795.7,1448.4,770.6,1479.2,770.6 M1479.2,768.4c-32,0-58,26-58,58s26,58,58,58s58-26,58-58S1511.2,768.4,1479.2,768.4
							L1479.2,768.4z"/>
					</g>
				</g>
			</g>
			<g>
				<g>
					<defs>
						<circle id="SVGID_17_" cx="1479.2" cy="826.4" r="58"/>
					</defs>
					<clipPath id="SVGID_18_">
						<use xlink:href="#SVGID_17_"  overflow="visible"/>
					</clipPath>
					<path clip-path="url(#SVGID_18_)" fill="#228CFF" d="M1504.6,838.7c-3.2-4.4-19.7-5.5-19.7-5.5l-5.7,16.5l-5.7-16.5
						c0,0-16.5,1.1-19.7,5.5v57.7h9.8l6.2,66.9h9.4h9.4l6.2-66.9h9.8V838.7L1504.6,838.7z"/>
				</g>
				<g>
					<defs>
						<circle id="SVGID_19_" cx="1479.2" cy="826.4" r="58"/>
					</defs>
					<clipPath id="SVGID_20_">
						<use xlink:href="#SVGID_19_"  overflow="visible"/>
					</clipPath>
					<path clip-path="url(#SVGID_20_)" fill="#228CFF" d="M1479.1,829.5c-7.1,0-12.9-5.8-12.9-12.9s5.8-12.9,12.9-12.9
						c7.2,0,12.9,5.8,12.9,12.9C1492.1,823.7,1486.3,829.5,1479.1,829.5z"/>
				</g>
			</g>
		</g>
	</g>
	<g>
		<g>
			<polygon fill="none" stroke="#FFFFFF" stroke-width="2.1439" stroke-miterlimit="10" points="785.6,757.2 702.6,757.2 
				702.6,892.9 809.8,892.9 809.8,781.4 			"/>
			<polygon opacity="0.5" fill="#FFFFFF" enable-background="new    " points="785.6,781.4 785.6,757.2 809.8,781.4 			"/>
			<polyline fill="#FFFFFF" points="784.7,864.6 784.7,866.4 722.6,866.4 722.6,864.6 			"/>
			<polyline fill="#FFFFFF" points="790.9,853 790.9,854.8 722.6,854.8 722.6,853 			"/>
			<polyline fill="#FFFFFF" points="782.8,841.3 782.8,843.2 722.6,843.2 722.6,841.3 			"/>
			<polyline fill="#FFFFFF" points="784.7,829.7 784.7,831.5 722.6,831.5 722.6,829.7 			"/>
			<polyline fill="#FFFFFF" points="790.9,818 790.9,819.9 722.6,819.9 722.6,818 			"/>
			<polyline fill="#FFFFFF" points="782.8,806.4 782.8,808.2 722.6,808.2 722.6,806.4 			"/>
			<polyline fill="#FFFFFF" points="786.3,793 786.3,794.9 722.6,794.9 722.6,793 			"/>
		</g>
	</g>
	<g>
		<g>
			<polygon fill="none" stroke="#FFFFFF" stroke-width="2.1439" stroke-miterlimit="10" points="1078,757.2 995,757.2 995,892.9 
				1102.2,892.9 1102.2,781.4 			"/>
			<polygon opacity="0.5" fill="#FFFFFF" enable-background="new    " points="1078,781.4 1078,757.2 1102.2,781.4 			"/>
			<polyline fill="#FFFFFF" points="1077.2,864.6 1077.2,866.4 1015.1,866.4 1015.1,864.6 			"/>
			<polyline fill="#FFFFFF" points="1083.3,853 1083.3,854.8 1015.1,854.8 1015.1,853 			"/>
			<polyline fill="#FFFFFF" points="1075.2,841.3 1075.2,843.2 1015.1,843.2 1015.1,841.3 			"/>
			<polyline fill="#FFFFFF" points="1077.2,829.7 1077.2,831.5 1015.1,831.5 1015.1,829.7 			"/>
			<polyline fill="#FFFFFF" points="1083.3,818 1083.3,819.9 1015.1,819.9 1015.1,818 			"/>
			<polyline fill="#FFFFFF" points="1075.2,806.4 1075.2,808.2 1015.1,808.2 1015.1,806.4 			"/>
			<polyline fill="#FFFFFF" points="1078.8,793 1078.8,794.9 1015.1,794.9 1015.1,793 			"/>
		</g>
	</g>
	
		<text transform="matrix(1 0 0 1 877.2813 832.6262)" opacity="0.7" fill="#FFFFFF" enable-background="new    " font-family="'Gotham-Medium'" font-size="19.5484" letter-spacing="1">FOR</text>
	
		<text transform="matrix(1 0 0 1 855.9395 795.756)" fill="#FFFFFF" font-family="'Gotham-Medium'" font-size="34.2641" letter-spacing="3">ONE</text>
	
		<text transform="matrix(1 0 0 1 855.9395 879.2863)" fill="#FFFFFF" font-family="'Gotham-Medium'" font-size="34.2641" letter-spacing="3">ONE</text>
</g>
</svg>
