<!-- Generator: Adobe Illustrator 17.1.0, SVG Export Plug-In  -->
<svg version="1.1"
	 xmlns="http://www.w3.org/2000/svg" xmlns:xlink="http://www.w3.org/1999/xlink" xmlns:a="http://ns.adobe.com/AdobeSVGViewerExtensions/3.0/"
	 x="0px" y="0px" width="951.8px" height="526.8px" viewBox="0 0 951.8 526.8" enable-background="new 0 0 951.8 526.8"
	 xml:space="preserve">
<defs>
</defs>
<g>
	<g opacity="0.7">
		<path opacity="0.1" fill="#FFFFFF" d="M951.8,523.5c0,4.2-213.1,3.2-475.9,3.2c-262.8,0-475.9,1-475.9-3.2
			c0-4.2,213.1-7.6,475.9-7.6C738.7,515.9,951.8,519.3,951.8,523.5z"/>
		<path opacity="0.1054" fill="#FEFEFE" d="M951.2,523.5c0,4.2-212.8,3.2-475.3,3.2c-262.5,0-475.3,1-475.3-3.2
			c0-4.2,212.8-7.6,475.3-7.6C738.4,515.9,951.2,519.3,951.2,523.5z"/>
		<path opacity="0.1108" fill="#FDFDFD" d="M950.7,523.5c0,4.2-212.6,3.2-474.8,3.2c-262.2,0-474.8,0.9-474.8-3.2
			c0-4.2,212.6-7.5,474.8-7.5C738.1,515.9,950.7,519.3,950.7,523.5z"/>
		<path opacity="0.1162" fill="#FCFCFC" d="M950.1,523.5c0,4.1-212.3,3.2-474.2,3.2c-261.9,0-474.2,0.9-474.2-3.2
			c0-4.1,212.3-7.5,474.2-7.5C737.8,516,950.1,519.3,950.1,523.5z"/>
		<path opacity="0.1216" fill="#FBFBFB" d="M949.6,523.5c0,4.1-212.1,3.2-473.7,3.2c-261.6,0-473.7,0.9-473.7-3.2
			c0-4.1,212.1-7.4,473.7-7.4C737.5,516,949.6,519.3,949.6,523.5z"/>
		<path opacity="0.1269" fill="#FAFAFA" d="M949,523.4c0,4.1-211.8,3.2-473.1,3.2c-261.3,0-473.1,0.9-473.1-3.2
			c0-4.1,211.8-7.4,473.1-7.4C737.2,516,949,519.4,949,523.4z"/>
		<path opacity="0.1323" fill="#F9F9F9" d="M948.5,523.4c0,4.1-211.6,3.2-472.6,3.2c-261,0-472.6,0.9-472.6-3.2
			c0-4.1,211.6-7.4,472.6-7.4C736.9,516.1,948.5,519.4,948.5,523.4z"/>
		<path opacity="0.1377" fill="#F8F8F8" d="M947.9,523.4c0,4.1-211.3,3.2-472,3.2c-260.7,0-472,0.9-472-3.2c0-4.1,211.3-7.3,472-7.3
			C736.6,516.1,947.9,519.4,947.9,523.4z"/>
		<path opacity="0.1431" fill="#F7F7F7" d="M947.4,523.4c0,4-211.1,3.2-471.4,3.2c-260.4,0-471.4,0.9-471.4-3.2
			c0-4,211.1-7.3,471.4-7.3C736.3,516.1,947.4,519.4,947.4,523.4z"/>
		<path opacity="0.1485" fill="#F6F6F6" d="M946.8,523.4c0,4-210.8,3.1-470.9,3.1c-260.1,0-470.9,0.9-470.9-3.1
			c0-4,210.8-7.3,470.9-7.3C736,516.2,946.8,519.4,946.8,523.4z"/>
		<path opacity="0.1539" fill="#F5F5F5" d="M946.3,523.4c0,4-210.6,3.1-470.3,3.1c-259.8,0-470.3,0.9-470.3-3.1
			c0-4,210.6-7.2,470.3-7.2C735.7,516.2,946.3,519.4,946.3,523.4z"/>
		<path opacity="0.1593" fill="#F4F4F4" d="M945.7,523.4c0,4-210.3,3.1-469.8,3.1c-259.4,0-469.8,0.9-469.8-3.1
			c0-4,210.3-7.2,469.8-7.2C735.4,516.2,945.7,519.4,945.7,523.4z"/>
		<path opacity="0.1647" fill="#F3F3F3" d="M945.2,523.4c0,4-210.1,3.1-469.2,3.1c-259.1,0-469.2,0.8-469.2-3.1
			c0-4,210.1-7.2,469.2-7.2C735.1,516.3,945.2,519.5,945.2,523.4z"/>
		<path opacity="0.1701" fill="#F2F2F2" d="M944.6,523.4c0,3.9-209.8,3.1-468.7,3.1c-258.8,0-468.7,0.8-468.7-3.1
			c0-3.9,209.8-7.1,468.7-7.1C734.8,516.3,944.6,519.5,944.6,523.4z"/>
		<path opacity="0.1754" fill="#F1F1F1" d="M944.1,523.4c0,3.9-209.6,3.1-468.1,3.1c-258.5,0-468.1,0.8-468.1-3.1
			c0-3.9,209.6-7.1,468.1-7.1C734.5,516.3,944.1,519.5,944.1,523.4z"/>
		<path opacity="0.1808" fill="#F0F0F0" d="M943.5,523.4c0,3.9-209.3,3.1-467.5,3.1c-258.2,0-467.5,0.8-467.5-3.1
			c0-3.9,209.3-7.1,467.5-7.1C734.2,516.4,943.5,519.5,943.5,523.4z"/>
		<path opacity="0.1862" fill="#EFEFEF" d="M943,523.4c0,3.9-209.1,3.1-467,3.1c-257.9,0-467,0.8-467-3.1c0-3.9,209.1-7,467-7
			C733.9,516.4,943,519.5,943,523.4z"/>
		<path opacity="0.1916" fill="#EEEEEE" d="M942.4,523.4c0,3.9-208.8,3.1-466.4,3.1c-257.6,0-466.4,0.8-466.4-3.1
			c0-3.9,208.8-7,466.4-7C733.6,516.4,942.4,519.5,942.4,523.4z"/>
		<path opacity="0.197" fill="#EDEDED" d="M941.8,523.4c0,3.8-208.6,3.1-465.9,3.1c-257.3,0-465.9,0.8-465.9-3.1
			c0-3.8,208.6-7,465.9-7C733.3,516.4,941.8,519.6,941.8,523.4z"/>
		<path opacity="0.2024" fill="#ECECEC" d="M941.3,523.4c0,3.8-208.3,3.1-465.3,3.1c-257,0-465.3,0.8-465.3-3.1
			c0-3.8,208.3-6.9,465.3-6.9C733,516.5,941.3,519.6,941.3,523.4z"/>
		<path opacity="0.2078" fill="#EBEBEB" d="M940.7,523.4c0,3.8-208.1,3-464.8,3c-256.7,0-464.8,0.8-464.8-3
			c0-3.8,208.1-6.9,464.8-6.9C732.7,516.5,940.7,519.6,940.7,523.4z"/>
		<path opacity="0.2132" fill="#EAEAEA" d="M940.2,523.4c0,3.8-207.8,3-464.2,3c-256.4,0-464.2,0.7-464.2-3
			c0-3.8,207.8-6.9,464.2-6.9C732.4,516.5,940.2,519.6,940.2,523.4z"/>
		<path opacity="0.2186" fill="#E9E9E9" d="M939.6,523.4c0,3.8-207.6,3-463.6,3c-256.1,0-463.6,0.7-463.6-3
			c0-3.8,207.6-6.8,463.6-6.8C732.1,516.6,939.6,519.6,939.6,523.4z"/>
		<path opacity="0.224" fill="#E8E8E8" d="M939.1,523.4c0,3.7-207.3,3-463.1,3c-255.8,0-463.1,0.7-463.1-3
			c0-3.7,207.3-6.8,463.1-6.8C731.7,516.6,939.1,519.6,939.1,523.4z"/>
		<path opacity="0.2293" fill="#E7E7E7" d="M938.5,523.4c0,3.7-207.1,3-462.5,3c-255.4,0-462.5,0.7-462.5-3
			c0-3.7,207.1-6.7,462.5-6.7C731.4,516.6,938.5,519.7,938.5,523.4z"/>
		<path opacity="0.2347" fill="#E6E6E6" d="M938,523.4c0,3.7-206.8,3-462,3c-255.1,0-462,0.7-462-3c0-3.7,206.8-6.7,462-6.7
			C731.1,516.7,938,519.7,938,523.4z"/>
		<path opacity="0.2401" fill="#E5E5E5" d="M937.4,523.4c0,3.7-206.6,3-461.4,3c-254.8,0-461.4,0.7-461.4-3
			c0-3.7,206.6-6.7,461.4-6.7C730.8,516.7,937.4,519.7,937.4,523.4z"/>
		<path opacity="0.2455" fill="#E4E4E4" d="M936.9,523.4c0,3.7-206.3,3-460.9,3c-254.5,0-460.9,0.7-460.9-3
			c0-3.7,206.3-6.6,460.9-6.6C730.5,516.7,936.9,519.7,936.9,523.4z"/>
		<path opacity="0.2509" fill="#E3E3E4" d="M936.3,523.4c0,3.6-206.1,3-460.3,3c-254.2,0-460.3,0.7-460.3-3
			c0-3.6,206.1-6.6,460.3-6.6C730.2,516.8,936.3,519.7,936.3,523.4z"/>
		<path opacity="0.2563" fill="#E2E2E3" d="M935.8,523.4c0,3.6-205.8,3-459.7,3c-253.9,0-459.7,0.7-459.7-3
			c0-3.6,205.8-6.6,459.7-6.6C729.9,516.8,935.8,519.7,935.8,523.4z"/>
		<path opacity="0.2617" fill="#E1E1E2" d="M935.2,523.4c0,3.6-205.6,3-459.2,3c-253.6,0-459.2,0.7-459.2-3
			c0-3.6,205.6-6.5,459.2-6.5C729.6,516.8,935.2,519.8,935.2,523.4z"/>
		<path opacity="0.2671" fill="#E0E0E1" d="M934.7,523.4c0,3.6-205.3,2.9-458.6,2.9c-253.3,0-458.6,0.6-458.6-2.9
			c0-3.6,205.3-6.5,458.6-6.5C729.3,516.9,934.7,519.8,934.7,523.4z"/>
		<path opacity="0.2725" fill="#DFDFE0" d="M934.1,523.4c0,3.6-205.1,2.9-458.1,2.9c-253,0-458.1,0.6-458.1-2.9
			c0-3.6,205.1-6.5,458.1-6.5C729,516.9,934.1,519.8,934.1,523.4z"/>
		<path opacity="0.2778" fill="#DEDEDF" d="M933.5,523.4c0,3.5-204.8,2.9-457.5,2.9c-252.7,0-457.5,0.6-457.5-2.9
			c0-3.6,204.8-6.4,457.5-6.4C728.7,516.9,933.5,519.8,933.5,523.4z"/>
		<path opacity="0.2832" fill="#DDDDDE" d="M933,523.4c0,3.5-204.6,2.9-456.9,2.9c-252.4,0-456.9,0.6-456.9-2.9
			c0-3.5,204.6-6.4,456.9-6.4C728.4,517,933,519.8,933,523.4z"/>
		<path opacity="0.2886" fill="#DCDCDD" d="M932.4,523.3c0,3.5-204.3,2.9-456.4,2.9c-252.1,0-456.4,0.6-456.4-2.9
			c0-3.5,204.3-6.4,456.4-6.4C728.1,517,932.4,519.8,932.4,523.3z"/>
		<path opacity="0.294" fill="#DBDBDC" d="M931.9,523.3c0,3.5-204.1,2.9-455.8,2.9c-251.8,0-455.8,0.6-455.8-2.9
			c0-3.5,204.1-6.3,455.8-6.3C727.8,517,931.9,519.9,931.9,523.3z"/>
		<path opacity="0.2994" fill="#DADADB" d="M931.3,523.3c0,3.5-203.8,2.9-455.3,2.9c-251.4,0-455.3,0.6-455.3-2.9
			c0-3.5,203.8-6.3,455.3-6.3C727.5,517.1,931.3,519.9,931.3,523.3z"/>
		<path opacity="0.3048" fill="#D9D9DA" d="M930.8,523.3c0,3.5-203.6,2.9-454.7,2.9c-251.1,0-454.7,0.6-454.7-2.9
			c0-3.5,203.6-6.3,454.7-6.3C727.2,517.1,930.8,519.9,930.8,523.3z"/>
		<path opacity="0.3102" fill="#D8D8D9" d="M930.2,523.3c0,3.4-203.3,2.9-454.2,2.9c-250.8,0-454.2,0.6-454.2-2.9
			c0-3.4,203.3-6.2,454.2-6.2C726.9,517.1,930.2,519.9,930.2,523.3z"/>
		<path opacity="0.3156" fill="#D7D7D8" d="M929.7,523.3c0,3.4-203.1,2.9-453.6,2.9c-250.5,0-453.6,0.6-453.6-2.9
			c0-3.4,203.1-6.2,453.6-6.2C726.6,517.2,929.7,519.9,929.7,523.3z"/>
		<path opacity="0.321" fill="#D6D6D7" d="M929.1,523.3c0,3.4-202.8,2.9-453,2.9c-250.2,0-453,0.5-453-2.9c0-3.4,202.8-6.1,453-6.1
			C726.3,517.2,929.1,519.9,929.1,523.3z"/>
		<path opacity="0.3263" fill="#D5D5D6" d="M928.6,523.3c0,3.4-202.6,2.8-452.5,2.8c-249.9,0-452.5,0.5-452.5-2.8
			c0-3.4,202.6-6.1,452.5-6.1C726,517.2,928.6,520,928.6,523.3z"/>
		<path opacity="0.3317" fill="#D4D4D5" d="M928,523.3c0,3.4-202.3,2.8-451.9,2.8c-249.6,0-451.9,0.5-451.9-2.8
			c0-3.4,202.3-6.1,451.9-6.1C725.7,517.2,928,520,928,523.3z"/>
		<path opacity="0.3371" fill="#D3D3D4" d="M927.5,523.3c0,3.3-202.1,2.8-451.4,2.8c-249.3,0-451.4,0.5-451.4-2.8
			c0-3.3,202.1-6,451.4-6C725.4,517.3,927.5,520,927.5,523.3z"/>
		<path opacity="0.3425" fill="#D2D2D3" d="M926.9,523.3c0,3.3-201.8,2.8-450.8,2.8c-249,0-450.8,0.5-450.8-2.8
			c0-3.3,201.8-6,450.8-6C725.1,517.3,926.9,520,926.9,523.3z"/>
		<path opacity="0.3479" fill="#D1D1D2" d="M926.4,523.3c0,3.3-201.6,2.8-450.3,2.8c-248.7,0-450.3,0.5-450.3-2.8
			c0-3.3,201.6-6,450.3-6C724.8,517.3,926.4,520,926.4,523.3z"/>
		<path opacity="0.3533" fill="#D0D0D1" d="M925.8,523.3c0,3.3-201.3,2.8-449.7,2.8c-248.4,0-449.7,0.5-449.7-2.8
			c0-3.3,201.3-5.9,449.7-5.9C724.5,517.4,925.8,520,925.8,523.3z"/>
		<path opacity="0.3587" fill="#CFCFD0" d="M925.2,523.3c0,3.3-201.1,2.8-449.1,2.8C228,526.1,27,526.6,27,523.3
			c0-3.3,201.1-5.9,449.1-5.9C724.2,517.4,925.2,520,925.2,523.3z"/>
		<path opacity="0.3641" fill="#CECECF" d="M924.7,523.3c0,3.2-200.8,2.8-448.6,2.8c-247.7,0-448.6,0.5-448.6-2.8
			c0-3.2,200.8-5.9,448.6-5.9C723.9,517.4,924.7,520.1,924.7,523.3z"/>
		<path opacity="0.3695" fill="#CDCDCE" d="M924.1,523.3c0,3.2-200.6,2.8-448,2.8c-247.4,0-448,0.4-448-2.8c0-3.2,200.6-5.8,448-5.8
			C723.5,517.5,924.1,520.1,924.1,523.3z"/>
		<path opacity="0.3749" fill="#CCCCCD" d="M923.6,523.3c0,3.2-200.3,2.8-447.5,2.8c-247.1,0-447.5,0.4-447.5-2.8
			c0-3.2,200.3-5.8,447.5-5.8C723.2,517.5,923.6,520.1,923.6,523.3z"/>
		<path opacity="0.3802" fill="#CBCBCC" d="M923,523.3c0,3.2-200.1,2.8-446.9,2.8c-246.8,0-446.9,0.4-446.9-2.8
			c0-3.2,200.1-5.8,446.9-5.8C722.9,517.5,923,520.1,923,523.3z"/>
		<path opacity="0.3856" fill="#CACACB" d="M922.5,523.3c0,3.2-199.8,2.7-446.4,2.7c-246.5,0-446.4,0.4-446.4-2.7
			c0-3.2,199.8-5.7,446.4-5.7C722.6,517.6,922.5,520.1,922.5,523.3z"/>
		<path opacity="0.391" fill="#C9C9CA" d="M921.9,523.3c0,3.1-199.6,2.7-445.8,2.7c-246.2,0-445.8,0.4-445.8-2.7
			c0-3.1,199.6-5.7,445.8-5.7C722.3,517.6,921.9,520.1,921.9,523.3z"/>
		<path opacity="0.3964" fill="#C8C8C9" d="M921.4,523.3c0,3.1-199.3,2.7-445.2,2.7c-245.9,0-445.2,0.4-445.2-2.7
			c0-3.1,199.3-5.7,445.2-5.7C722,517.6,921.4,520.2,921.4,523.3z"/>
		<path opacity="0.4018" fill="#C7C7C8" d="M920.8,523.3c0,3.1-199.1,2.7-444.7,2.7c-245.6,0-444.7,0.4-444.7-2.7
			c0-3.1,199.1-5.6,444.7-5.6C721.7,517.7,920.8,520.2,920.8,523.3z"/>
		<path opacity="0.4072" fill="#C6C6C7" d="M920.3,523.3c0,3.1-198.8,2.7-444.1,2.7C230.9,526,32,526.4,32,523.3
			c0-3.1,198.8-5.6,444.1-5.6C721.4,517.7,920.3,520.2,920.3,523.3z"/>
		<path opacity="0.4126" fill="#C5C5C6" d="M919.7,523.3c0,3.1-198.6,2.7-443.6,2.7c-245,0-443.6,0.4-443.6-2.7
			c0-3.1,198.6-5.5,443.6-5.5C721.1,517.7,919.7,520.2,919.7,523.3z"/>
		<path opacity="0.418" fill="#C4C4C5" d="M919.2,523.3c0,3-198.3,2.7-443,2.7c-244.7,0-443,0.4-443-2.7c0-3,198.3-5.5,443-5.5
			C720.8,517.8,919.2,520.2,919.2,523.3z"/>
		<path opacity="0.4234" fill="#C3C3C4" d="M918.6,523.3c0,3-198.1,2.7-442.5,2.7c-244.4,0-442.5,0.3-442.5-2.7
			c0-3,198.1-5.5,442.5-5.5C720.5,517.8,918.6,520.2,918.6,523.3z"/>
		<path opacity="0.4287" fill="#C2C2C3" d="M918.1,523.3c0,3-197.8,2.7-441.9,2.7c-244.1,0-441.9,0.3-441.9-2.7
			c0-3,197.8-5.4,441.9-5.4C720.2,517.8,918.1,520.3,918.1,523.3z"/>
		<path opacity="0.4341" fill="#C1C1C2" d="M917.5,523.3c0,3-197.6,2.7-441.3,2.7c-243.7,0-441.3,0.3-441.3-2.7
			c0-3,197.6-5.4,441.3-5.4C719.9,517.9,917.5,520.3,917.5,523.3z"/>
		<path opacity="0.4395" fill="#C0C0C1" d="M916.9,523.3c0,3-197.3,2.7-440.8,2.7c-243.4,0-440.8,0.3-440.8-2.7
			c0-3,197.3-5.4,440.8-5.4C719.6,517.9,916.9,520.3,916.9,523.3z"/>
		<path opacity="0.4449" fill="#BFBFC0" d="M916.4,523.3c0,2.9-197.1,2.6-440.2,2.6c-243.1,0-440.2,0.3-440.2-2.6
			c0-2.9,197.1-5.3,440.2-5.3C719.3,517.9,916.4,520.3,916.4,523.3z"/>
		<path opacity="0.4503" fill="#BEBEBF" d="M915.8,523.3c0,2.9-196.8,2.6-439.7,2.6c-242.8,0-439.7,0.3-439.7-2.6
			c0-2.9,196.8-5.3,439.7-5.3C719,518,915.8,520.3,915.8,523.3z"/>
		<path opacity="0.4557" fill="#BDBDBE" d="M915.3,523.2c0,2.9-196.6,2.6-439.1,2.6c-242.5,0-439.1,0.3-439.1-2.6
			c0-2.9,196.6-5.3,439.1-5.3C718.7,518,915.3,520.3,915.3,523.2z"/>
		<path opacity="0.4611" fill="#BCBCBD" d="M914.7,523.2c0,2.9-196.3,2.6-438.6,2.6c-242.2,0-438.6,0.3-438.6-2.6
			c0-2.9,196.3-5.2,438.6-5.2C718.4,518,914.7,520.4,914.7,523.2z"/>
		<path opacity="0.4665" fill="#BBBBBC" d="M914.2,523.2c0,2.9-196.1,2.6-438,2.6c-241.9,0-438,0.3-438-2.6c0-2.9,196.1-5.2,438-5.2
			C718.1,518,914.2,520.4,914.2,523.2z"/>
		<path opacity="0.4719" fill="#BABABB" d="M913.6,523.2c0,2.8-195.8,2.6-437.4,2.6c-241.6,0-437.4,0.3-437.4-2.6
			c0-2.9,195.8-5.2,437.4-5.2C717.8,518.1,913.6,520.4,913.6,523.2z"/>
		<path opacity="0.4772" fill="#B9B9BA" d="M913.1,523.2c0,2.8-195.6,2.6-436.9,2.6c-241.3,0-436.9,0.2-436.9-2.6
			c0-2.8,195.6-5.1,436.9-5.1C717.5,518.1,913.1,520.4,913.1,523.2z"/>
		<path opacity="0.4826" fill="#B8B8B9" d="M912.5,523.2c0,2.8-195.3,2.6-436.3,2.6c-241,0-436.3,0.2-436.3-2.6
			c0-2.8,195.3-5.1,436.3-5.1C717.2,518.1,912.5,520.4,912.5,523.2z"/>
		<path opacity="0.488" fill="#B7B7B8" d="M912,523.2c0,2.8-195.1,2.6-435.8,2.6c-240.7,0-435.8,0.2-435.8-2.6
			c0-2.8,195.1-5.1,435.8-5.1C716.9,518.2,912,520.4,912,523.2z"/>
		<path opacity="0.4934" fill="#B6B6B7" d="M911.4,523.2c0,2.8-194.8,2.6-435.2,2.6C235.8,525.8,41,526,41,523.2
			c0-2.8,194.8-5,435.2-5C716.6,518.2,911.4,520.5,911.4,523.2z"/>
		<path opacity="0.4988" fill="#B5B5B6" d="M910.9,523.2c0,2.8-194.6,2.6-434.7,2.6c-240.1,0-434.7,0.2-434.7-2.6
			c0-2.8,194.6-5,434.7-5C716.3,518.2,910.9,520.5,910.9,523.2z"/>
		<path opacity="0.5042" fill="#B4B4B5" d="M910.3,523.2c0,2.7-194.3,2.5-434.1,2.5c-239.7,0-434.1,0.2-434.1-2.5
			c0-2.7,194.3-4.9,434.1-4.9C716,518.3,910.3,520.5,910.3,523.2z"/>
		<path opacity="0.5096" fill="#B3B3B4" d="M909.8,523.2c0,2.7-194.1,2.5-433.5,2.5c-239.4,0-433.5,0.2-433.5-2.5
			c0-2.7,194.1-4.9,433.5-4.9C715.7,518.3,909.8,520.5,909.8,523.2z"/>
		<path opacity="0.515" fill="#B2B2B3" d="M909.2,523.2c0,2.7-193.9,2.5-433,2.5c-239.1,0-433,0.2-433-2.5c0-2.7,193.9-4.9,433-4.9
			C715.4,518.3,909.2,520.5,909.2,523.2z"/>
		<path opacity="0.5204" fill="#B1B1B2" d="M908.6,523.2c0,2.7-193.6,2.5-432.4,2.5c-238.8,0-432.4,0.2-432.4-2.5
			c0-2.7,193.6-4.8,432.4-4.8C715,518.4,908.6,520.5,908.6,523.2z"/>
		<path opacity="0.5257" fill="#B0B0B1" d="M908.1,523.2c0,2.7-193.4,2.5-431.9,2.5c-238.5,0-431.9,0.1-431.9-2.5
			c0-2.7,193.4-4.8,431.9-4.8C714.7,518.4,908.1,520.5,908.1,523.2z"/>
		<path opacity="0.5311" fill="#AFAFB0" d="M907.5,523.2c0,2.6-193.1,2.5-431.3,2.5c-238.2,0-431.3,0.1-431.3-2.5
			c0-2.6,193.1-4.8,431.3-4.8C714.4,518.4,907.5,520.6,907.5,523.2z"/>
		<path opacity="0.5365" fill="#AEAEAF" d="M907,523.2c0,2.6-192.9,2.5-430.7,2.5c-237.9,0-430.7,0.1-430.7-2.5
			c0-2.6,192.9-4.7,430.7-4.7C714.1,518.5,907,520.6,907,523.2z"/>
		<path opacity="0.5419" fill="#ADADAF" d="M906.4,523.2c0,2.6-192.6,2.5-430.2,2.5c-237.6,0-430.2,0.1-430.2-2.5
			c0-2.6,192.6-4.7,430.2-4.7C713.8,518.5,906.4,520.6,906.4,523.2z"/>
		<path opacity="0.5473" fill="#ACACAE" d="M905.9,523.2c0,2.6-192.4,2.5-429.6,2.5c-237.3,0-429.6,0.1-429.6-2.5
			c0-2.6,192.4-4.7,429.6-4.7C713.5,518.5,905.9,520.6,905.9,523.2z"/>
		<path opacity="0.5527" fill="#ABABAD" d="M905.3,523.2c0,2.6-192.1,2.5-429.1,2.5c-237,0-429.1,0.1-429.1-2.5
			c0-2.6,192.1-4.6,429.1-4.6C713.2,518.6,905.3,520.6,905.3,523.2z"/>
		<path opacity="0.5581" fill="#AAAAAC" d="M904.8,523.2c0,2.5-191.9,2.5-428.5,2.5c-236.7,0-428.5,0.1-428.5-2.5
			c0-2.5,191.9-4.6,428.5-4.6C712.9,518.6,904.8,520.6,904.8,523.2z"/>
		<path opacity="0.5635" fill="#A9A9AB" d="M904.2,523.2c0,2.5-191.6,2.4-428,2.4c-236.4,0-428,0.1-428-2.4c0-2.5,191.6-4.6,428-4.6
			C712.6,518.6,904.2,520.7,904.2,523.2z"/>
		<path opacity="0.5689" fill="#A8A8AA" d="M903.7,523.2c0,2.5-191.4,2.4-427.4,2.4c-236,0-427.4,0.1-427.4-2.4
			c0-2.5,191.4-4.5,427.4-4.5C712.3,518.7,903.7,520.7,903.7,523.2z"/>
		<path opacity="0.5743" fill="#A7A7A9" d="M903.1,523.2c0,2.5-191.1,2.4-426.8,2.4c-235.7,0-426.8,0.1-426.8-2.4
			c0-2.5,191.1-4.5,426.8-4.5C712,518.7,903.1,520.7,903.1,523.2z"/>
		<path opacity="0.5796" fill="#A6A6A8" d="M902.6,523.2c0,2.5-190.9,2.4-426.3,2.4c-235.4,0-426.3,0-426.3-2.4
			c0-2.5,190.9-4.5,426.3-4.5C711.7,518.7,902.6,520.7,902.6,523.2z"/>
		<path opacity="0.585" fill="#A5A5A7" d="M902,523.2c0,2.4-190.6,2.4-425.7,2.4c-235.1,0-425.7,0-425.7-2.4
			c0-2.4,190.6-4.4,425.7-4.4C711.4,518.7,902,520.7,902,523.2z"/>
		<path opacity="0.5904" fill="#A4A4A6" d="M901.5,523.2c0,2.4-190.4,2.4-425.2,2.4c-234.8,0-425.2,0-425.2-2.4
			c0-2.4,190.4-4.4,425.2-4.4C711.1,518.8,901.5,520.7,901.5,523.2z"/>
		<path opacity="0.5958" fill="#A3A3A5" d="M900.9,523.2c0,2.4-190.1,2.4-424.6,2.4c-234.5,0-424.6,0-424.6-2.4
			c0-2.4,190.1-4.3,424.6-4.3C710.8,518.8,900.9,520.8,900.9,523.2z"/>
		<path opacity="0.6012" fill="#A2A2A4" d="M900.3,523.2c0,2.4-189.9,2.4-424.1,2.4c-234.2,0-424.1,0-424.1-2.4
			c0-2.4,189.9-4.3,424.1-4.3C710.5,518.8,900.3,520.8,900.3,523.2z"/>
		<path opacity="0.6066" fill="#A1A1A3" d="M899.8,523.2c0,2.4-189.6,2.4-423.5,2.4c-233.9,0-423.5,0-423.5-2.4
			c0-2.4,189.6-4.3,423.5-4.3C710.2,518.9,899.8,520.8,899.8,523.2z"/>
		<path opacity="0.612" fill="#A0A1A2" d="M899.2,523.2c0,2.3-189.4,2.4-422.9,2.4c-233.6,0-422.9,0-422.9-2.4
			c0-2.3,189.4-4.2,422.9-4.2C709.9,518.9,899.2,520.8,899.2,523.2z"/>
		<path opacity="0.6174" fill="#9FA0A1" d="M898.7,523.1c0,2.3-189.1,2.4-422.4,2.4c-233.3,0-422.4,0-422.4-2.4
			c0-2.3,189.1-4.2,422.4-4.2C709.6,518.9,898.7,520.8,898.7,523.1z"/>
		<path opacity="0.6228" fill="#9E9FA0" d="M898.1,523.1c0,2.3-188.9,2.3-421.8,2.3c-233,0-421.8,0-421.8-2.3
			c0-2.3,188.9-4.2,421.8-4.2C709.3,519,898.1,520.8,898.1,523.1z"/>
		<path opacity="0.6281" fill="#9D9E9F" d="M897.6,523.1c0,2.3-188.6,2.3-421.3,2.3c-232.7,0-421.3,0-421.3-2.3
			c0-2.3,188.6-4.1,421.3-4.1C709,519,897.6,520.9,897.6,523.1z"/>
		<path opacity="0.6335" fill="#9C9D9E" d="M897,523.1c0,2.3-188.4,2.3-420.7,2.3c-232.4,0-420.7-0.1-420.7-2.3
			c0-2.3,188.4-4.1,420.7-4.1C708.7,519,897,520.9,897,523.1z"/>
		<path opacity="0.6389" fill="#9B9C9D" d="M896.5,523.1c0,2.2-188.1,2.3-420.2,2.3c-232,0-420.2-0.1-420.2-2.3
			c0-2.2,188.1-4.1,420.2-4.1C708.4,519.1,896.5,520.9,896.5,523.1z"/>
		<path opacity="0.6443" fill="#9A9B9C" d="M895.9,523.1c0,2.2-187.9,2.3-419.6,2.3c-231.7,0-419.6-0.1-419.6-2.3
			c0-2.2,187.9-4,419.6-4C708.1,519.1,895.9,520.9,895.9,523.1z"/>
		<path opacity="0.6497" fill="#999A9B" d="M895.4,523.1c0,2.2-187.6,2.3-419,2.3c-231.4,0-419-0.1-419-2.3c0-2.2,187.6-4,419-4
			C707.8,519.1,895.4,520.9,895.4,523.1z"/>
		<path opacity="0.6551" fill="#98999A" d="M894.8,523.1c0,2.2-187.4,2.3-418.5,2.3s-418.5-0.1-418.5-2.3c0-2.2,187.4-4,418.5-4
			S894.8,520.9,894.8,523.1z"/>
		<path opacity="0.6605" fill="#979899" d="M894.3,523.1c0,2.2-187.1,2.3-417.9,2.3s-417.9-0.1-417.9-2.3c0-2.2,187.1-3.9,417.9-3.9
			S894.3,521,894.3,523.1z"/>
		<path opacity="0.6659" fill="#969798" d="M893.7,523.1c0,2.1-186.9,2.3-417.4,2.3S59,525.3,59,523.1c0-2.1,186.9-3.9,417.4-3.9
			S893.7,521,893.7,523.1z"/>
		<path opacity="0.6713" fill="#959697" d="M893.2,523.1c0,2.1-186.6,2.3-416.8,2.3s-416.8-0.1-416.8-2.3s186.6-3.9,416.8-3.9
			S893.2,521,893.2,523.1z"/>
		<path opacity="0.6766" fill="#949596" d="M892.6,523.1c0,2.1-186.4,2.3-416.3,2.3s-416.3-0.1-416.3-2.3c0-2.1,186.4-3.8,416.3-3.8
			S892.6,521,892.6,523.1z"/>
		<path opacity="0.682" fill="#939495" d="M892,523.1c0,2.1-186.1,2.2-415.7,2.2s-415.7-0.2-415.7-2.2s186.1-3.8,415.7-3.8
			S892,521,892,523.1z"/>
		<path opacity="0.6874" fill="#929394" d="M891.5,523.1c0,2.1-185.9,2.2-415.1,2.2s-415.1-0.2-415.1-2.2c0-2.1,185.9-3.8,415.1-3.8
			S891.5,521,891.5,523.1z"/>
		<path opacity="0.6928" fill="#919293" d="M890.9,523.1c0,2.1-185.6,2.2-414.6,2.2c-229,0-414.6-0.2-414.6-2.2s185.6-3.7,414.6-3.7
			C705.3,519.4,890.9,521.1,890.9,523.1z"/>
		<path opacity="0.6982" fill="#909192" d="M890.4,523.1c0,2-185.4,2.2-414,2.2s-414-0.2-414-2.2c0-2,185.4-3.7,414-3.7
			S890.4,521.1,890.4,523.1z"/>
		<path opacity="0.7036" fill="#8F9091" d="M889.8,523.1c0,2-185.1,2.2-413.5,2.2c-228.4,0-413.5-0.2-413.5-2.2s185.1-3.6,413.5-3.6
			C704.7,519.5,889.8,521.1,889.8,523.1z"/>
		<path opacity="0.709" fill="#8E8F90" d="M889.3,523.1c0,2-184.9,2.2-412.9,2.2s-412.9-0.2-412.9-2.2c0-2,184.9-3.6,412.9-3.6
			S889.3,521.1,889.3,523.1z"/>
		<path opacity="0.7144" fill="#8D8E8F" d="M888.7,523.1c0,2-184.6,2.2-412.4,2.2c-227.7,0-412.4-0.2-412.4-2.2s184.6-3.6,412.4-3.6
			C704.1,519.5,888.7,521.1,888.7,523.1z"/>
		<path opacity="0.7198" fill="#8C8D8E" d="M888.2,523.1c0,2-184.4,2.2-411.8,2.2S64.6,525,64.6,523.1c0-2,184.4-3.5,411.8-3.5
			S888.2,521.1,888.2,523.1z"/>
		<path opacity="0.7251" fill="#8B8C8D" d="M887.6,523.1c0,1.9-184.1,2.2-411.2,2.2S65.1,525,65.1,523.1s184.1-3.5,411.2-3.5
			S887.6,521.1,887.6,523.1z"/>
		<path opacity="0.7305" fill="#8A8B8C" d="M887.1,523.1c0,1.9-183.9,2.2-410.7,2.2S65.7,525,65.7,523.1c0-1.9,183.9-3.5,410.7-3.5
			S887.1,521.2,887.1,523.1z"/>
		<path opacity="0.7359" fill="#898A8B" d="M886.5,523.1c0,1.9-183.6,2.2-410.1,2.2S66.3,525,66.3,523.1c0-1.9,183.6-3.4,410.1-3.4
			S886.5,521.2,886.5,523.1z"/>
		<path opacity="0.7413" fill="#88898A" d="M886,523.1c0,1.9-183.4,2.1-409.6,2.1S66.8,525,66.8,523.1c0-1.9,183.4-3.4,409.6-3.4
			S886,521.2,886,523.1z"/>
		<path opacity="0.7467" fill="#878889" d="M885.4,523.1c0,1.9-183.1,2.1-409,2.1s-409-0.3-409-2.1c0-1.9,183.1-3.4,409-3.4
			S885.4,521.2,885.4,523.1z"/>
		<path opacity="0.7521" fill="#868788" d="M884.9,523.1c0,1.8-182.9,2.1-408.5,2.1S68,524.9,68,523.1c0-1.8,182.9-3.3,408.5-3.3
			S884.9,521.2,884.9,523.1z"/>
		<path opacity="0.7575" fill="#858687" d="M884.3,523.1c0,1.8-182.6,2.1-407.9,2.1s-407.9-0.3-407.9-2.1c0-1.8,182.6-3.3,407.9-3.3
			S884.3,521.2,884.3,523.1z"/>
		<path opacity="0.7629" fill="#848586" d="M883.8,523.1c0,1.8-182.4,2.1-407.3,2.1s-407.3-0.3-407.3-2.1c0-1.8,182.4-3.3,407.3-3.3
			S883.8,521.3,883.8,523.1z"/>
		<path opacity="0.7683" fill="#838485" d="M883.2,523.1c0,1.8-182.1,2.1-406.8,2.1s-406.8-0.3-406.8-2.1c0-1.8,182.1-3.2,406.8-3.2
			S883.2,521.3,883.2,523.1z"/>
		<path opacity="0.7737" fill="#828384" d="M882.6,523.1c0,1.8-181.9,2.1-406.2,2.1s-406.2-0.3-406.2-2.1c0-1.8,181.9-3.2,406.2-3.2
			S882.6,521.3,882.6,523.1z"/>
		<path opacity="0.779" fill="#818283" d="M882.1,523.1c0,1.7-181.6,2.1-405.7,2.1s-405.7-0.3-405.7-2.1c0-1.7,181.6-3.2,405.7-3.2
			S882.1,521.3,882.1,523.1z"/>
		<path opacity="0.7844" fill="#808182" d="M881.5,523c0,1.7-181.4,2.1-405.1,2.1S71.3,524.8,71.3,523c0-1.7,181.4-3.1,405.1-3.1
			S881.5,521.3,881.5,523z"/>
		<path opacity="0.7898" fill="#7F8081" d="M881,523c0,1.7-181.1,2.1-404.5,2.1S71.9,524.7,71.9,523c0-1.7,181.1-3.1,404.5-3.1
			S881,521.3,881,523z"/>
		<path opacity="0.7952" fill="#7E7F80" d="M880.4,523c0,1.7-180.9,2.1-404,2.1s-404-0.4-404-2.1c0-1.7,180.9-3,404-3
			S880.4,521.4,880.4,523z"/>
		<path opacity="0.8006" fill="#7D7E7F" d="M879.9,523c0,1.7-180.6,2-403.4,2S73,524.7,73,523c0-1.7,180.6-3,403.4-3
			S879.9,521.4,879.9,523z"/>
		<path opacity="0.806" fill="#7C7D7E" d="M879.3,523c0,1.6-180.4,2-402.9,2s-402.9-0.4-402.9-2c0-1.6,180.4-3,402.9-3
			S879.3,521.4,879.3,523z"/>
		<path opacity="0.8114" fill="#7B7C7D" d="M878.8,523c0,1.6-180.1,2-402.3,2s-402.3-0.4-402.3-2c0-1.6,180.1-2.9,402.3-2.9
			S878.8,521.4,878.8,523z"/>
		<path opacity="0.8168" fill="#7A7B7C" d="M878.2,523c0,1.6-179.9,2-401.8,2s-401.8-0.4-401.8-2c0-1.6,179.9-2.9,401.8-2.9
			S878.2,521.4,878.2,523z"/>
		<path opacity="0.8222" fill="#797A7B" d="M877.7,523c0,1.6-179.6,2-401.2,2s-401.2-0.4-401.2-2c0-1.6,179.6-2.9,401.2-2.9
			S877.7,521.4,877.7,523z"/>
		<path opacity="0.8275" fill="#78797A" d="M877.1,523c0,1.6-179.4,2-400.6,2s-400.6-0.4-400.6-2c0-1.6,179.4-2.8,400.6-2.8
			S877.1,521.5,877.1,523z"/>
		<path opacity="0.8329" fill="#77787A" d="M876.6,523c0,1.5-179.1,2-400.1,2s-400.1-0.4-400.1-2c0-1.5,179.1-2.8,400.1-2.8
			S876.6,521.5,876.6,523z"/>
		<path opacity="0.8383" fill="#767779" d="M876,523c0,1.5-178.9,2-399.5,2s-399.5-0.5-399.5-2c0-1.5,178.9-2.8,399.5-2.8
			S876,521.5,876,523z"/>
		<path opacity="0.8437" fill="#757678" d="M875.5,523c0,1.5-178.6,2-399,2s-399-0.5-399-2c0-1.5,178.6-2.7,399-2.7
			S875.5,521.5,875.5,523z"/>
		<path opacity="0.8491" fill="#747577" d="M874.9,523c0,1.5-178.4,2-398.4,2s-398.4-0.5-398.4-2c0-1.5,178.4-2.7,398.4-2.7
			S874.9,521.5,874.9,523z"/>
		<path opacity="0.8545" fill="#737476" d="M874.3,523c0,1.5-178.1,2-397.9,2s-397.9-0.5-397.9-2c0-1.5,178.1-2.7,397.9-2.7
			S874.3,521.5,874.3,523z"/>
		<path opacity="0.8599" fill="#727375" d="M873.8,523c0,1.4-177.9,1.9-397.3,1.9S79.2,524.5,79.2,523c0-1.4,177.9-2.6,397.3-2.6
			S873.8,521.6,873.8,523z"/>
		<path opacity="0.8653" fill="#717274" d="M873.2,523c0,1.4-177.6,1.9-396.7,1.9S79.8,524.4,79.8,523c0-1.4,177.6-2.6,396.7-2.6
			S873.2,521.6,873.2,523z"/>
		<path opacity="0.8707" fill="#707173" d="M872.7,523c0,1.4-177.4,1.9-396.2,1.9S80.3,524.4,80.3,523c0-1.4,177.4-2.6,396.2-2.6
			S872.7,521.6,872.7,523z"/>
		<path opacity="0.876" fill="#6F7072" d="M872.1,523c0,1.4-177.1,1.9-395.6,1.9S80.9,524.4,80.9,523c0-1.4,177.1-2.5,395.6-2.5
			S872.1,521.6,872.1,523z"/>
		<path opacity="0.8814" fill="#6E6F71" d="M871.6,523c0,1.4-176.9,1.9-395.1,1.9S81.4,524.4,81.4,523c0-1.4,176.9-2.5,395.1-2.5
			S871.6,521.6,871.6,523z"/>
		<path opacity="0.8868" fill="#6D6E70" d="M871,523c0,1.4-176.6,1.9-394.5,1.9S82,524.3,82,523c0-1.4,176.6-2.4,394.5-2.4
			S871,521.6,871,523z"/>
		<path opacity="0.8922" fill="#6C6D6F" d="M870.5,523c0,1.3-176.4,1.9-394,1.9s-394-0.6-394-1.9c0-1.3,176.4-2.4,394-2.4
			S870.5,521.6,870.5,523z"/>
		<path opacity="0.8976" fill="#6B6C6E" d="M869.9,523c0,1.3-176.1,1.9-393.4,1.9S83.1,524.3,83.1,523c0-1.3,176.1-2.4,393.4-2.4
			S869.9,521.7,869.9,523z"/>
		<path opacity="0.903" fill="#6A6B6D" d="M869.4,523c0,1.3-175.9,1.9-392.8,1.9S83.7,524.3,83.7,523c0-1.3,175.9-2.3,392.8-2.3
			S869.4,521.7,869.4,523z"/>
		<path opacity="0.9084" fill="#696A6C" d="M868.8,523c0,1.3-175.6,1.9-392.3,1.9S84.2,524.2,84.2,523c0-1.3,175.6-2.3,392.3-2.3
			S868.8,521.7,868.8,523z"/>
		<path opacity="0.9138" fill="#68696B" d="M868.3,523c0,1.3-175.4,1.9-391.7,1.9S84.8,524.2,84.8,523c0-1.3,175.4-2.3,391.7-2.3
			S868.3,521.7,868.3,523z"/>
		<path opacity="0.9192" fill="#67686A" d="M867.7,523c0,1.2-175.1,1.8-391.2,1.8S85.4,524.2,85.4,523c0-1.2,175.1-2.2,391.2-2.2
			S867.7,521.7,867.7,523z"/>
		<path opacity="0.9246" fill="#666769" d="M867.2,523c0,1.2-174.9,1.8-390.6,1.8S85.9,524.2,85.9,523c0-1.2,174.9-2.2,390.6-2.2
			S867.2,521.7,867.2,523z"/>
		<path opacity="0.9299" fill="#656668" d="M866.6,523c0,1.2-174.6,1.8-390.1,1.8S86.5,524.2,86.5,523c0-1.2,174.6-2.2,390.1-2.2
			S866.6,521.8,866.6,523z"/>
		<path opacity="0.9353" fill="#646567" d="M866,523c0,1.2-174.4,1.8-389.5,1.8S87.1,524.1,87.1,523c0-1.2,174.4-2.1,389.5-2.1
			S866,521.8,866,523z"/>
		<path opacity="0.9407" fill="#636466" d="M865.5,523c0,1.2-174.1,1.8-388.9,1.8S87.6,524.1,87.6,523c0-1.2,174.1-2.1,388.9-2.1
			S865.5,521.8,865.5,523z"/>
		<path opacity="0.9461" fill="#626365" d="M864.9,522.9c0,1.1-173.9,1.8-388.4,1.8s-388.4-0.7-388.4-1.8c0-1.1,173.9-2.1,388.4-2.1
			S864.9,521.8,864.9,522.9z"/>
		<path opacity="0.9515" fill="#616264" d="M864.4,522.9c0,1.1-173.6,1.8-387.8,1.8s-387.8-0.7-387.8-1.8c0-1.1,173.6-2,387.8-2
			S864.4,521.8,864.4,522.9z"/>
		<path opacity="0.9569" fill="#606163" d="M863.8,522.9c0,1.1-173.4,1.8-387.3,1.8S89.3,524,89.3,522.9c0-1.1,173.4-2,387.3-2
			S863.8,521.8,863.8,522.9z"/>
		<path opacity="0.9623" fill="#5F6062" d="M863.3,522.9c0,1.1-173.1,1.8-386.7,1.8S89.9,524,89.9,522.9c0-1.1,173.1-2,386.7-2
			S863.3,521.9,863.3,522.9z"/>
		<path opacity="0.9677" fill="#5E5F61" d="M862.7,522.9c0,1.1-172.9,1.8-386.2,1.8S90.4,524,90.4,522.9c0-1.1,172.9-1.9,386.2-1.9
			S862.7,521.9,862.7,522.9z"/>
		<path opacity="0.9731" fill="#5D5E60" d="M862.2,522.9c0,1-172.6,1.8-385.6,1.8S91,524,91,522.9c0-1,172.6-1.9,385.6-1.9
			S862.2,521.9,862.2,522.9z"/>
		<path opacity="0.9784" fill="#5C5D5F" d="M861.6,522.9c0,1-172.4,1.7-385,1.7s-385-0.7-385-1.7c0-1,172.4-1.8,385-1.8
			S861.6,521.9,861.6,522.9z"/>
		<path opacity="0.9838" fill="#5B5C5E" d="M861.1,522.9c0,1-172.1,1.7-384.5,1.7s-384.5-0.7-384.5-1.7c0-1,172.1-1.8,384.5-1.8
			S861.1,521.9,861.1,522.9z"/>
		<path opacity="0.9892" fill="#5A5B5D" d="M860.5,522.9c0,1-171.9,1.7-383.9,1.7s-383.9-0.7-383.9-1.7c0-1,171.9-1.8,383.9-1.8
			S860.5,521.9,860.5,522.9z"/>
		<path opacity="0.9946" fill="#595A5C" d="M860,522.9c0,1-171.6,1.7-383.4,1.7s-383.4-0.8-383.4-1.7c0-1,171.6-1.7,383.4-1.7
			S860,522,860,522.9z"/>
		<ellipse fill="#333333" cx="476.6" cy="522.9" rx="382.8" ry="1.7"/>
	</g>
	<g>
		<path fill="#929196" d="M823.2,517.5H126.8c-15.7,0-28.4-7.8-28.4-23.6V28.6C98.4,12.8,111.1,0,126.8,0h696.4
			c15.7,0,28.4,12.8,28.4,28.6V494C851.7,509.7,838.9,517.5,823.2,517.5L823.2,517.5z"/>
		<path fill="#33353A" d="M849.1,494c0,14.3-11.6,21-25.8,21H126.8c-14.2,0-25.8-6.7-25.8-21V28.6c0-14.3,11.6-26,25.8-26h696.4
			c14.2,0,25.8,11.7,25.8,26V494z"/>
		<path fill="#010101" d="M823.2,514.4H126.8c-13.9,0-25.3-6.4-25.3-20.4V28.6c0-14,11.3-25.4,25.3-25.4h696.4
			c13.9,0,25.3,11.4,25.3,25.4V494C848.5,508,837.2,514.4,823.2,514.4L823.2,514.4z"/>
		<path fill="#222225" d="M101.5,489.1v4.9c0,14,11.3,20.4,25.3,20.4h696.4c13.9,0,25.3-6.4,25.3-20.4v-4.9H101.5z"/>
		<linearGradient id="SVGID_1_" gradientUnits="userSpaceOnUse" x1="13.1535" y1="516.2125" x2="934.5672" y2="516.2125">
			<stop  offset="0" style="stop-color:#2B2A2E"/>
			<stop  offset="0.3875" style="stop-color:#545457"/>
			<stop  offset="0.989" style="stop-color:#5B5D63"/>
		</linearGradient>
		<path fill="url(#SVGID_1_)" d="M934.5,509.7H13.2c0,0,49.6,12.1,94.8,12.1c16.7,0,35.2,0.8,52.7,0.9l0,0h626.4l0,0
			c17.5-0.2,36-0.9,52.7-0.9C885,521.8,934.6,509.7,934.5,509.7L934.5,509.7C934.5,509.7,934.5,509.7,934.5,509.7z"/>
		<g>
			<linearGradient id="SVGID_2_" gradientUnits="userSpaceOnUse" x1="12.7847" y1="507.1471" x2="933.9371" y2="507.1471">
				<stop  offset="0" style="stop-color:#37363C"/>
				<stop  offset="1.648350e-02" style="stop-color:#D4D3D8"/>
				<stop  offset="0.2363" style="stop-color:#C3C2C8"/>
				<stop  offset="0.7582" style="stop-color:#C2C1C7"/>
				<stop  offset="0.989" style="stop-color:#D9D9DB"/>
				<stop  offset="1" style="stop-color:#39383E"/>
			</linearGradient>
			<path fill="url(#SVGID_2_)" d="M934.9,509.3c0,0.2-0.2,0.4-0.4,0.4H13.2c-0.2,0-0.4-0.2-0.4-0.4V505c0-0.2,0.2-0.4,0.4-0.4h921.4
				c0.2,0,0.4,0.2,0.4,0.4V509.3z"/>
		</g>
		<g>
			<ellipse fill="#1E1D23" cx="102.6" cy="517.9" rx="3.9" ry="0.8"/>
			<ellipse fill="#18171C" cx="102.6" cy="518.1" rx="2" ry="0.4"/>
		</g>
		<g>
			<ellipse fill="#434247" cx="361.4" cy="517.9" rx="3.9" ry="0.8"/>
			<ellipse fill="#37363B" cx="361.4" cy="518.1" rx="2" ry="0.4"/>
		</g>
		<g>
			<ellipse fill="#434247" cx="587.7" cy="517.9" rx="3.9" ry="0.8"/>
			<ellipse fill="#37363B" cx="587.7" cy="518.1" rx="2" ry="0.4"/>
		</g>
		<g>
			<ellipse fill="#434247" cx="845" cy="517.9" rx="3.9" ry="0.8"/>
			<ellipse fill="#37363B" cx="845" cy="518.1" rx="2" ry="0.4"/>
		</g>
		<linearGradient id="SVGID_3_" gradientUnits="userSpaceOnUse" x1="385.877" y1="508.1696" x2="562.2595" y2="508.1696">
			<stop  offset="0" style="stop-color:#515055"/>
			<stop  offset="4.945060e-02" style="stop-color:#B7B6BB"/>
			<stop  offset="0.2527" style="stop-color:#C3C2C8"/>
			<stop  offset="0.668" style="stop-color:#C2C1C7"/>
			<stop  offset="0.9154" style="stop-color:#BDBCC2"/>
			<stop  offset="1" style="stop-color:#504F54"/>
		</linearGradient>
		<path fill="url(#SVGID_3_)" d="M385.9,504.6v5.1c0,0,3.4,2,32.3,2.1c0,0,0,0-0.1,0h112.8c30.4,0,31.4-2.1,31.4-2.1v-5.1H385.9z"/>
		<g>
			<circle fill="#191919" cx="475.3" cy="22.3" r="2.9"/>
			<circle fill="#000100" cx="475.3" cy="22.3" r="1.5"/>
			<ellipse fill="#272A29" cx="475.3" cy="21.5" rx="0.6" ry="0.5"/>
			<ellipse fill="#272A29" cx="475.3" cy="23.1" rx="0.6" ry="0.5"/>
		</g>
	</g>
</g>
<rect x="121.8" y="36.7" opacity="0.3" fill="#465470" width="706" height="438.7"/>
</svg>
