<?xml version="1.0" encoding="utf-8"?>
<!-- Generator: Adobe Illustrator 18.1.1, SVG Export Plug-In . SVG Version: 6.00 Build 0)  -->
<svg version="1.1" id="Layer_1" xmlns="http://www.w3.org/2000/svg" xmlns:xlink="http://www.w3.org/1999/xlink" x="0px" y="0px"
	 viewBox="0 0 900 478" enable-background="new 0 0 900 478" xml:space="preserve">
<g>
	<g>
		<g>
			<path fill="#252C3B" d="M106.3,467c-12.1,0-22-9.9-22-22V23c0-12.1,9.9-22,22-22h687.4c12.1,0,22,9.9,22,22v422.1
				c0,12.1-9.9,22-22,22H106.3z"/>
			<g>
				<path fill="#1C222E" d="M793.7,2c11.6,0,21,9.4,21,21v422.1c0,11.6-9.4,21-21,21H106.3c-11.6,0-21-9.4-21-21V23
					c0-11.6,9.4-21,21-21H793.7 M793.7,0H106.3c-12.7,0-23,10.3-23,23v422.1c0,12.7,10.3,23,23,23h687.4c12.7,0,23-10.3,23-23V23
					C816.6,10.3,806.3,0,793.7,0L793.7,0z"/>
			</g>
		</g>
		<g>
			<defs>
				<rect id="SVGID_1_" x="99.6" y="32.6" width="699" height="397"/>
			</defs>
			<use xlink:href="#SVGID_1_"  overflow="visible" fill="#252C3B"/>
			<clipPath id="SVGID_2_">
				<use xlink:href="#SVGID_1_"  overflow="visible"/>
			</clipPath>
			<use xlink:href="#SVGID_1_"  overflow="visible" fill="none" stroke="#1C222E" stroke-width="2"/>
		</g>
		<path fill="#202633" d="M811.8,448c0,0-709.6-0.2-724.8-0.2L0,453c17.2,0,86.6,2,98.1,2l779.4-0.5c11.6,0,13,0,22.5-1.5L811.8,448
			z"/>
		<circle opacity="0.5" fill="#424E69" cx="450.1" cy="17.5" r="4"/>
		<path opacity="0.1" fill="#10131A" d="M396.7,463.5h107.9c4.4,0,8-3.6,8-8c0-0.5-0.1-1-0.1-1.5H388.8c-0.1,0.5-0.2,1-0.2,1.5
			C388.7,459.9,392.2,463.5,396.7,463.5z"/>
		<path fill="#2E3545" d="M900,463v-10c-11.2,0-9.4,0-21,0H512.4c0.1,0.5,0.1,1,0.1,1.5c0,4.4-3.6,8-8,8H396.7c-4.4,0-8-3.6-8-8
			c0-0.5,0.1-1,0.2-1.5H103.6C92,453,17.2,453,0,453v10c0,1.1,0.1,2.1,0.3,3.1h899.4C899.9,465.2,900,464.1,900,463z"/>
		<path fill="#222A38" d="M0.3,466.1C1.9,475.2,10.5,478,21,478H879c10.5,0,19.1-2.8,20.7-11.9H0.3z"/>
	</g>
</g>
</svg>
