<!-- Full Logo -->
<svg width="92.5px" height="15.5px" viewBox="0 0 92.5 15.5">
  <path fill="#FFFFFF" d="M36.7,6.4c-1.8,0-3,1.4-3,3v0c0,1.6,1.2,3,3,3c1.8,0,3-1.4,3-3v0C39.7,7.8,38.5,6.4,36.7,6.4z M39,9.4 c0,1.3-1,2.4-2.3,2.4s-2.3-1.1-2.3-2.4v0c0-1.3,1-2.4,2.3-2.4S39,8.1,39,9.4L39,9.4z M16.3,5.9V3.4h-4V0H7.7v3.4h-4v2.5 C1.7,5.9,0,7.6,0,9.7c0,2.1,1.7,3.8,3.8,3.8c0.4,0,0.9-0.1,1.3-0.3c1.1,1.6,3,2.6,4.9,2.6s3.8-1,4.9-2.6c0.4,0.2,0.9,0.3,1.3,0.3 c2.1,0,3.8-1.7,3.8-3.8C20,7.6,18.4,5.9,16.3,5.9z M15.7,4v5.4c-0.5-0.4-1.1-0.7-1.8-0.7c-0.6,0-1.1,0.2-1.6,0.5V7.4H14V6.7h-1.7v-1 H14V5.1h-1.7V4H15.7z M11.7,0.6v3v5.2c-1-0.7-2.4-0.7-3.3,0V7.4H10V6.7H8.3v-1H10V5.1H8.3V4H10V3.4H8.3v-1H10V1.7H8.3v-1H11.7z M7.7,4v5.2c-1-0.7-2.4-0.6-3.3,0.2v-2H6V6.7H4.3v-1H6V5.1H4.3V4H7.7z M16.2,12.8c-0.4,0-0.9-0.1-1.3-0.3l-0.3-0.1l-0.2,0.2 c-1,1.5-2.7,2.5-4.5,2.5s-3.5-0.9-4.5-2.5l-0.2-0.2l-0.3,0.1c-0.4,0.2-0.8,0.3-1.3,0.3c-1.7,0-3.1-1.4-3.1-3.1c0-1.7,1.4-3.1,3-3.2 v3.8h0.7c0.4-0.6,1-0.9,1.7-0.9c0.6,0,1.1,0.2,1.5,0.6h0.6C8.6,9.4,9.3,9.1,10,9.1s1.4,0.3,1.9,0.9h0.6c0.4-0.4,0.9-0.6,1.5-0.6 c0.7,0,1.3,0.4,1.7,0.9h0.7V6.5c1.7,0,3,1.5,3,3.2C19.4,11.4,18,12.8,16.2,12.8z M31.3,11l0.4,0.4c-0.6,0.6-1.3,1-2.3,1 c-1.7,0-2.9-1.3-2.9-3v0c0-1.7,1.2-3,3-3c1.1,0,1.7,0.4,2.3,0.9l-0.5,0.5c-0.5-0.5-1-0.8-1.8-0.8c-1.3,0-2.3,1.1-2.3,2.4v0 c0,1.4,1,2.4,2.3,2.4C30.2,11.8,30.8,11.5,31.3,11z M74,6.4c-1.8,0-3,1.4-3,3v0c0,1.6,1.2,3,3,3c1.8,0,3-1.4,3-3v0 C77,7.8,75.8,6.4,74,6.4z M76.3,9.4c0,1.3-1,2.4-2.3,2.4s-2.3-1.1-2.3-2.4v0C71.7,8,72.6,7,74,7S76.3,8.1,76.3,9.4L76.3,9.4z M83.8,6.5h0.7v3.4c0,1.7-1,2.6-2.4,2.6c-1.4,0-2.4-0.9-2.4-2.5V6.5h0.7v3.4c0,1.3,0.7,2,1.8,2c1.1,0,1.8-0.7,1.8-1.9V6.5z M89.3,6.5h-2v5.9h2c1.8,0,3.1-1.3,3.1-2.9v0C92.4,7.7,91.1,6.5,89.3,6.5z M91.7,9.4c0,1.3-0.9,2.3-2.4,2.3h-1.4V7.1h1.4 C90.7,7.1,91.7,8.1,91.7,9.4L91.7,9.4z M65.8,11.7h3.3v0.6h-4V6.5h0.7V11.7z M53.1,6.5h-2.2v5.9h0.7v-2.1H53c1.2,0,2.3-0.7,2.3-1.9 v0C55.3,7.2,54.4,6.5,53.1,6.5z M54.6,8.4c0,0.8-0.6,1.3-1.6,1.3h-1.4V7.1H53C54,7.1,54.6,7.5,54.6,8.4L54.6,8.4z M62.3,11l0.4,0.4 c-0.6,0.6-1.3,1-2.3,1c-1.7,0-2.9-1.3-2.9-3v0c0-1.7,1.2-3,3-3c1.1,0,1.7,0.4,2.3,0.9l-0.5,0.5c-0.5-0.5-1-0.8-1.8-0.8 c-1.3,0-2.3,1.1-2.3,2.4v0c0,1.4,1,2.4,2.3,2.4C61.2,11.8,61.8,11.5,62.3,11z M47.3,6.5H48v5.9h-0.7V7.6l-2.1,3.1h0L43,7.6v4.7h-0.6 V6.5H43l2.1,3.2L47.3,6.5z"/>
</svg>

<!-- Small Logo -->
<svg width="20px" height="15.5px" viewBox="0 0 20 15.5">
  <path fill="#FFFFFF" d="M16.3,5.9V3.4h-4V0H7.7v3.4h-4v2.5C1.7,5.9,0,7.6,0,9.7c0,2.1,1.7,3.8,3.8,3.8c0.4,0,0.9-0.1,1.3-0.3 c1.1,1.6,3,2.6,4.9,2.6s3.8-1,4.9-2.6c0.4,0.2,0.9,0.3,1.3,0.3c2.1,0,3.8-1.7,3.8-3.8C20,7.6,18.4,5.9,16.3,5.9z M15.7,4v5.4 c-0.5-0.4-1.1-0.7-1.8-0.7c-0.6,0-1.1,0.2-1.6,0.5V7.4H14V6.7h-1.7v-1H14V5.1h-1.7V4H15.7z M11.7,0.6v3v5.2c-1-0.7-2.4-0.7-3.3,0 V7.4H10V6.7H8.3v-1H10V5.1H8.3V4H10V3.4H8.3v-1H10V1.7H8.3v-1H11.7z M7.7,4v5.2c-1-0.7-2.4-0.6-3.3,0.2v-2H6V6.7H4.3v-1H6V5.1H4.3V4 H7.7z M16.2,12.8c-0.4,0-0.9-0.1-1.3-0.3l-0.3-0.1l-0.2,0.2c-1,1.5-2.7,2.5-4.5,2.5s-3.5-0.9-4.5-2.5l-0.2-0.2l-0.3,0.1 c-0.4,0.2-0.8,0.3-1.3,0.3c-1.7,0-3.1-1.4-3.1-3.1c0-1.7,1.4-3.1,3-3.2v3.8h0.7c0.4-0.6,1-0.9,1.7-0.9c0.6,0,1.1,0.2,1.5,0.6h0.6 C8.6,9.4,9.3,9.1,10,9.1s1.4,0.3,1.9,0.9h0.6c0.4-0.4,0.9-0.6,1.5-0.6c0.7,0,1.3,0.4,1.7,0.9h0.7V6.5c1.7,0,3,1.5,3,3.2 C19.4,11.4,18,12.8,16.2,12.8z"/>
</svg>
